<?xml version="1.0" encoding="utf-8" standalone="no"?>
<!DOCTYPE svg PUBLIC "-//W3C//DTD SVG 1.1//EN"
  "http://www.w3.org/Graphics/SVG/1.1/DTD/svg11.dtd">
<svg xmlns:xlink="http://www.w3.org/1999/xlink" width="734.4pt" height="302.4pt" viewBox="0 0 734.4 302.4" xmlns="http://www.w3.org/2000/svg" version="1.1">
 <metadata>
  <rdf:RDF xmlns:dc="http://purl.org/dc/elements/1.1/" xmlns:cc="http://creativecommons.org/ns#" xmlns:rdf="http://www.w3.org/1999/02/22-rdf-syntax-ns#">
   <cc:Work>
    <dc:type rdf:resource="http://purl.org/dc/dcmitype/StillImage"/>
    <dc:date>2026-07-08T15:09:17.269964</dc:date>
    <dc:format>image/svg+xml</dc:format>
    <dc:creator>
     <cc:Agent>
      <dc:title>Matplotlib v3.10.8, https://matplotlib.org/</dc:title>
     </cc:Agent>
    </dc:creator>
   </cc:Work>
  </rdf:RDF>
 </metadata>
 <defs>
  <style type="text/css">*{stroke-linejoin: round; stroke-linecap: butt}</style>
 </defs>
 <g id="figure_1">
  <g id="patch_1">
   <path d="M 0 302.4 
L 734.4 302.4 
L 734.4 0 
L 0 0 
z
" style="fill: #ffffff"/>
  </g>
  <g id="axes_1">
   <g id="patch_2">
    <path d="M 61.469054 257.56 
L 354.868527 257.56 
L 354.868527 26.16 
L 61.469054 26.16 
z
" style="fill: #ffffff"/>
   </g>
   <g id="patch_3">
    <path d="M 209.232364 257.56 
L 210.772711 257.56 
L 210.772711 26.16 
L 209.232364 26.16 
z
" clip-path="url(#p9b52c332e7)" style="fill: #f4d03f; opacity: 0.35; stroke: #f4d03f; stroke-linejoin: miter"/>
   </g>
   <g id="matplotlib.axis_1">
    <g id="xtick_1">
     <g id="line2d_1">
      <defs>
       <path id="md4f56deac1" d="M 0 0 
L 0 3.5 
" style="stroke: #000000; stroke-width: 0.8"/>
      </defs>
      <g>
       <use xlink:href="#md4f56deac1" x="79.806521" y="257.56" style="stroke: #000000; stroke-width: 0.8"/>
      </g>
     </g>
     <g id="text_1">
      <!-- 440 -->
      <g transform="translate(70.262771 272.158438) scale(0.1 -0.1)">
       <defs>
        <path id="DejaVuSans-34" d="M 2419 4116 
L 825 1625 
L 2419 1625 
L 2419 4116 
z
M 2253 4666 
L 3047 4666 
L 3047 1625 
L 3713 1625 
L 3713 1100 
L 3047 1100 
L 3047 0 
L 2419 0 
L 2419 1100 
L 313 1100 
L 313 1709 
L 2253 4666 
z
" transform="scale(0.015625)"/>
        <path id="DejaVuSans-30" d="M 2034 4250 
Q 1547 4250 1301 3770 
Q 1056 3291 1056 2328 
Q 1056 1369 1301 889 
Q 1547 409 2034 409 
Q 2525 409 2770 889 
Q 3016 1369 3016 2328 
Q 3016 3291 2770 3770 
Q 2525 4250 2034 4250 
z
M 2034 4750 
Q 2819 4750 3233 4129 
Q 3647 3509 3647 2328 
Q 3647 1150 3233 529 
Q 2819 -91 2034 -91 
Q 1250 -91 836 529 
Q 422 1150 422 2328 
Q 422 3509 836 4129 
Q 1250 4750 2034 4750 
z
" transform="scale(0.015625)"/>
       </defs>
       <use xlink:href="#DejaVuSans-34"/>
       <use xlink:href="#DejaVuSans-34" transform="translate(63.623047 0)"/>
       <use xlink:href="#DejaVuSans-30" transform="translate(127.246094 0)"/>
      </g>
     </g>
    </g>
    <g id="xtick_2">
     <g id="line2d_2">
      <g>
       <use xlink:href="#md4f56deac1" x="116.481455" y="257.56" style="stroke: #000000; stroke-width: 0.8"/>
      </g>
     </g>
     <g id="text_2">
      <!-- 460 -->
      <g transform="translate(106.937705 272.158438) scale(0.1 -0.1)">
       <defs>
        <path id="DejaVuSans-36" d="M 2113 2584 
Q 1688 2584 1439 2293 
Q 1191 2003 1191 1497 
Q 1191 994 1439 701 
Q 1688 409 2113 409 
Q 2538 409 2786 701 
Q 3034 994 3034 1497 
Q 3034 2003 2786 2293 
Q 2538 2584 2113 2584 
z
M 3366 4563 
L 3366 3988 
Q 3128 4100 2886 4159 
Q 2644 4219 2406 4219 
Q 1781 4219 1451 3797 
Q 1122 3375 1075 2522 
Q 1259 2794 1537 2939 
Q 1816 3084 2150 3084 
Q 2853 3084 3261 2657 
Q 3669 2231 3669 1497 
Q 3669 778 3244 343 
Q 2819 -91 2113 -91 
Q 1303 -91 875 529 
Q 447 1150 447 2328 
Q 447 3434 972 4092 
Q 1497 4750 2381 4750 
Q 2619 4750 2861 4703 
Q 3103 4656 3366 4563 
z
" transform="scale(0.015625)"/>
       </defs>
       <use xlink:href="#DejaVuSans-34"/>
       <use xlink:href="#DejaVuSans-36" transform="translate(63.623047 0)"/>
       <use xlink:href="#DejaVuSans-30" transform="translate(127.246094 0)"/>
      </g>
     </g>
    </g>
    <g id="xtick_3">
     <g id="line2d_3">
      <g>
       <use xlink:href="#md4f56deac1" x="153.156389" y="257.56" style="stroke: #000000; stroke-width: 0.8"/>
      </g>
     </g>
     <g id="text_3">
      <!-- 480 -->
      <g transform="translate(143.612639 272.158438) scale(0.1 -0.1)">
       <defs>
        <path id="DejaVuSans-38" d="M 2034 2216 
Q 1584 2216 1326 1975 
Q 1069 1734 1069 1313 
Q 1069 891 1326 650 
Q 1584 409 2034 409 
Q 2484 409 2743 651 
Q 3003 894 3003 1313 
Q 3003 1734 2745 1975 
Q 2488 2216 2034 2216 
z
M 1403 2484 
Q 997 2584 770 2862 
Q 544 3141 544 3541 
Q 544 4100 942 4425 
Q 1341 4750 2034 4750 
Q 2731 4750 3128 4425 
Q 3525 4100 3525 3541 
Q 3525 3141 3298 2862 
Q 3072 2584 2669 2484 
Q 3125 2378 3379 2068 
Q 3634 1759 3634 1313 
Q 3634 634 3220 271 
Q 2806 -91 2034 -91 
Q 1263 -91 848 271 
Q 434 634 434 1313 
Q 434 1759 690 2068 
Q 947 2378 1403 2484 
z
M 1172 3481 
Q 1172 3119 1398 2916 
Q 1625 2713 2034 2713 
Q 2441 2713 2670 2916 
Q 2900 3119 2900 3481 
Q 2900 3844 2670 4047 
Q 2441 4250 2034 4250 
Q 1625 4250 1398 4047 
Q 1172 3844 1172 3481 
z
" transform="scale(0.015625)"/>
       </defs>
       <use xlink:href="#DejaVuSans-34"/>
       <use xlink:href="#DejaVuSans-38" transform="translate(63.623047 0)"/>
       <use xlink:href="#DejaVuSans-30" transform="translate(127.246094 0)"/>
      </g>
     </g>
    </g>
    <g id="xtick_4">
     <g id="line2d_4">
      <g>
       <use xlink:href="#md4f56deac1" x="189.831323" y="257.56" style="stroke: #000000; stroke-width: 0.8"/>
      </g>
     </g>
     <g id="text_4">
      <!-- 500 -->
      <g transform="translate(180.287573 272.158438) scale(0.1 -0.1)">
       <defs>
        <path id="DejaVuSans-35" d="M 691 4666 
L 3169 4666 
L 3169 4134 
L 1269 4134 
L 1269 2991 
Q 1406 3038 1543 3061 
Q 1681 3084 1819 3084 
Q 2600 3084 3056 2656 
Q 3513 2228 3513 1497 
Q 3513 744 3044 326 
Q 2575 -91 1722 -91 
Q 1428 -91 1123 -41 
Q 819 9 494 109 
L 494 744 
Q 775 591 1075 516 
Q 1375 441 1709 441 
Q 2250 441 2565 725 
Q 2881 1009 2881 1497 
Q 2881 1984 2565 2268 
Q 2250 2553 1709 2553 
Q 1456 2553 1204 2497 
Q 953 2441 691 2322 
L 691 4666 
z
" transform="scale(0.015625)"/>
       </defs>
       <use xlink:href="#DejaVuSans-35"/>
       <use xlink:href="#DejaVuSans-30" transform="translate(63.623047 0)"/>
       <use xlink:href="#DejaVuSans-30" transform="translate(127.246094 0)"/>
      </g>
     </g>
    </g>
    <g id="xtick_5">
     <g id="line2d_5">
      <g>
       <use xlink:href="#md4f56deac1" x="226.506257" y="257.56" style="stroke: #000000; stroke-width: 0.8"/>
      </g>
     </g>
     <g id="text_5">
      <!-- 520 -->
      <g transform="translate(216.962507 272.158438) scale(0.1 -0.1)">
       <defs>
        <path id="DejaVuSans-32" d="M 1228 531 
L 3431 531 
L 3431 0 
L 469 0 
L 469 531 
Q 828 903 1448 1529 
Q 2069 2156 2228 2338 
Q 2531 2678 2651 2914 
Q 2772 3150 2772 3378 
Q 2772 3750 2511 3984 
Q 2250 4219 1831 4219 
Q 1534 4219 1204 4116 
Q 875 4013 500 3803 
L 500 4441 
Q 881 4594 1212 4672 
Q 1544 4750 1819 4750 
Q 2544 4750 2975 4387 
Q 3406 4025 3406 3419 
Q 3406 3131 3298 2873 
Q 3191 2616 2906 2266 
Q 2828 2175 2409 1742 
Q 1991 1309 1228 531 
z
" transform="scale(0.015625)"/>
       </defs>
       <use xlink:href="#DejaVuSans-35"/>
       <use xlink:href="#DejaVuSans-32" transform="translate(63.623047 0)"/>
       <use xlink:href="#DejaVuSans-30" transform="translate(127.246094 0)"/>
      </g>
     </g>
    </g>
    <g id="xtick_6">
     <g id="line2d_6">
      <g>
       <use xlink:href="#md4f56deac1" x="263.181192" y="257.56" style="stroke: #000000; stroke-width: 0.8"/>
      </g>
     </g>
     <g id="text_6">
      <!-- 540 -->
      <g transform="translate(253.637442 272.158438) scale(0.1 -0.1)">
       <use xlink:href="#DejaVuSans-35"/>
       <use xlink:href="#DejaVuSans-34" transform="translate(63.623047 0)"/>
       <use xlink:href="#DejaVuSans-30" transform="translate(127.246094 0)"/>
      </g>
     </g>
    </g>
    <g id="xtick_7">
     <g id="line2d_7">
      <g>
       <use xlink:href="#md4f56deac1" x="299.856126" y="257.56" style="stroke: #000000; stroke-width: 0.8"/>
      </g>
     </g>
     <g id="text_7">
      <!-- 560 -->
      <g transform="translate(290.312376 272.158438) scale(0.1 -0.1)">
       <use xlink:href="#DejaVuSans-35"/>
       <use xlink:href="#DejaVuSans-36" transform="translate(63.623047 0)"/>
       <use xlink:href="#DejaVuSans-30" transform="translate(127.246094 0)"/>
      </g>
     </g>
    </g>
    <g id="xtick_8">
     <g id="line2d_8">
      <g>
       <use xlink:href="#md4f56deac1" x="336.53106" y="257.56" style="stroke: #000000; stroke-width: 0.8"/>
      </g>
     </g>
     <g id="text_8">
      <!-- 580 -->
      <g transform="translate(326.98731 272.158438) scale(0.1 -0.1)">
       <use xlink:href="#DejaVuSans-35"/>
       <use xlink:href="#DejaVuSans-38" transform="translate(63.623047 0)"/>
       <use xlink:href="#DejaVuSans-30" transform="translate(127.246094 0)"/>
      </g>
     </g>
    </g>
    <g id="text_9">
     <!-- photon energy [keV] -->
     <g transform="translate(156.864103 285.836563) scale(0.1 -0.1)">
      <defs>
       <path id="DejaVuSans-70" d="M 1159 525 
L 1159 -1331 
L 581 -1331 
L 581 3500 
L 1159 3500 
L 1159 2969 
Q 1341 3281 1617 3432 
Q 1894 3584 2278 3584 
Q 2916 3584 3314 3078 
Q 3713 2572 3713 1747 
Q 3713 922 3314 415 
Q 2916 -91 2278 -91 
Q 1894 -91 1617 61 
Q 1341 213 1159 525 
z
M 3116 1747 
Q 3116 2381 2855 2742 
Q 2594 3103 2138 3103 
Q 1681 3103 1420 2742 
Q 1159 2381 1159 1747 
Q 1159 1113 1420 752 
Q 1681 391 2138 391 
Q 2594 391 2855 752 
Q 3116 1113 3116 1747 
z
" transform="scale(0.015625)"/>
       <path id="DejaVuSans-68" d="M 3513 2113 
L 3513 0 
L 2938 0 
L 2938 2094 
Q 2938 2591 2744 2837 
Q 2550 3084 2163 3084 
Q 1697 3084 1428 2787 
Q 1159 2491 1159 1978 
L 1159 0 
L 581 0 
L 581 4863 
L 1159 4863 
L 1159 2956 
Q 1366 3272 1645 3428 
Q 1925 3584 2291 3584 
Q 2894 3584 3203 3211 
Q 3513 2838 3513 2113 
z
" transform="scale(0.015625)"/>
       <path id="DejaVuSans-6f" d="M 1959 3097 
Q 1497 3097 1228 2736 
Q 959 2375 959 1747 
Q 959 1119 1226 758 
Q 1494 397 1959 397 
Q 2419 397 2687 759 
Q 2956 1122 2956 1747 
Q 2956 2369 2687 2733 
Q 2419 3097 1959 3097 
z
M 1959 3584 
Q 2709 3584 3137 3096 
Q 3566 2609 3566 1747 
Q 3566 888 3137 398 
Q 2709 -91 1959 -91 
Q 1206 -91 779 398 
Q 353 888 353 1747 
Q 353 2609 779 3096 
Q 1206 3584 1959 3584 
z
" transform="scale(0.015625)"/>
       <path id="DejaVuSans-74" d="M 1172 4494 
L 1172 3500 
L 2356 3500 
L 2356 3053 
L 1172 3053 
L 1172 1153 
Q 1172 725 1289 603 
Q 1406 481 1766 481 
L 2356 481 
L 2356 0 
L 1766 0 
Q 1100 0 847 248 
Q 594 497 594 1153 
L 594 3053 
L 172 3053 
L 172 3500 
L 594 3500 
L 594 4494 
L 1172 4494 
z
" transform="scale(0.015625)"/>
       <path id="DejaVuSans-6e" d="M 3513 2113 
L 3513 0 
L 2938 0 
L 2938 2094 
Q 2938 2591 2744 2837 
Q 2550 3084 2163 3084 
Q 1697 3084 1428 2787 
Q 1159 2491 1159 1978 
L 1159 0 
L 581 0 
L 581 3500 
L 1159 3500 
L 1159 2956 
Q 1366 3272 1645 3428 
Q 1925 3584 2291 3584 
Q 2894 3584 3203 3211 
Q 3513 2838 3513 2113 
z
" transform="scale(0.015625)"/>
       <path id="DejaVuSans-20" transform="scale(0.015625)"/>
       <path id="DejaVuSans-65" d="M 3597 1894 
L 3597 1613 
L 953 1613 
Q 991 1019 1311 708 
Q 1631 397 2203 397 
Q 2534 397 2845 478 
Q 3156 559 3463 722 
L 3463 178 
Q 3153 47 2828 -22 
Q 2503 -91 2169 -91 
Q 1331 -91 842 396 
Q 353 884 353 1716 
Q 353 2575 817 3079 
Q 1281 3584 2069 3584 
Q 2775 3584 3186 3129 
Q 3597 2675 3597 1894 
z
M 3022 2063 
Q 3016 2534 2758 2815 
Q 2500 3097 2075 3097 
Q 1594 3097 1305 2825 
Q 1016 2553 972 2059 
L 3022 2063 
z
" transform="scale(0.015625)"/>
       <path id="DejaVuSans-72" d="M 2631 2963 
Q 2534 3019 2420 3045 
Q 2306 3072 2169 3072 
Q 1681 3072 1420 2755 
Q 1159 2438 1159 1844 
L 1159 0 
L 581 0 
L 581 3500 
L 1159 3500 
L 1159 2956 
Q 1341 3275 1631 3429 
Q 1922 3584 2338 3584 
Q 2397 3584 2469 3576 
Q 2541 3569 2628 3553 
L 2631 2963 
z
" transform="scale(0.015625)"/>
       <path id="DejaVuSans-67" d="M 2906 1791 
Q 2906 2416 2648 2759 
Q 2391 3103 1925 3103 
Q 1463 3103 1205 2759 
Q 947 2416 947 1791 
Q 947 1169 1205 825 
Q 1463 481 1925 481 
Q 2391 481 2648 825 
Q 2906 1169 2906 1791 
z
M 3481 434 
Q 3481 -459 3084 -895 
Q 2688 -1331 1869 -1331 
Q 1566 -1331 1297 -1286 
Q 1028 -1241 775 -1147 
L 775 -588 
Q 1028 -725 1275 -790 
Q 1522 -856 1778 -856 
Q 2344 -856 2625 -561 
Q 2906 -266 2906 331 
L 2906 616 
Q 2728 306 2450 153 
Q 2172 0 1784 0 
Q 1141 0 747 490 
Q 353 981 353 1791 
Q 353 2603 747 3093 
Q 1141 3584 1784 3584 
Q 2172 3584 2450 3431 
Q 2728 3278 2906 2969 
L 2906 3500 
L 3481 3500 
L 3481 434 
z
" transform="scale(0.015625)"/>
       <path id="DejaVuSans-79" d="M 2059 -325 
Q 1816 -950 1584 -1140 
Q 1353 -1331 966 -1331 
L 506 -1331 
L 506 -850 
L 844 -850 
Q 1081 -850 1212 -737 
Q 1344 -625 1503 -206 
L 1606 56 
L 191 3500 
L 800 3500 
L 1894 763 
L 2988 3500 
L 3597 3500 
L 2059 -325 
z
" transform="scale(0.015625)"/>
       <path id="DejaVuSans-5b" d="M 550 4863 
L 1875 4863 
L 1875 4416 
L 1125 4416 
L 1125 -397 
L 1875 -397 
L 1875 -844 
L 550 -844 
L 550 4863 
z
" transform="scale(0.015625)"/>
       <path id="DejaVuSans-6b" d="M 581 4863 
L 1159 4863 
L 1159 1991 
L 2875 3500 
L 3609 3500 
L 1753 1863 
L 3688 0 
L 2938 0 
L 1159 1709 
L 1159 0 
L 581 0 
L 581 4863 
z
" transform="scale(0.015625)"/>
       <path id="DejaVuSans-56" d="M 1831 0 
L 50 4666 
L 709 4666 
L 2188 738 
L 3669 4666 
L 4325 4666 
L 2547 0 
L 1831 0 
z
" transform="scale(0.015625)"/>
       <path id="DejaVuSans-5d" d="M 1947 4863 
L 1947 -844 
L 622 -844 
L 622 -397 
L 1369 -397 
L 1369 4416 
L 622 4416 
L 622 4863 
L 1947 4863 
z
" transform="scale(0.015625)"/>
      </defs>
      <use xlink:href="#DejaVuSans-70"/>
      <use xlink:href="#DejaVuSans-68" transform="translate(63.476562 0)"/>
      <use xlink:href="#DejaVuSans-6f" transform="translate(126.855469 0)"/>
      <use xlink:href="#DejaVuSans-74" transform="translate(188.037109 0)"/>
      <use xlink:href="#DejaVuSans-6f" transform="translate(227.246094 0)"/>
      <use xlink:href="#DejaVuSans-6e" transform="translate(288.427734 0)"/>
      <use xlink:href="#DejaVuSans-20" transform="translate(351.806641 0)"/>
      <use xlink:href="#DejaVuSans-65" transform="translate(383.59375 0)"/>
      <use xlink:href="#DejaVuSans-6e" transform="translate(445.117188 0)"/>
      <use xlink:href="#DejaVuSans-65" transform="translate(508.496094 0)"/>
      <use xlink:href="#DejaVuSans-72" transform="translate(570.019531 0)"/>
      <use xlink:href="#DejaVuSans-67" transform="translate(609.382812 0)"/>
      <use xlink:href="#DejaVuSans-79" transform="translate(672.859375 0)"/>
      <use xlink:href="#DejaVuSans-20" transform="translate(732.039062 0)"/>
      <use xlink:href="#DejaVuSans-5b" transform="translate(763.826172 0)"/>
      <use xlink:href="#DejaVuSans-6b" transform="translate(802.839844 0)"/>
      <use xlink:href="#DejaVuSans-65" transform="translate(857.125 0)"/>
      <use xlink:href="#DejaVuSans-56" transform="translate(918.648438 0)"/>
      <use xlink:href="#DejaVuSans-5d" transform="translate(987.056641 0)"/>
     </g>
    </g>
   </g>
   <g id="matplotlib.axis_2">
    <g id="ytick_1">
     <g id="line2d_9">
      <defs>
       <path id="maac3f94681" d="M 0 0 
L -3.5 0 
" style="stroke: #000000; stroke-width: 0.8"/>
      </defs>
      <g>
       <use xlink:href="#maac3f94681" x="61.469054" y="177.266602" style="stroke: #000000; stroke-width: 0.8"/>
      </g>
     </g>
     <g id="text_10">
      <!-- $\mathdefault{10^{-4}}$ -->
      <g transform="translate(30.969054 181.06582) scale(0.1 -0.1)">
       <defs>
        <path id="DejaVuSans-31" d="M 794 531 
L 1825 531 
L 1825 4091 
L 703 3866 
L 703 4441 
L 1819 4666 
L 2450 4666 
L 2450 531 
L 3481 531 
L 3481 0 
L 794 0 
L 794 531 
z
" transform="scale(0.015625)"/>
        <path id="DejaVuSans-2212" d="M 678 2272 
L 4684 2272 
L 4684 1741 
L 678 1741 
L 678 2272 
z
" transform="scale(0.015625)"/>
       </defs>
       <use xlink:href="#DejaVuSans-31" transform="translate(0 0.684375)"/>
       <use xlink:href="#DejaVuSans-30" transform="translate(63.623047 0.684375)"/>
       <use xlink:href="#DejaVuSans-2212" transform="translate(128.203125 38.965625) scale(0.7)"/>
       <use xlink:href="#DejaVuSans-34" transform="translate(186.855469 38.965625) scale(0.7)"/>
      </g>
     </g>
    </g>
    <g id="ytick_2">
     <g id="line2d_10">
      <g>
       <use xlink:href="#maac3f94681" x="61.469054" y="70.287025" style="stroke: #000000; stroke-width: 0.8"/>
      </g>
     </g>
     <g id="text_11">
      <!-- $\mathdefault{10^{-3}}$ -->
      <g transform="translate(30.969054 74.086244) scale(0.1 -0.1)">
       <defs>
        <path id="DejaVuSans-33" d="M 2597 2516 
Q 3050 2419 3304 2112 
Q 3559 1806 3559 1356 
Q 3559 666 3084 287 
Q 2609 -91 1734 -91 
Q 1441 -91 1130 -33 
Q 819 25 488 141 
L 488 750 
Q 750 597 1062 519 
Q 1375 441 1716 441 
Q 2309 441 2620 675 
Q 2931 909 2931 1356 
Q 2931 1769 2642 2001 
Q 2353 2234 1838 2234 
L 1294 2234 
L 1294 2753 
L 1863 2753 
Q 2328 2753 2575 2939 
Q 2822 3125 2822 3475 
Q 2822 3834 2567 4026 
Q 2313 4219 1838 4219 
Q 1578 4219 1281 4162 
Q 984 4106 628 3988 
L 628 4550 
Q 988 4650 1302 4700 
Q 1616 4750 1894 4750 
Q 2613 4750 3031 4423 
Q 3450 4097 3450 3541 
Q 3450 3153 3228 2886 
Q 3006 2619 2597 2516 
z
" transform="scale(0.015625)"/>
       </defs>
       <use xlink:href="#DejaVuSans-31" transform="translate(0 0.765625)"/>
       <use xlink:href="#DejaVuSans-30" transform="translate(63.623047 0.765625)"/>
       <use xlink:href="#DejaVuSans-2212" transform="translate(128.203125 39.046875) scale(0.7)"/>
       <use xlink:href="#DejaVuSans-33" transform="translate(186.855469 39.046875) scale(0.7)"/>
      </g>
     </g>
    </g>
    <g id="ytick_3">
     <g id="line2d_11">
      <defs>
       <path id="m76fae1d255" d="M 0 0 
L -2 0 
" style="stroke: #000000; stroke-width: 0.6"/>
      </defs>
      <g>
       <use xlink:href="#m76fae1d255" x="61.469054" y="252.042117" style="stroke: #000000; stroke-width: 0.6"/>
      </g>
     </g>
    </g>
    <g id="ytick_4">
     <g id="line2d_12">
      <g>
       <use xlink:href="#m76fae1d255" x="61.469054" y="233.203948" style="stroke: #000000; stroke-width: 0.6"/>
      </g>
     </g>
    </g>
    <g id="ytick_5">
     <g id="line2d_13">
      <g>
       <use xlink:href="#m76fae1d255" x="61.469054" y="219.838055" style="stroke: #000000; stroke-width: 0.6"/>
      </g>
     </g>
    </g>
    <g id="ytick_6">
     <g id="line2d_14">
      <g>
       <use xlink:href="#m76fae1d255" x="61.469054" y="209.470663" style="stroke: #000000; stroke-width: 0.6"/>
      </g>
     </g>
    </g>
    <g id="ytick_7">
     <g id="line2d_15">
      <g>
       <use xlink:href="#m76fae1d255" x="61.469054" y="200.999887" style="stroke: #000000; stroke-width: 0.6"/>
      </g>
     </g>
    </g>
    <g id="ytick_8">
     <g id="line2d_16">
      <g>
       <use xlink:href="#m76fae1d255" x="61.469054" y="193.837948" style="stroke: #000000; stroke-width: 0.6"/>
      </g>
     </g>
    </g>
    <g id="ytick_9">
     <g id="line2d_17">
      <g>
       <use xlink:href="#m76fae1d255" x="61.469054" y="187.633994" style="stroke: #000000; stroke-width: 0.6"/>
      </g>
     </g>
    </g>
    <g id="ytick_10">
     <g id="line2d_18">
      <g>
       <use xlink:href="#m76fae1d255" x="61.469054" y="182.161719" style="stroke: #000000; stroke-width: 0.6"/>
      </g>
     </g>
    </g>
    <g id="ytick_11">
     <g id="line2d_19">
      <g>
       <use xlink:href="#m76fae1d255" x="61.469054" y="145.06254" style="stroke: #000000; stroke-width: 0.6"/>
      </g>
     </g>
    </g>
    <g id="ytick_12">
     <g id="line2d_20">
      <g>
       <use xlink:href="#m76fae1d255" x="61.469054" y="126.224372" style="stroke: #000000; stroke-width: 0.6"/>
      </g>
     </g>
    </g>
    <g id="ytick_13">
     <g id="line2d_21">
      <g>
       <use xlink:href="#m76fae1d255" x="61.469054" y="112.858479" style="stroke: #000000; stroke-width: 0.6"/>
      </g>
     </g>
    </g>
    <g id="ytick_14">
     <g id="line2d_22">
      <g>
       <use xlink:href="#m76fae1d255" x="61.469054" y="102.491087" style="stroke: #000000; stroke-width: 0.6"/>
      </g>
     </g>
    </g>
    <g id="ytick_15">
     <g id="line2d_23">
      <g>
       <use xlink:href="#m76fae1d255" x="61.469054" y="94.02031" style="stroke: #000000; stroke-width: 0.6"/>
      </g>
     </g>
    </g>
    <g id="ytick_16">
     <g id="line2d_24">
      <g>
       <use xlink:href="#m76fae1d255" x="61.469054" y="86.858371" style="stroke: #000000; stroke-width: 0.6"/>
      </g>
     </g>
    </g>
    <g id="ytick_17">
     <g id="line2d_25">
      <g>
       <use xlink:href="#m76fae1d255" x="61.469054" y="80.654417" style="stroke: #000000; stroke-width: 0.6"/>
      </g>
     </g>
    </g>
    <g id="ytick_18">
     <g id="line2d_26">
      <g>
       <use xlink:href="#m76fae1d255" x="61.469054" y="75.182142" style="stroke: #000000; stroke-width: 0.6"/>
      </g>
     </g>
    </g>
    <g id="ytick_19">
     <g id="line2d_27">
      <g>
       <use xlink:href="#m76fae1d255" x="61.469054" y="38.082964" style="stroke: #000000; stroke-width: 0.6"/>
      </g>
     </g>
    </g>
    <g id="text_12">
     <!-- gamma PDF [keV$^{-1}$] -->
     <g transform="translate(24.869054 192.51) rotate(-90) scale(0.1 -0.1)">
      <defs>
       <path id="DejaVuSans-61" d="M 2194 1759 
Q 1497 1759 1228 1600 
Q 959 1441 959 1056 
Q 959 750 1161 570 
Q 1363 391 1709 391 
Q 2188 391 2477 730 
Q 2766 1069 2766 1631 
L 2766 1759 
L 2194 1759 
z
M 3341 1997 
L 3341 0 
L 2766 0 
L 2766 531 
Q 2569 213 2275 61 
Q 1981 -91 1556 -91 
Q 1019 -91 701 211 
Q 384 513 384 1019 
Q 384 1609 779 1909 
Q 1175 2209 1959 2209 
L 2766 2209 
L 2766 2266 
Q 2766 2663 2505 2880 
Q 2244 3097 1772 3097 
Q 1472 3097 1187 3025 
Q 903 2953 641 2809 
L 641 3341 
Q 956 3463 1253 3523 
Q 1550 3584 1831 3584 
Q 2591 3584 2966 3190 
Q 3341 2797 3341 1997 
z
" transform="scale(0.015625)"/>
       <path id="DejaVuSans-6d" d="M 3328 2828 
Q 3544 3216 3844 3400 
Q 4144 3584 4550 3584 
Q 5097 3584 5394 3201 
Q 5691 2819 5691 2113 
L 5691 0 
L 5113 0 
L 5113 2094 
Q 5113 2597 4934 2840 
Q 4756 3084 4391 3084 
Q 3944 3084 3684 2787 
Q 3425 2491 3425 1978 
L 3425 0 
L 2847 0 
L 2847 2094 
Q 2847 2600 2669 2842 
Q 2491 3084 2119 3084 
Q 1678 3084 1418 2786 
Q 1159 2488 1159 1978 
L 1159 0 
L 581 0 
L 581 3500 
L 1159 3500 
L 1159 2956 
Q 1356 3278 1631 3431 
Q 1906 3584 2284 3584 
Q 2666 3584 2933 3390 
Q 3200 3197 3328 2828 
z
" transform="scale(0.015625)"/>
       <path id="DejaVuSans-50" d="M 1259 4147 
L 1259 2394 
L 2053 2394 
Q 2494 2394 2734 2622 
Q 2975 2850 2975 3272 
Q 2975 3691 2734 3919 
Q 2494 4147 2053 4147 
L 1259 4147 
z
M 628 4666 
L 2053 4666 
Q 2838 4666 3239 4311 
Q 3641 3956 3641 3272 
Q 3641 2581 3239 2228 
Q 2838 1875 2053 1875 
L 1259 1875 
L 1259 0 
L 628 0 
L 628 4666 
z
" transform="scale(0.015625)"/>
       <path id="DejaVuSans-44" d="M 1259 4147 
L 1259 519 
L 2022 519 
Q 2988 519 3436 956 
Q 3884 1394 3884 2338 
Q 3884 3275 3436 3711 
Q 2988 4147 2022 4147 
L 1259 4147 
z
M 628 4666 
L 1925 4666 
Q 3281 4666 3915 4102 
Q 4550 3538 4550 2338 
Q 4550 1131 3912 565 
Q 3275 0 1925 0 
L 628 0 
L 628 4666 
z
" transform="scale(0.015625)"/>
       <path id="DejaVuSans-46" d="M 628 4666 
L 3309 4666 
L 3309 4134 
L 1259 4134 
L 1259 2759 
L 3109 2759 
L 3109 2228 
L 1259 2228 
L 1259 0 
L 628 0 
L 628 4666 
z
" transform="scale(0.015625)"/>
      </defs>
      <use xlink:href="#DejaVuSans-67" transform="translate(0 0.684375)"/>
      <use xlink:href="#DejaVuSans-61" transform="translate(63.476562 0.684375)"/>
      <use xlink:href="#DejaVuSans-6d" transform="translate(124.755859 0.684375)"/>
      <use xlink:href="#DejaVuSans-6d" transform="translate(222.167969 0.684375)"/>
      <use xlink:href="#DejaVuSans-61" transform="translate(319.580078 0.684375)"/>
      <use xlink:href="#DejaVuSans-20" transform="translate(380.859375 0.684375)"/>
      <use xlink:href="#DejaVuSans-50" transform="translate(412.646484 0.684375)"/>
      <use xlink:href="#DejaVuSans-44" transform="translate(472.949219 0.684375)"/>
      <use xlink:href="#DejaVuSans-46" transform="translate(549.951172 0.684375)"/>
      <use xlink:href="#DejaVuSans-20" transform="translate(607.470703 0.684375)"/>
      <use xlink:href="#DejaVuSans-5b" transform="translate(639.257812 0.684375)"/>
      <use xlink:href="#DejaVuSans-6b" transform="translate(678.271484 0.684375)"/>
      <use xlink:href="#DejaVuSans-65" transform="translate(736.181641 0.684375)"/>
      <use xlink:href="#DejaVuSans-56" transform="translate(797.705078 0.684375)"/>
      <use xlink:href="#DejaVuSans-2212" transform="translate(867.070312 38.965625) scale(0.7)"/>
      <use xlink:href="#DejaVuSans-31" transform="translate(925.722656 38.965625) scale(0.7)"/>
      <use xlink:href="#DejaVuSans-5d" transform="translate(972.993164 0.684375)"/>
     </g>
    </g>
   </g>
   <g id="line2d_28">
    <path d="M -1 140.106188 
L 97.502177 157.990318 
L 311.005306 153.276372 
L 579.759223 233.826715 
" clip-path="url(#p9b52c332e7)" style="fill: none; stroke: #737373; stroke-width: 1.6; stroke-linecap: square"/>
   </g>
   <g id="patch_4">
    <path d="M 61.469054 257.56 
L 61.469054 26.16 
" style="fill: none; stroke: #000000; stroke-width: 0.8; stroke-linejoin: miter; stroke-linecap: square"/>
   </g>
   <g id="patch_5">
    <path d="M 354.868527 257.56 
L 354.868527 26.16 
" style="fill: none; stroke: #000000; stroke-width: 0.8; stroke-linejoin: miter; stroke-linecap: square"/>
   </g>
   <g id="patch_6">
    <path d="M 61.469054 257.56 
L 354.868527 257.56 
" style="fill: none; stroke: #000000; stroke-width: 0.8; stroke-linejoin: miter; stroke-linecap: square"/>
   </g>
   <g id="patch_7">
    <path d="M 61.469054 26.16 
L 354.868527 26.16 
" style="fill: none; stroke: #000000; stroke-width: 0.8; stroke-linejoin: miter; stroke-linecap: square"/>
   </g>
   <g id="line2d_29">
    <defs>
     <path id="m660adedd37" d="M 0 3 
C 0.795609 3 1.55874 2.683901 2.12132 2.12132 
C 2.683901 1.55874 3 0.795609 3 0 
C 3 -0.795609 2.683901 -1.55874 2.12132 -2.12132 
C 1.55874 -2.683901 0.795609 -3 0 -3 
C -0.795609 -3 -1.55874 -2.683901 -2.12132 -2.12132 
C -2.683901 -1.55874 -3 -0.795609 -3 0 
C -3 0.795609 -2.683901 1.55874 -2.12132 2.12132 
C -1.55874 2.683901 -0.795609 3 0 3 
z
" style="stroke: #262626"/>
    </defs>
    <g clip-path="url(#p9b52c332e7)">
     <use xlink:href="#m660adedd37" x="-1" y="140.106188" style="fill: #262626; stroke: #262626"/>
     <use xlink:href="#m660adedd37" x="97.502177" y="157.990318" style="fill: #262626; stroke: #262626"/>
     <use xlink:href="#m660adedd37" x="311.005306" y="153.276372" style="fill: #262626; stroke: #262626"/>
     <use xlink:href="#m660adedd37" x="579.759223" y="233.826715" style="fill: #262626; stroke: #262626"/>
    </g>
   </g>
   <g id="text_13">
    <!-- supplemented -->
    <g style="fill: #1f6f8b" transform="translate(175.730936 48.799148) scale(0.085 -0.085)">
     <defs>
      <path id="DejaVuSans-Bold-73" d="M 3272 3391 
L 3272 2541 
Q 2913 2691 2578 2766 
Q 2244 2841 1947 2841 
Q 1628 2841 1473 2761 
Q 1319 2681 1319 2516 
Q 1319 2381 1436 2309 
Q 1553 2238 1856 2203 
L 2053 2175 
Q 2913 2066 3209 1816 
Q 3506 1566 3506 1031 
Q 3506 472 3093 190 
Q 2681 -91 1863 -91 
Q 1516 -91 1145 -36 
Q 775 19 384 128 
L 384 978 
Q 719 816 1070 734 
Q 1422 653 1784 653 
Q 2113 653 2278 743 
Q 2444 834 2444 1013 
Q 2444 1163 2330 1236 
Q 2216 1309 1875 1350 
L 1678 1375 
Q 931 1469 631 1722 
Q 331 1975 331 2491 
Q 331 3047 712 3315 
Q 1094 3584 1881 3584 
Q 2191 3584 2531 3537 
Q 2872 3491 3272 3391 
z
" transform="scale(0.015625)"/>
      <path id="DejaVuSans-Bold-75" d="M 500 1363 
L 500 3500 
L 1625 3500 
L 1625 3150 
Q 1625 2866 1622 2436 
Q 1619 2006 1619 1863 
Q 1619 1441 1641 1255 
Q 1663 1069 1716 984 
Q 1784 875 1895 815 
Q 2006 756 2150 756 
Q 2500 756 2700 1025 
Q 2900 1294 2900 1772 
L 2900 3500 
L 4019 3500 
L 4019 0 
L 2900 0 
L 2900 506 
Q 2647 200 2364 54 
Q 2081 -91 1741 -91 
Q 1134 -91 817 281 
Q 500 653 500 1363 
z
" transform="scale(0.015625)"/>
      <path id="DejaVuSans-Bold-70" d="M 1656 506 
L 1656 -1331 
L 538 -1331 
L 538 3500 
L 1656 3500 
L 1656 2988 
Q 1888 3294 2169 3439 
Q 2450 3584 2816 3584 
Q 3463 3584 3878 3070 
Q 4294 2556 4294 1747 
Q 4294 938 3878 423 
Q 3463 -91 2816 -91 
Q 2450 -91 2169 54 
Q 1888 200 1656 506 
z
M 2400 2772 
Q 2041 2772 1848 2508 
Q 1656 2244 1656 1747 
Q 1656 1250 1848 986 
Q 2041 722 2400 722 
Q 2759 722 2948 984 
Q 3138 1247 3138 1747 
Q 3138 2247 2948 2509 
Q 2759 2772 2400 2772 
z
" transform="scale(0.015625)"/>
      <path id="DejaVuSans-Bold-6c" d="M 538 4863 
L 1656 4863 
L 1656 0 
L 538 0 
L 538 4863 
z
" transform="scale(0.015625)"/>
      <path id="DejaVuSans-Bold-65" d="M 4031 1759 
L 4031 1441 
L 1416 1441 
Q 1456 1047 1700 850 
Q 1944 653 2381 653 
Q 2734 653 3104 758 
Q 3475 863 3866 1075 
L 3866 213 
Q 3469 63 3072 -14 
Q 2675 -91 2278 -91 
Q 1328 -91 801 392 
Q 275 875 275 1747 
Q 275 2603 792 3093 
Q 1309 3584 2216 3584 
Q 3041 3584 3536 3087 
Q 4031 2591 4031 1759 
z
M 2881 2131 
Q 2881 2450 2695 2645 
Q 2509 2841 2209 2841 
Q 1884 2841 1681 2658 
Q 1478 2475 1428 2131 
L 2881 2131 
z
" transform="scale(0.015625)"/>
      <path id="DejaVuSans-Bold-6d" d="M 3781 2919 
Q 3994 3244 4286 3414 
Q 4578 3584 4928 3584 
Q 5531 3584 5847 3212 
Q 6163 2841 6163 2131 
L 6163 0 
L 5038 0 
L 5038 1825 
Q 5041 1866 5042 1909 
Q 5044 1953 5044 2034 
Q 5044 2406 4934 2573 
Q 4825 2741 4581 2741 
Q 4263 2741 4089 2478 
Q 3916 2216 3909 1719 
L 3909 0 
L 2784 0 
L 2784 1825 
Q 2784 2406 2684 2573 
Q 2584 2741 2328 2741 
Q 2006 2741 1831 2477 
Q 1656 2213 1656 1722 
L 1656 0 
L 531 0 
L 531 3500 
L 1656 3500 
L 1656 2988 
Q 1863 3284 2130 3434 
Q 2397 3584 2719 3584 
Q 3081 3584 3359 3409 
Q 3638 3234 3781 2919 
z
" transform="scale(0.015625)"/>
      <path id="DejaVuSans-Bold-6e" d="M 4056 2131 
L 4056 0 
L 2931 0 
L 2931 347 
L 2931 1631 
Q 2931 2084 2911 2256 
Q 2891 2428 2841 2509 
Q 2775 2619 2662 2680 
Q 2550 2741 2406 2741 
Q 2056 2741 1856 2470 
Q 1656 2200 1656 1722 
L 1656 0 
L 538 0 
L 538 3500 
L 1656 3500 
L 1656 2988 
Q 1909 3294 2193 3439 
Q 2478 3584 2822 3584 
Q 3428 3584 3742 3212 
Q 4056 2841 4056 2131 
z
" transform="scale(0.015625)"/>
      <path id="DejaVuSans-Bold-74" d="M 1759 4494 
L 1759 3500 
L 2913 3500 
L 2913 2700 
L 1759 2700 
L 1759 1216 
Q 1759 972 1856 886 
Q 1953 800 2241 800 
L 2816 800 
L 2816 0 
L 1856 0 
Q 1194 0 917 276 
Q 641 553 641 1216 
L 641 2700 
L 84 2700 
L 84 3500 
L 641 3500 
L 641 4494 
L 1759 4494 
z
" transform="scale(0.015625)"/>
      <path id="DejaVuSans-Bold-64" d="M 2919 2988 
L 2919 4863 
L 4044 4863 
L 4044 0 
L 2919 0 
L 2919 506 
Q 2688 197 2409 53 
Q 2131 -91 1766 -91 
Q 1119 -91 703 423 
Q 288 938 288 1747 
Q 288 2556 703 3070 
Q 1119 3584 1766 3584 
Q 2128 3584 2408 3439 
Q 2688 3294 2919 2988 
z
M 2181 722 
Q 2541 722 2730 984 
Q 2919 1247 2919 1747 
Q 2919 2247 2730 2509 
Q 2541 2772 2181 2772 
Q 1825 2772 1636 2509 
Q 1447 2247 1447 1747 
Q 1447 1247 1636 984 
Q 1825 722 2181 722 
z
" transform="scale(0.015625)"/>
     </defs>
     <use xlink:href="#DejaVuSans-Bold-73"/>
     <use xlink:href="#DejaVuSans-Bold-75" transform="translate(59.521484 0)"/>
     <use xlink:href="#DejaVuSans-Bold-70" transform="translate(130.712891 0)"/>
     <use xlink:href="#DejaVuSans-Bold-70" transform="translate(202.294922 0)"/>
     <use xlink:href="#DejaVuSans-Bold-6c" transform="translate(273.876953 0)"/>
     <use xlink:href="#DejaVuSans-Bold-65" transform="translate(308.154297 0)"/>
     <use xlink:href="#DejaVuSans-Bold-6d" transform="translate(375.976562 0)"/>
     <use xlink:href="#DejaVuSans-Bold-65" transform="translate(480.175781 0)"/>
     <use xlink:href="#DejaVuSans-Bold-6e" transform="translate(547.998047 0)"/>
     <use xlink:href="#DejaVuSans-Bold-74" transform="translate(619.189453 0)"/>
     <use xlink:href="#DejaVuSans-Bold-65" transform="translate(666.992188 0)"/>
     <use xlink:href="#DejaVuSans-Bold-64" transform="translate(734.814453 0)"/>
    </g>
    <!-- atmospheric 511 keV line -->
    <g style="fill: #1f6f8b" transform="translate(149.184373 58.317288) scale(0.085 -0.085)">
     <defs>
      <path id="DejaVuSans-Bold-61" d="M 2106 1575 
Q 1756 1575 1579 1456 
Q 1403 1338 1403 1106 
Q 1403 894 1545 773 
Q 1688 653 1941 653 
Q 2256 653 2472 879 
Q 2688 1106 2688 1447 
L 2688 1575 
L 2106 1575 
z
M 3816 1997 
L 3816 0 
L 2688 0 
L 2688 519 
Q 2463 200 2181 54 
Q 1900 -91 1497 -91 
Q 953 -91 614 226 
Q 275 544 275 1050 
Q 275 1666 698 1953 
Q 1122 2241 2028 2241 
L 2688 2241 
L 2688 2328 
Q 2688 2594 2478 2717 
Q 2269 2841 1825 2841 
Q 1466 2841 1156 2769 
Q 847 2697 581 2553 
L 581 3406 
Q 941 3494 1303 3539 
Q 1666 3584 2028 3584 
Q 2975 3584 3395 3211 
Q 3816 2838 3816 1997 
z
" transform="scale(0.015625)"/>
      <path id="DejaVuSans-Bold-6f" d="M 2203 2784 
Q 1831 2784 1636 2517 
Q 1441 2250 1441 1747 
Q 1441 1244 1636 976 
Q 1831 709 2203 709 
Q 2569 709 2762 976 
Q 2956 1244 2956 1747 
Q 2956 2250 2762 2517 
Q 2569 2784 2203 2784 
z
M 2203 3584 
Q 3106 3584 3614 3096 
Q 4122 2609 4122 1747 
Q 4122 884 3614 396 
Q 3106 -91 2203 -91 
Q 1297 -91 786 396 
Q 275 884 275 1747 
Q 275 2609 786 3096 
Q 1297 3584 2203 3584 
z
" transform="scale(0.015625)"/>
      <path id="DejaVuSans-Bold-68" d="M 4056 2131 
L 4056 0 
L 2931 0 
L 2931 347 
L 2931 1625 
Q 2931 2084 2911 2256 
Q 2891 2428 2841 2509 
Q 2775 2619 2662 2680 
Q 2550 2741 2406 2741 
Q 2056 2741 1856 2470 
Q 1656 2200 1656 1722 
L 1656 0 
L 538 0 
L 538 4863 
L 1656 4863 
L 1656 2988 
Q 1909 3294 2193 3439 
Q 2478 3584 2822 3584 
Q 3428 3584 3742 3212 
Q 4056 2841 4056 2131 
z
" transform="scale(0.015625)"/>
      <path id="DejaVuSans-Bold-72" d="M 3138 2547 
Q 2991 2616 2845 2648 
Q 2700 2681 2553 2681 
Q 2122 2681 1889 2404 
Q 1656 2128 1656 1613 
L 1656 0 
L 538 0 
L 538 3500 
L 1656 3500 
L 1656 2925 
Q 1872 3269 2151 3426 
Q 2431 3584 2822 3584 
Q 2878 3584 2943 3579 
Q 3009 3575 3134 3559 
L 3138 2547 
z
" transform="scale(0.015625)"/>
      <path id="DejaVuSans-Bold-69" d="M 538 3500 
L 1656 3500 
L 1656 0 
L 538 0 
L 538 3500 
z
M 538 4863 
L 1656 4863 
L 1656 3950 
L 538 3950 
L 538 4863 
z
" transform="scale(0.015625)"/>
      <path id="DejaVuSans-Bold-63" d="M 3366 3391 
L 3366 2478 
Q 3138 2634 2908 2709 
Q 2678 2784 2431 2784 
Q 1963 2784 1702 2511 
Q 1441 2238 1441 1747 
Q 1441 1256 1702 982 
Q 1963 709 2431 709 
Q 2694 709 2930 787 
Q 3166 866 3366 1019 
L 3366 103 
Q 3103 6 2833 -42 
Q 2563 -91 2291 -91 
Q 1344 -91 809 395 
Q 275 881 275 1747 
Q 275 2613 809 3098 
Q 1344 3584 2291 3584 
Q 2566 3584 2833 3536 
Q 3100 3488 3366 3391 
z
" transform="scale(0.015625)"/>
      <path id="DejaVuSans-Bold-20" transform="scale(0.015625)"/>
      <path id="DejaVuSans-Bold-35" d="M 678 4666 
L 3669 4666 
L 3669 3781 
L 1638 3781 
L 1638 3059 
Q 1775 3097 1914 3117 
Q 2053 3138 2203 3138 
Q 3056 3138 3531 2711 
Q 4006 2284 4006 1522 
Q 4006 766 3489 337 
Q 2972 -91 2053 -91 
Q 1656 -91 1267 -14 
Q 878 63 494 219 
L 494 1166 
Q 875 947 1217 837 
Q 1559 728 1863 728 
Q 2300 728 2551 942 
Q 2803 1156 2803 1522 
Q 2803 1891 2551 2103 
Q 2300 2316 1863 2316 
Q 1603 2316 1309 2248 
Q 1016 2181 678 2041 
L 678 4666 
z
" transform="scale(0.015625)"/>
      <path id="DejaVuSans-Bold-31" d="M 750 831 
L 1813 831 
L 1813 3847 
L 722 3622 
L 722 4441 
L 1806 4666 
L 2950 4666 
L 2950 831 
L 4013 831 
L 4013 0 
L 750 0 
L 750 831 
z
" transform="scale(0.015625)"/>
      <path id="DejaVuSans-Bold-6b" d="M 538 4863 
L 1656 4863 
L 1656 2216 
L 2944 3500 
L 4244 3500 
L 2534 1894 
L 4378 0 
L 3022 0 
L 1656 1459 
L 1656 0 
L 538 0 
L 538 4863 
z
" transform="scale(0.015625)"/>
      <path id="DejaVuSans-Bold-56" d="M 31 4666 
L 1241 4666 
L 2478 1222 
L 3713 4666 
L 4922 4666 
L 3194 0 
L 1759 0 
L 31 4666 
z
" transform="scale(0.015625)"/>
     </defs>
     <use xlink:href="#DejaVuSans-Bold-61"/>
     <use xlink:href="#DejaVuSans-Bold-74" transform="translate(67.480469 0)"/>
     <use xlink:href="#DejaVuSans-Bold-6d" transform="translate(115.283203 0)"/>
     <use xlink:href="#DejaVuSans-Bold-6f" transform="translate(219.482422 0)"/>
     <use xlink:href="#DejaVuSans-Bold-73" transform="translate(288.183594 0)"/>
     <use xlink:href="#DejaVuSans-Bold-70" transform="translate(347.705078 0)"/>
     <use xlink:href="#DejaVuSans-Bold-68" transform="translate(419.287109 0)"/>
     <use xlink:href="#DejaVuSans-Bold-65" transform="translate(490.478516 0)"/>
     <use xlink:href="#DejaVuSans-Bold-72" transform="translate(558.300781 0)"/>
     <use xlink:href="#DejaVuSans-Bold-69" transform="translate(607.617188 0)"/>
     <use xlink:href="#DejaVuSans-Bold-63" transform="translate(641.894531 0)"/>
     <use xlink:href="#DejaVuSans-Bold-20" transform="translate(701.171875 0)"/>
     <use xlink:href="#DejaVuSans-Bold-35" transform="translate(735.986328 0)"/>
     <use xlink:href="#DejaVuSans-Bold-31" transform="translate(805.566406 0)"/>
     <use xlink:href="#DejaVuSans-Bold-31" transform="translate(875.146484 0)"/>
     <use xlink:href="#DejaVuSans-Bold-20" transform="translate(944.726562 0)"/>
     <use xlink:href="#DejaVuSans-Bold-6b" transform="translate(979.541016 0)"/>
     <use xlink:href="#DejaVuSans-Bold-65" transform="translate(1043.419922 0)"/>
     <use xlink:href="#DejaVuSans-Bold-56" transform="translate(1111.242188 0)"/>
     <use xlink:href="#DejaVuSans-Bold-20" transform="translate(1188.634766 0)"/>
     <use xlink:href="#DejaVuSans-Bold-6c" transform="translate(1223.449219 0)"/>
     <use xlink:href="#DejaVuSans-Bold-69" transform="translate(1257.726562 0)"/>
     <use xlink:href="#DejaVuSans-Bold-6e" transform="translate(1292.003906 0)"/>
     <use xlink:href="#DejaVuSans-Bold-65" transform="translate(1363.195312 0)"/>
    </g>
   </g>
   <g id="text_14">
    <!-- (a) spectral insertion at 511 keV -->
    <g transform="translate(127.533634 20.16) scale(0.1 -0.1)">
     <defs>
      <path id="DejaVuSans-28" d="M 1984 4856 
Q 1566 4138 1362 3434 
Q 1159 2731 1159 2009 
Q 1159 1288 1364 580 
Q 1569 -128 1984 -844 
L 1484 -844 
Q 1016 -109 783 600 
Q 550 1309 550 2009 
Q 550 2706 781 3412 
Q 1013 4119 1484 4856 
L 1984 4856 
z
" transform="scale(0.015625)"/>
      <path id="DejaVuSans-29" d="M 513 4856 
L 1013 4856 
Q 1481 4119 1714 3412 
Q 1947 2706 1947 2009 
Q 1947 1309 1714 600 
Q 1481 -109 1013 -844 
L 513 -844 
Q 928 -128 1133 580 
Q 1338 1288 1338 2009 
Q 1338 2731 1133 3434 
Q 928 4138 513 4856 
z
" transform="scale(0.015625)"/>
      <path id="DejaVuSans-73" d="M 2834 3397 
L 2834 2853 
Q 2591 2978 2328 3040 
Q 2066 3103 1784 3103 
Q 1356 3103 1142 2972 
Q 928 2841 928 2578 
Q 928 2378 1081 2264 
Q 1234 2150 1697 2047 
L 1894 2003 
Q 2506 1872 2764 1633 
Q 3022 1394 3022 966 
Q 3022 478 2636 193 
Q 2250 -91 1575 -91 
Q 1294 -91 989 -36 
Q 684 19 347 128 
L 347 722 
Q 666 556 975 473 
Q 1284 391 1588 391 
Q 1994 391 2212 530 
Q 2431 669 2431 922 
Q 2431 1156 2273 1281 
Q 2116 1406 1581 1522 
L 1381 1569 
Q 847 1681 609 1914 
Q 372 2147 372 2553 
Q 372 3047 722 3315 
Q 1072 3584 1716 3584 
Q 2034 3584 2315 3537 
Q 2597 3491 2834 3397 
z
" transform="scale(0.015625)"/>
      <path id="DejaVuSans-63" d="M 3122 3366 
L 3122 2828 
Q 2878 2963 2633 3030 
Q 2388 3097 2138 3097 
Q 1578 3097 1268 2742 
Q 959 2388 959 1747 
Q 959 1106 1268 751 
Q 1578 397 2138 397 
Q 2388 397 2633 464 
Q 2878 531 3122 666 
L 3122 134 
Q 2881 22 2623 -34 
Q 2366 -91 2075 -91 
Q 1284 -91 818 406 
Q 353 903 353 1747 
Q 353 2603 823 3093 
Q 1294 3584 2113 3584 
Q 2378 3584 2631 3529 
Q 2884 3475 3122 3366 
z
" transform="scale(0.015625)"/>
      <path id="DejaVuSans-6c" d="M 603 4863 
L 1178 4863 
L 1178 0 
L 603 0 
L 603 4863 
z
" transform="scale(0.015625)"/>
      <path id="DejaVuSans-69" d="M 603 3500 
L 1178 3500 
L 1178 0 
L 603 0 
L 603 3500 
z
M 603 4863 
L 1178 4863 
L 1178 4134 
L 603 4134 
L 603 4863 
z
" transform="scale(0.015625)"/>
     </defs>
     <use xlink:href="#DejaVuSans-28"/>
     <use xlink:href="#DejaVuSans-61" transform="translate(39.013672 0)"/>
     <use xlink:href="#DejaVuSans-29" transform="translate(100.292969 0)"/>
     <use xlink:href="#DejaVuSans-20" transform="translate(139.306641 0)"/>
     <use xlink:href="#DejaVuSans-73" transform="translate(171.09375 0)"/>
     <use xlink:href="#DejaVuSans-70" transform="translate(223.193359 0)"/>
     <use xlink:href="#DejaVuSans-65" transform="translate(286.669922 0)"/>
     <use xlink:href="#DejaVuSans-63" transform="translate(348.193359 0)"/>
     <use xlink:href="#DejaVuSans-74" transform="translate(403.173828 0)"/>
     <use xlink:href="#DejaVuSans-72" transform="translate(442.382812 0)"/>
     <use xlink:href="#DejaVuSans-61" transform="translate(483.496094 0)"/>
     <use xlink:href="#DejaVuSans-6c" transform="translate(544.775391 0)"/>
     <use xlink:href="#DejaVuSans-20" transform="translate(572.558594 0)"/>
     <use xlink:href="#DejaVuSans-69" transform="translate(604.345703 0)"/>
     <use xlink:href="#DejaVuSans-6e" transform="translate(632.128906 0)"/>
     <use xlink:href="#DejaVuSans-73" transform="translate(695.507812 0)"/>
     <use xlink:href="#DejaVuSans-65" transform="translate(747.607422 0)"/>
     <use xlink:href="#DejaVuSans-72" transform="translate(809.130859 0)"/>
     <use xlink:href="#DejaVuSans-74" transform="translate(850.244141 0)"/>
     <use xlink:href="#DejaVuSans-69" transform="translate(889.453125 0)"/>
     <use xlink:href="#DejaVuSans-6f" transform="translate(917.236328 0)"/>
     <use xlink:href="#DejaVuSans-6e" transform="translate(978.417969 0)"/>
     <use xlink:href="#DejaVuSans-20" transform="translate(1041.796875 0)"/>
     <use xlink:href="#DejaVuSans-61" transform="translate(1073.583984 0)"/>
     <use xlink:href="#DejaVuSans-74" transform="translate(1134.863281 0)"/>
     <use xlink:href="#DejaVuSans-20" transform="translate(1174.072266 0)"/>
     <use xlink:href="#DejaVuSans-35" transform="translate(1205.859375 0)"/>
     <use xlink:href="#DejaVuSans-31" transform="translate(1269.482422 0)"/>
     <use xlink:href="#DejaVuSans-31" transform="translate(1333.105469 0)"/>
     <use xlink:href="#DejaVuSans-20" transform="translate(1396.728516 0)"/>
     <use xlink:href="#DejaVuSans-6b" transform="translate(1428.515625 0)"/>
     <use xlink:href="#DejaVuSans-65" transform="translate(1482.800781 0)"/>
     <use xlink:href="#DejaVuSans-56" transform="translate(1544.324219 0)"/>
    </g>
   </g>
   <g id="line2d_30">
    <defs>
     <path id="madf1df708a" d="M 0 4 
C 1.060812 4 2.078319 3.578535 2.828427 2.828427 
C 3.578535 2.078319 4 1.060812 4 0 
C 4 -1.060812 3.578535 -2.078319 2.828427 -2.828427 
C 2.078319 -3.578535 1.060812 -4 0 -4 
C -1.060812 -4 -2.078319 -3.578535 -2.828427 -2.828427 
C -3.578535 -2.078319 -4 -1.060812 -4 0 
C -4 1.060812 -3.578535 2.078319 -2.828427 2.828427 
C -2.078319 3.578535 -1.060812 4 0 4 
z
" style="stroke: #c0392b; stroke-width: 1.8"/>
    </defs>
    <g clip-path="url(#p9b52c332e7)">
     <use xlink:href="#madf1df708a" x="210.002537" y="155.446939" style="fill: #ffffff; stroke: #c0392b; stroke-width: 1.8"/>
    </g>
   </g>
   <g id="patch_8">
    <path d="M 210.002537 153.447827 
Q 210.002537 109.120152 210.002537 67.475759 
" style="fill: none; stroke: #1f6f8b; stroke-width: 2.4; stroke-linecap: round"/>
    <path d="M 208.002537 71.475759 
L 210.002537 67.475759 
L 212.002537 71.475759 
z
" style="fill: #1f6f8b; stroke: #1f6f8b; stroke-width: 2.4; stroke-linecap: round"/>
   </g>
   <g id="legend_1">
    <g id="patch_9">
     <path d="M 66.579054 253.91 
L 189.515616 253.91 
Q 190.975616 253.91 190.975616 252.45 
L 190.975616 210.319875 
Q 190.975616 208.859875 189.515616 208.859875 
L 66.579054 208.859875 
Q 65.119054 208.859875 65.119054 210.319875 
L 65.119054 252.45 
Q 65.119054 253.91 66.579054 253.91 
z
" style="fill: #ffffff; opacity: 0.9; stroke: #cccccc; stroke-linejoin: miter"/>
    </g>
    <g id="line2d_31">
     <path d="M 68.039054 214.771734 
L 75.339054 214.771734 
L 82.639054 214.771734 
" style="fill: none; stroke: #737373; stroke-width: 1.6; stroke-linecap: square"/>
    </g>
    <g id="text_15">
     <!-- EXPACS gamma continuum -->
     <g transform="translate(88.479054 217.326734) scale(0.073 -0.073)">
      <defs>
       <path id="DejaVuSans-45" d="M 628 4666 
L 3578 4666 
L 3578 4134 
L 1259 4134 
L 1259 2753 
L 3481 2753 
L 3481 2222 
L 1259 2222 
L 1259 531 
L 3634 531 
L 3634 0 
L 628 0 
L 628 4666 
z
" transform="scale(0.015625)"/>
       <path id="DejaVuSans-58" d="M 403 4666 
L 1081 4666 
L 2241 2931 
L 3406 4666 
L 4084 4666 
L 2584 2425 
L 4184 0 
L 3506 0 
L 2194 1984 
L 872 0 
L 191 0 
L 1856 2491 
L 403 4666 
z
" transform="scale(0.015625)"/>
       <path id="DejaVuSans-41" d="M 2188 4044 
L 1331 1722 
L 3047 1722 
L 2188 4044 
z
M 1831 4666 
L 2547 4666 
L 4325 0 
L 3669 0 
L 3244 1197 
L 1141 1197 
L 716 0 
L 50 0 
L 1831 4666 
z
" transform="scale(0.015625)"/>
       <path id="DejaVuSans-43" d="M 4122 4306 
L 4122 3641 
Q 3803 3938 3442 4084 
Q 3081 4231 2675 4231 
Q 1875 4231 1450 3742 
Q 1025 3253 1025 2328 
Q 1025 1406 1450 917 
Q 1875 428 2675 428 
Q 3081 428 3442 575 
Q 3803 722 4122 1019 
L 4122 359 
Q 3791 134 3420 21 
Q 3050 -91 2638 -91 
Q 1578 -91 968 557 
Q 359 1206 359 2328 
Q 359 3453 968 4101 
Q 1578 4750 2638 4750 
Q 3056 4750 3426 4639 
Q 3797 4528 4122 4306 
z
" transform="scale(0.015625)"/>
       <path id="DejaVuSans-53" d="M 3425 4513 
L 3425 3897 
Q 3066 4069 2747 4153 
Q 2428 4238 2131 4238 
Q 1616 4238 1336 4038 
Q 1056 3838 1056 3469 
Q 1056 3159 1242 3001 
Q 1428 2844 1947 2747 
L 2328 2669 
Q 3034 2534 3370 2195 
Q 3706 1856 3706 1288 
Q 3706 609 3251 259 
Q 2797 -91 1919 -91 
Q 1588 -91 1214 -16 
Q 841 59 441 206 
L 441 856 
Q 825 641 1194 531 
Q 1563 422 1919 422 
Q 2459 422 2753 634 
Q 3047 847 3047 1241 
Q 3047 1584 2836 1778 
Q 2625 1972 2144 2069 
L 1759 2144 
Q 1053 2284 737 2584 
Q 422 2884 422 3419 
Q 422 4038 858 4394 
Q 1294 4750 2059 4750 
Q 2388 4750 2728 4690 
Q 3069 4631 3425 4513 
z
" transform="scale(0.015625)"/>
       <path id="DejaVuSans-75" d="M 544 1381 
L 544 3500 
L 1119 3500 
L 1119 1403 
Q 1119 906 1312 657 
Q 1506 409 1894 409 
Q 2359 409 2629 706 
Q 2900 1003 2900 1516 
L 2900 3500 
L 3475 3500 
L 3475 0 
L 2900 0 
L 2900 538 
Q 2691 219 2414 64 
Q 2138 -91 1772 -91 
Q 1169 -91 856 284 
Q 544 659 544 1381 
z
M 1991 3584 
L 1991 3584 
z
" transform="scale(0.015625)"/>
      </defs>
      <use xlink:href="#DejaVuSans-45"/>
      <use xlink:href="#DejaVuSans-58" transform="translate(63.183594 0)"/>
      <use xlink:href="#DejaVuSans-50" transform="translate(131.689453 0)"/>
      <use xlink:href="#DejaVuSans-41" transform="translate(185.617188 0)"/>
      <use xlink:href="#DejaVuSans-43" transform="translate(252.275391 0)"/>
      <use xlink:href="#DejaVuSans-53" transform="translate(322.099609 0)"/>
      <use xlink:href="#DejaVuSans-20" transform="translate(385.576172 0)"/>
      <use xlink:href="#DejaVuSans-67" transform="translate(417.363281 0)"/>
      <use xlink:href="#DejaVuSans-61" transform="translate(480.839844 0)"/>
      <use xlink:href="#DejaVuSans-6d" transform="translate(542.119141 0)"/>
      <use xlink:href="#DejaVuSans-6d" transform="translate(639.53125 0)"/>
      <use xlink:href="#DejaVuSans-61" transform="translate(736.943359 0)"/>
      <use xlink:href="#DejaVuSans-20" transform="translate(798.222656 0)"/>
      <use xlink:href="#DejaVuSans-63" transform="translate(830.009766 0)"/>
      <use xlink:href="#DejaVuSans-6f" transform="translate(884.990234 0)"/>
      <use xlink:href="#DejaVuSans-6e" transform="translate(946.171875 0)"/>
      <use xlink:href="#DejaVuSans-74" transform="translate(1009.550781 0)"/>
      <use xlink:href="#DejaVuSans-69" transform="translate(1048.759766 0)"/>
      <use xlink:href="#DejaVuSans-6e" transform="translate(1076.542969 0)"/>
      <use xlink:href="#DejaVuSans-75" transform="translate(1139.921875 0)"/>
      <use xlink:href="#DejaVuSans-75" transform="translate(1203.300781 0)"/>
      <use xlink:href="#DejaVuSans-6d" transform="translate(1266.679688 0)"/>
     </g>
    </g>
    <g id="line2d_32">
     <g>
      <use xlink:href="#m660adedd37" x="75.339054" y="225.486766" style="fill: #262626; stroke: #262626"/>
     </g>
    </g>
    <g id="text_16">
     <!-- EXPACS table points -->
     <g transform="translate(88.479054 228.041766) scale(0.073 -0.073)">
      <defs>
       <path id="DejaVuSans-62" d="M 3116 1747 
Q 3116 2381 2855 2742 
Q 2594 3103 2138 3103 
Q 1681 3103 1420 2742 
Q 1159 2381 1159 1747 
Q 1159 1113 1420 752 
Q 1681 391 2138 391 
Q 2594 391 2855 752 
Q 3116 1113 3116 1747 
z
M 1159 2969 
Q 1341 3281 1617 3432 
Q 1894 3584 2278 3584 
Q 2916 3584 3314 3078 
Q 3713 2572 3713 1747 
Q 3713 922 3314 415 
Q 2916 -91 2278 -91 
Q 1894 -91 1617 61 
Q 1341 213 1159 525 
L 1159 0 
L 581 0 
L 581 4863 
L 1159 4863 
L 1159 2969 
z
" transform="scale(0.015625)"/>
      </defs>
      <use xlink:href="#DejaVuSans-45"/>
      <use xlink:href="#DejaVuSans-58" transform="translate(63.183594 0)"/>
      <use xlink:href="#DejaVuSans-50" transform="translate(131.689453 0)"/>
      <use xlink:href="#DejaVuSans-41" transform="translate(185.617188 0)"/>
      <use xlink:href="#DejaVuSans-43" transform="translate(252.275391 0)"/>
      <use xlink:href="#DejaVuSans-53" transform="translate(322.099609 0)"/>
      <use xlink:href="#DejaVuSans-20" transform="translate(385.576172 0)"/>
      <use xlink:href="#DejaVuSans-74" transform="translate(417.363281 0)"/>
      <use xlink:href="#DejaVuSans-61" transform="translate(456.572266 0)"/>
      <use xlink:href="#DejaVuSans-62" transform="translate(517.851562 0)"/>
      <use xlink:href="#DejaVuSans-6c" transform="translate(581.328125 0)"/>
      <use xlink:href="#DejaVuSans-65" transform="translate(609.111328 0)"/>
      <use xlink:href="#DejaVuSans-20" transform="translate(670.634766 0)"/>
      <use xlink:href="#DejaVuSans-70" transform="translate(702.421875 0)"/>
      <use xlink:href="#DejaVuSans-6f" transform="translate(765.898438 0)"/>
      <use xlink:href="#DejaVuSans-69" transform="translate(827.080078 0)"/>
      <use xlink:href="#DejaVuSans-6e" transform="translate(854.863281 0)"/>
      <use xlink:href="#DejaVuSans-74" transform="translate(918.242188 0)"/>
      <use xlink:href="#DejaVuSans-73" transform="translate(957.451172 0)"/>
     </g>
    </g>
    <g id="line2d_33">
     <g>
      <use xlink:href="#madf1df708a" x="75.339054" y="236.201797" style="fill: #ffffff; stroke: #c0392b; stroke-width: 1.8"/>
     </g>
    </g>
    <g id="text_17">
     <!-- 511 keV: interpolation only -->
     <g transform="translate(88.479054 238.756797) scale(0.073 -0.073)">
      <defs>
       <path id="DejaVuSans-3a" d="M 750 794 
L 1409 794 
L 1409 0 
L 750 0 
L 750 794 
z
M 750 3309 
L 1409 3309 
L 1409 2516 
L 750 2516 
L 750 3309 
z
" transform="scale(0.015625)"/>
      </defs>
      <use xlink:href="#DejaVuSans-35"/>
      <use xlink:href="#DejaVuSans-31" transform="translate(63.623047 0)"/>
      <use xlink:href="#DejaVuSans-31" transform="translate(127.246094 0)"/>
      <use xlink:href="#DejaVuSans-20" transform="translate(190.869141 0)"/>
      <use xlink:href="#DejaVuSans-6b" transform="translate(222.65625 0)"/>
      <use xlink:href="#DejaVuSans-65" transform="translate(276.941406 0)"/>
      <use xlink:href="#DejaVuSans-56" transform="translate(338.464844 0)"/>
      <use xlink:href="#DejaVuSans-3a" transform="translate(398.748047 0)"/>
      <use xlink:href="#DejaVuSans-20" transform="translate(432.439453 0)"/>
      <use xlink:href="#DejaVuSans-69" transform="translate(464.226562 0)"/>
      <use xlink:href="#DejaVuSans-6e" transform="translate(492.009766 0)"/>
      <use xlink:href="#DejaVuSans-74" transform="translate(555.388672 0)"/>
      <use xlink:href="#DejaVuSans-65" transform="translate(594.597656 0)"/>
      <use xlink:href="#DejaVuSans-72" transform="translate(656.121094 0)"/>
      <use xlink:href="#DejaVuSans-70" transform="translate(697.234375 0)"/>
      <use xlink:href="#DejaVuSans-6f" transform="translate(760.710938 0)"/>
      <use xlink:href="#DejaVuSans-6c" transform="translate(821.892578 0)"/>
      <use xlink:href="#DejaVuSans-61" transform="translate(849.675781 0)"/>
      <use xlink:href="#DejaVuSans-74" transform="translate(910.955078 0)"/>
      <use xlink:href="#DejaVuSans-69" transform="translate(950.164062 0)"/>
      <use xlink:href="#DejaVuSans-6f" transform="translate(977.947266 0)"/>
      <use xlink:href="#DejaVuSans-6e" transform="translate(1039.128906 0)"/>
      <use xlink:href="#DejaVuSans-20" transform="translate(1102.507812 0)"/>
      <use xlink:href="#DejaVuSans-6f" transform="translate(1134.294922 0)"/>
      <use xlink:href="#DejaVuSans-6e" transform="translate(1195.476562 0)"/>
      <use xlink:href="#DejaVuSans-6c" transform="translate(1258.855469 0)"/>
      <use xlink:href="#DejaVuSans-79" transform="translate(1286.638672 0)"/>
     </g>
    </g>
    <g id="patch_10">
     <path d="M 68.039054 249.471828 
L 82.639054 249.471828 
L 82.639054 244.361828 
L 68.039054 244.361828 
z
" style="fill: #f4d03f; opacity: 0.35; stroke: #f4d03f; stroke-linejoin: miter"/>
    </g>
    <g id="text_18">
     <!-- signal window -->
     <g transform="translate(88.479054 249.471828) scale(0.073 -0.073)">
      <defs>
       <path id="DejaVuSans-77" d="M 269 3500 
L 844 3500 
L 1563 769 
L 2278 3500 
L 2956 3500 
L 3675 769 
L 4391 3500 
L 4966 3500 
L 4050 0 
L 3372 0 
L 2619 2869 
L 1863 0 
L 1184 0 
L 269 3500 
z
" transform="scale(0.015625)"/>
       <path id="DejaVuSans-64" d="M 2906 2969 
L 2906 4863 
L 3481 4863 
L 3481 0 
L 2906 0 
L 2906 525 
Q 2725 213 2448 61 
Q 2172 -91 1784 -91 
Q 1150 -91 751 415 
Q 353 922 353 1747 
Q 353 2572 751 3078 
Q 1150 3584 1784 3584 
Q 2172 3584 2448 3432 
Q 2725 3281 2906 2969 
z
M 947 1747 
Q 947 1113 1208 752 
Q 1469 391 1925 391 
Q 2381 391 2643 752 
Q 2906 1113 2906 1747 
Q 2906 2381 2643 2742 
Q 2381 3103 1925 3103 
Q 1469 3103 1208 2742 
Q 947 2381 947 1747 
z
" transform="scale(0.015625)"/>
      </defs>
      <use xlink:href="#DejaVuSans-73"/>
      <use xlink:href="#DejaVuSans-69" transform="translate(52.099609 0)"/>
      <use xlink:href="#DejaVuSans-67" transform="translate(79.882812 0)"/>
      <use xlink:href="#DejaVuSans-6e" transform="translate(143.359375 0)"/>
      <use xlink:href="#DejaVuSans-61" transform="translate(206.738281 0)"/>
      <use xlink:href="#DejaVuSans-6c" transform="translate(268.017578 0)"/>
      <use xlink:href="#DejaVuSans-20" transform="translate(295.800781 0)"/>
      <use xlink:href="#DejaVuSans-77" transform="translate(327.587891 0)"/>
      <use xlink:href="#DejaVuSans-69" transform="translate(409.375 0)"/>
      <use xlink:href="#DejaVuSans-6e" transform="translate(437.158203 0)"/>
      <use xlink:href="#DejaVuSans-64" transform="translate(500.537109 0)"/>
      <use xlink:href="#DejaVuSans-6f" transform="translate(564.013672 0)"/>
      <use xlink:href="#DejaVuSans-77" transform="translate(625.195312 0)"/>
     </g>
    </g>
   </g>
  </g>
  <g id="axes_2">
   <g id="patch_11">
    <path d="M 420.660527 257.56 
L 714.06 257.56 
L 714.06 26.16 
L 420.660527 26.16 
z
" style="fill: #ffffff"/>
   </g>
   <g id="patch_12">
    <path d="M 420.660527 257.56 
L 567.360263 257.56 
L 567.360263 26.16 
L 420.660527 26.16 
z
" clip-path="url(#pce8259ed70)" style="fill: #aed6f1; opacity: 0.3; stroke: #aed6f1; stroke-linejoin: miter"/>
   </g>
   <g id="patch_13">
    <path d="M 567.360263 257.56 
L 714.06 257.56 
L 714.06 26.16 
L 567.360263 26.16 
z
" clip-path="url(#pce8259ed70)" style="fill: #f5b7b1; opacity: 0.3; stroke: #f5b7b1; stroke-linejoin: miter"/>
   </g>
   <g id="matplotlib.axis_3">
    <g id="xtick_9">
     <g id="line2d_34">
      <g>
       <use xlink:href="#md4f56deac1" x="420.660527" y="257.56" style="stroke: #000000; stroke-width: 0.8"/>
      </g>
     </g>
     <g id="text_19">
      <!-- 0 -->
      <g transform="translate(417.479277 272.158438) scale(0.1 -0.1)">
       <use xlink:href="#DejaVuSans-30"/>
      </g>
     </g>
    </g>
    <g id="xtick_10">
     <g id="line2d_35">
      <g>
       <use xlink:href="#md4f56deac1" x="494.010395" y="257.56" style="stroke: #000000; stroke-width: 0.8"/>
      </g>
     </g>
     <g id="text_20">
      <!-- 45 -->
      <g transform="translate(487.647895 272.158438) scale(0.1 -0.1)">
       <use xlink:href="#DejaVuSans-34"/>
       <use xlink:href="#DejaVuSans-35" transform="translate(63.623047 0)"/>
      </g>
     </g>
    </g>
    <g id="xtick_11">
     <g id="line2d_36">
      <g>
       <use xlink:href="#md4f56deac1" x="567.360263" y="257.56" style="stroke: #000000; stroke-width: 0.8"/>
      </g>
     </g>
     <g id="text_21">
      <!-- 90 -->
      <g transform="translate(560.997763 272.158438) scale(0.1 -0.1)">
       <defs>
        <path id="DejaVuSans-39" d="M 703 97 
L 703 672 
Q 941 559 1184 500 
Q 1428 441 1663 441 
Q 2288 441 2617 861 
Q 2947 1281 2994 2138 
Q 2813 1869 2534 1725 
Q 2256 1581 1919 1581 
Q 1219 1581 811 2004 
Q 403 2428 403 3163 
Q 403 3881 828 4315 
Q 1253 4750 1959 4750 
Q 2769 4750 3195 4129 
Q 3622 3509 3622 2328 
Q 3622 1225 3098 567 
Q 2575 -91 1691 -91 
Q 1453 -91 1209 -44 
Q 966 3 703 97 
z
M 1959 2075 
Q 2384 2075 2632 2365 
Q 2881 2656 2881 3163 
Q 2881 3666 2632 3958 
Q 2384 4250 1959 4250 
Q 1534 4250 1286 3958 
Q 1038 3666 1038 3163 
Q 1038 2656 1286 2365 
Q 1534 2075 1959 2075 
z
" transform="scale(0.015625)"/>
       </defs>
       <use xlink:href="#DejaVuSans-39"/>
       <use xlink:href="#DejaVuSans-30" transform="translate(63.623047 0)"/>
      </g>
     </g>
    </g>
    <g id="xtick_12">
     <g id="line2d_37">
      <g>
       <use xlink:href="#md4f56deac1" x="640.710132" y="257.56" style="stroke: #000000; stroke-width: 0.8"/>
      </g>
     </g>
     <g id="text_22">
      <!-- 135 -->
      <g transform="translate(631.166382 272.158438) scale(0.1 -0.1)">
       <use xlink:href="#DejaVuSans-31"/>
       <use xlink:href="#DejaVuSans-33" transform="translate(63.623047 0)"/>
       <use xlink:href="#DejaVuSans-35" transform="translate(127.246094 0)"/>
      </g>
     </g>
    </g>
    <g id="xtick_13">
     <g id="line2d_38">
      <g>
       <use xlink:href="#md4f56deac1" x="714.06" y="257.56" style="stroke: #000000; stroke-width: 0.8"/>
      </g>
     </g>
     <g id="text_23">
      <!-- 180 -->
      <g transform="translate(704.51625 272.158438) scale(0.1 -0.1)">
       <use xlink:href="#DejaVuSans-31"/>
       <use xlink:href="#DejaVuSans-38" transform="translate(63.623047 0)"/>
       <use xlink:href="#DejaVuSans-30" transform="translate(127.246094 0)"/>
      </g>
     </g>
    </g>
    <g id="text_24">
     <!-- zenith angle $\theta$ [deg] -->
     <g transform="translate(516.910263 285.938125) scale(0.1 -0.1)">
      <defs>
       <path id="DejaVuSans-7a" d="M 353 3500 
L 3084 3500 
L 3084 2975 
L 922 459 
L 3084 459 
L 3084 0 
L 275 0 
L 275 525 
L 2438 3041 
L 353 3041 
L 353 3500 
z
" transform="scale(0.015625)"/>
       <path id="DejaVuSans-Oblique-3b8" d="M 2913 2219 
L 925 2219 
Q 791 1284 928 888 
Q 1100 400 1566 400 
Q 2034 400 2391 891 
Q 2703 1322 2913 2219 
z
M 3009 2750 
Q 3094 3638 2984 3950 
Q 2813 4444 2353 4444 
Q 1875 4444 1525 3956 
Q 1250 3563 1034 2750 
L 3009 2750 
z
M 2444 4913 
Q 3194 4913 3494 4250 
Q 3794 3591 3566 2422 
Q 3341 1256 2781 594 
Q 2225 -72 1475 -72 
Q 722 -72 425 594 
Q 128 1256 353 2422 
Q 581 3591 1134 4250 
Q 1691 4913 2444 4913 
z
" transform="scale(0.015625)"/>
      </defs>
      <use xlink:href="#DejaVuSans-7a" transform="translate(0 0.234375)"/>
      <use xlink:href="#DejaVuSans-65" transform="translate(52.490234 0.234375)"/>
      <use xlink:href="#DejaVuSans-6e" transform="translate(114.013672 0.234375)"/>
      <use xlink:href="#DejaVuSans-69" transform="translate(177.392578 0.234375)"/>
      <use xlink:href="#DejaVuSans-74" transform="translate(205.175781 0.234375)"/>
      <use xlink:href="#DejaVuSans-68" transform="translate(244.384766 0.234375)"/>
      <use xlink:href="#DejaVuSans-20" transform="translate(307.763672 0.234375)"/>
      <use xlink:href="#DejaVuSans-61" transform="translate(339.550781 0.234375)"/>
      <use xlink:href="#DejaVuSans-6e" transform="translate(400.830078 0.234375)"/>
      <use xlink:href="#DejaVuSans-67" transform="translate(464.208984 0.234375)"/>
      <use xlink:href="#DejaVuSans-6c" transform="translate(527.685547 0.234375)"/>
      <use xlink:href="#DejaVuSans-65" transform="translate(555.46875 0.234375)"/>
      <use xlink:href="#DejaVuSans-20" transform="translate(616.992188 0.234375)"/>
      <use xlink:href="#DejaVuSans-Oblique-3b8" transform="translate(648.779297 0.234375)"/>
      <use xlink:href="#DejaVuSans-20" transform="translate(709.960938 0.234375)"/>
      <use xlink:href="#DejaVuSans-5b" transform="translate(741.748047 0.234375)"/>
      <use xlink:href="#DejaVuSans-64" transform="translate(780.761719 0.234375)"/>
      <use xlink:href="#DejaVuSans-65" transform="translate(844.238281 0.234375)"/>
      <use xlink:href="#DejaVuSans-67" transform="translate(905.761719 0.234375)"/>
      <use xlink:href="#DejaVuSans-5d" transform="translate(969.238281 0.234375)"/>
     </g>
    </g>
   </g>
   <g id="matplotlib.axis_4">
    <g id="ytick_20">
     <g id="line2d_39">
      <g>
       <use xlink:href="#maac3f94681" x="420.660527" y="257.56" style="stroke: #000000; stroke-width: 0.8"/>
      </g>
     </g>
     <g id="text_25">
      <!-- 0.000 -->
      <g transform="translate(385.032402 261.359219) scale(0.1 -0.1)">
       <defs>
        <path id="DejaVuSans-2e" d="M 684 794 
L 1344 794 
L 1344 0 
L 684 0 
L 684 794 
z
" transform="scale(0.015625)"/>
       </defs>
       <use xlink:href="#DejaVuSans-30"/>
       <use xlink:href="#DejaVuSans-2e" transform="translate(63.623047 0)"/>
       <use xlink:href="#DejaVuSans-30" transform="translate(95.410156 0)"/>
       <use xlink:href="#DejaVuSans-30" transform="translate(159.033203 0)"/>
       <use xlink:href="#DejaVuSans-30" transform="translate(222.65625 0)"/>
      </g>
     </g>
    </g>
    <g id="ytick_21">
     <g id="line2d_40">
      <g>
       <use xlink:href="#maac3f94681" x="420.660527" y="221.445943" style="stroke: #000000; stroke-width: 0.8"/>
      </g>
     </g>
     <g id="text_26">
      <!-- 0.002 -->
      <g transform="translate(385.032402 225.245162) scale(0.1 -0.1)">
       <use xlink:href="#DejaVuSans-30"/>
       <use xlink:href="#DejaVuSans-2e" transform="translate(63.623047 0)"/>
       <use xlink:href="#DejaVuSans-30" transform="translate(95.410156 0)"/>
       <use xlink:href="#DejaVuSans-30" transform="translate(159.033203 0)"/>
       <use xlink:href="#DejaVuSans-32" transform="translate(222.65625 0)"/>
      </g>
     </g>
    </g>
    <g id="ytick_22">
     <g id="line2d_41">
      <g>
       <use xlink:href="#maac3f94681" x="420.660527" y="185.331887" style="stroke: #000000; stroke-width: 0.8"/>
      </g>
     </g>
     <g id="text_27">
      <!-- 0.004 -->
      <g transform="translate(385.032402 189.131106) scale(0.1 -0.1)">
       <use xlink:href="#DejaVuSans-30"/>
       <use xlink:href="#DejaVuSans-2e" transform="translate(63.623047 0)"/>
       <use xlink:href="#DejaVuSans-30" transform="translate(95.410156 0)"/>
       <use xlink:href="#DejaVuSans-30" transform="translate(159.033203 0)"/>
       <use xlink:href="#DejaVuSans-34" transform="translate(222.65625 0)"/>
      </g>
     </g>
    </g>
    <g id="ytick_23">
     <g id="line2d_42">
      <g>
       <use xlink:href="#maac3f94681" x="420.660527" y="149.21783" style="stroke: #000000; stroke-width: 0.8"/>
      </g>
     </g>
     <g id="text_28">
      <!-- 0.006 -->
      <g transform="translate(385.032402 153.017049) scale(0.1 -0.1)">
       <use xlink:href="#DejaVuSans-30"/>
       <use xlink:href="#DejaVuSans-2e" transform="translate(63.623047 0)"/>
       <use xlink:href="#DejaVuSans-30" transform="translate(95.410156 0)"/>
       <use xlink:href="#DejaVuSans-30" transform="translate(159.033203 0)"/>
       <use xlink:href="#DejaVuSans-36" transform="translate(222.65625 0)"/>
      </g>
     </g>
    </g>
    <g id="ytick_24">
     <g id="line2d_43">
      <g>
       <use xlink:href="#maac3f94681" x="420.660527" y="113.103774" style="stroke: #000000; stroke-width: 0.8"/>
      </g>
     </g>
     <g id="text_29">
      <!-- 0.008 -->
      <g transform="translate(385.032402 116.902993) scale(0.1 -0.1)">
       <use xlink:href="#DejaVuSans-30"/>
       <use xlink:href="#DejaVuSans-2e" transform="translate(63.623047 0)"/>
       <use xlink:href="#DejaVuSans-30" transform="translate(95.410156 0)"/>
       <use xlink:href="#DejaVuSans-30" transform="translate(159.033203 0)"/>
       <use xlink:href="#DejaVuSans-38" transform="translate(222.65625 0)"/>
      </g>
     </g>
    </g>
    <g id="ytick_25">
     <g id="line2d_44">
      <g>
       <use xlink:href="#maac3f94681" x="420.660527" y="76.989717" style="stroke: #000000; stroke-width: 0.8"/>
      </g>
     </g>
     <g id="text_30">
      <!-- 0.010 -->
      <g transform="translate(385.032402 80.788936) scale(0.1 -0.1)">
       <use xlink:href="#DejaVuSans-30"/>
       <use xlink:href="#DejaVuSans-2e" transform="translate(63.623047 0)"/>
       <use xlink:href="#DejaVuSans-30" transform="translate(95.410156 0)"/>
       <use xlink:href="#DejaVuSans-31" transform="translate(159.033203 0)"/>
       <use xlink:href="#DejaVuSans-30" transform="translate(222.65625 0)"/>
      </g>
     </g>
    </g>
    <g id="ytick_26">
     <g id="line2d_45">
      <g>
       <use xlink:href="#maac3f94681" x="420.660527" y="40.875661" style="stroke: #000000; stroke-width: 0.8"/>
      </g>
     </g>
     <g id="text_31">
      <!-- 0.012 -->
      <g transform="translate(385.032402 44.67488) scale(0.1 -0.1)">
       <use xlink:href="#DejaVuSans-30"/>
       <use xlink:href="#DejaVuSans-2e" transform="translate(63.623047 0)"/>
       <use xlink:href="#DejaVuSans-30" transform="translate(95.410156 0)"/>
       <use xlink:href="#DejaVuSans-31" transform="translate(159.033203 0)"/>
       <use xlink:href="#DejaVuSans-32" transform="translate(222.65625 0)"/>
      </g>
     </g>
    </g>
    <g id="text_32">
     <!-- line intensity $I(\theta)$ [ph cm$^{-2}$ s$^{-1}$ sr$^{-1}$] -->
     <g transform="translate(378.932402 231.71) rotate(-90) scale(0.1 -0.1)">
      <defs>
       <path id="DejaVuSans-Oblique-49" d="M 1081 4666 
L 1716 4666 
L 806 0 
L 172 0 
L 1081 4666 
z
" transform="scale(0.015625)"/>
      </defs>
      <use xlink:href="#DejaVuSans-6c" transform="translate(0 0.765625)"/>
      <use xlink:href="#DejaVuSans-69" transform="translate(27.783203 0.765625)"/>
      <use xlink:href="#DejaVuSans-6e" transform="translate(55.566406 0.765625)"/>
      <use xlink:href="#DejaVuSans-65" transform="translate(118.945312 0.765625)"/>
      <use xlink:href="#DejaVuSans-20" transform="translate(180.46875 0.765625)"/>
      <use xlink:href="#DejaVuSans-69" transform="translate(212.255859 0.765625)"/>
      <use xlink:href="#DejaVuSans-6e" transform="translate(240.039062 0.765625)"/>
      <use xlink:href="#DejaVuSans-74" transform="translate(303.417969 0.765625)"/>
      <use xlink:href="#DejaVuSans-65" transform="translate(342.626953 0.765625)"/>
      <use xlink:href="#DejaVuSans-6e" transform="translate(404.150391 0.765625)"/>
      <use xlink:href="#DejaVuSans-73" transform="translate(467.529297 0.765625)"/>
      <use xlink:href="#DejaVuSans-69" transform="translate(519.628906 0.765625)"/>
      <use xlink:href="#DejaVuSans-74" transform="translate(547.412109 0.765625)"/>
      <use xlink:href="#DejaVuSans-79" transform="translate(586.621094 0.765625)"/>
      <use xlink:href="#DejaVuSans-20" transform="translate(645.800781 0.765625)"/>
      <use xlink:href="#DejaVuSans-Oblique-49" transform="translate(677.587891 0.765625)"/>
      <use xlink:href="#DejaVuSans-28" transform="translate(707.080078 0.765625)"/>
      <use xlink:href="#DejaVuSans-Oblique-3b8" transform="translate(746.09375 0.765625)"/>
      <use xlink:href="#DejaVuSans-29" transform="translate(807.275391 0.765625)"/>
      <use xlink:href="#DejaVuSans-20" transform="translate(846.289062 0.765625)"/>
      <use xlink:href="#DejaVuSans-5b" transform="translate(878.076172 0.765625)"/>
      <use xlink:href="#DejaVuSans-70" transform="translate(917.089844 0.765625)"/>
      <use xlink:href="#DejaVuSans-68" transform="translate(980.566406 0.765625)"/>
      <use xlink:href="#DejaVuSans-20" transform="translate(1043.945312 0.765625)"/>
      <use xlink:href="#DejaVuSans-63" transform="translate(1075.732422 0.765625)"/>
      <use xlink:href="#DejaVuSans-6d" transform="translate(1130.712891 0.765625)"/>
      <use xlink:href="#DejaVuSans-2212" transform="translate(1229.082031 39.046875) scale(0.7)"/>
      <use xlink:href="#DejaVuSans-32" transform="translate(1287.734375 39.046875) scale(0.7)"/>
      <use xlink:href="#DejaVuSans-20" transform="translate(1335.004883 0.765625)"/>
      <use xlink:href="#DejaVuSans-73" transform="translate(1366.791992 0.765625)"/>
      <use xlink:href="#DejaVuSans-2212" transform="translate(1419.848633 39.046875) scale(0.7)"/>
      <use xlink:href="#DejaVuSans-31" transform="translate(1478.500977 39.046875) scale(0.7)"/>
      <use xlink:href="#DejaVuSans-20" transform="translate(1525.771484 0.765625)"/>
      <use xlink:href="#DejaVuSans-73" transform="translate(1557.558594 0.765625)"/>
      <use xlink:href="#DejaVuSans-72" transform="translate(1609.658203 0.765625)"/>
      <use xlink:href="#DejaVuSans-2212" transform="translate(1651.728516 39.046875) scale(0.7)"/>
      <use xlink:href="#DejaVuSans-31" transform="translate(1710.380859 39.046875) scale(0.7)"/>
      <use xlink:href="#DejaVuSans-5d" transform="translate(1757.651367 0.765625)"/>
     </g>
    </g>
   </g>
   <g id="line2d_46">
    <path d="M 421.475525 245.663617 
L 435.404219 245.535868 
L 448.599824 245.193419 
L 461.062339 244.645112 
L 472.058676 243.943046 
L 481.588835 243.128974 
L 490.385904 242.163786 
L 498.449885 241.049773 
L 505.047687 239.931293 
L 510.9124 238.740489 
L 516.777113 237.31867 
L 521.908737 235.838855 
L 526.307272 234.354435 
L 530.705807 232.626875 
L 534.371252 230.964628 
L 538.036698 229.062782 
L 541.702144 226.883 
L 545.367589 224.389731 
L 549.033035 221.567548 
L 553.43157 217.829051 
L 557.097016 214.734147 
L 559.296283 213.187688 
L 560.762461 212.435804 
L 562.22864 211.982832 
L 563.694818 211.813477 
L 567.360263 211.792144 
L 567.360263 211.792144 
" clip-path="url(#pce8259ed70)" style="fill: none; stroke: #2471a3; stroke-width: 2.2; stroke-linecap: square"/>
   </g>
   <g id="line2d_47">
    <path d="M 567.360263 190.602376 
L 586.420581 167.532221 
L 596.683829 155.446592 
L 605.480899 145.419665 
L 613.544879 136.57812 
L 620.87577 128.887978 
L 627.473573 122.290503 
L 633.338286 116.711196 
L 639.202999 111.423179 
L 645.067712 106.447296 
L 650.199336 102.3649 
L 655.33096 98.548843 
L 660.462584 95.010643 
L 665.594208 91.76098 
L 670.725832 88.809663 
L 675.124366 86.5242 
L 679.522901 84.469558 
L 683.921436 82.650295 
L 688.319971 81.070445 
L 692.718506 79.733511 
L 697.11704 78.64246 
L 701.515575 77.79971 
L 705.91411 77.207131 
L 710.312645 76.866036 
L 713.245001 76.77875 
L 713.245001 76.77875 
" clip-path="url(#pce8259ed70)" style="fill: none; stroke: #a93226; stroke-width: 2.2; stroke-linecap: square"/>
   </g>
   <g id="line2d_48">
    <path d="M 567.360263 257.56 
L 567.360263 26.16 
" clip-path="url(#pce8259ed70)" style="fill: none; stroke-dasharray: 1,1.65; stroke-dashoffset: 0; stroke: #808080"/>
   </g>
   <g id="patch_14">
    <path d="M 420.660527 257.56 
L 420.660527 26.16 
" style="fill: none; stroke: #000000; stroke-width: 0.8; stroke-linejoin: miter; stroke-linecap: square"/>
   </g>
   <g id="patch_15">
    <path d="M 714.06 257.56 
L 714.06 26.16 
" style="fill: none; stroke: #000000; stroke-width: 0.8; stroke-linejoin: miter; stroke-linecap: square"/>
   </g>
   <g id="patch_16">
    <path d="M 420.660527 257.56 
L 714.06 257.56 
" style="fill: none; stroke: #000000; stroke-width: 0.8; stroke-linejoin: miter; stroke-linecap: square"/>
   </g>
   <g id="patch_17">
    <path d="M 420.660527 26.16 
L 714.06 26.16 
" style="fill: none; stroke: #000000; stroke-width: 0.8; stroke-linejoin: miter; stroke-linecap: square"/>
   </g>
   <g id="text_33">
    <g id="patch_18">
     <path d="M 435.330501 192.776 
L 548.570501 192.776 
Q 550.850501 192.776 550.850501 190.496 
L 550.850501 172.242225 
Q 550.850501 169.962225 548.570501 169.962225 
L 435.330501 169.962225 
Q 433.050501 169.962225 433.050501 172.242225 
L 433.050501 190.496 
Q 433.050501 192.776 435.330501 192.776 
z
" style="fill: #ffffff; opacity: 0.9; stroke: #b2b2b2; stroke-linejoin: miter"/>
    </g>
    <!-- $\Phi_{511}^{4\pi}=5.2\times10^{-2}$ ph cm$^{-2}$ s$^{-1}$ -->
    <g transform="translate(435.330501 179.006225) scale(0.076 -0.076)">
     <defs>
      <path id="DejaVuSans-3a6" d="M 2206 3644 
Q 1738 3578 1431 3306 
Q 1025 2947 1025 2328 
Q 1025 1713 1431 1353 
Q 1738 1081 2206 1016 
L 2206 3644 
z
M 2838 1016 
Q 3306 1081 3613 1353 
Q 4013 1713 4013 2328 
Q 4013 2947 3613 3306 
Q 3306 3578 2838 3644 
L 2838 1016 
z
M 2206 494 
Q 1444 563 950 981 
Q 359 1481 359 2328 
Q 359 3175 950 3678 
Q 1441 4100 2206 4169 
L 2206 4666 
L 2838 4666 
L 2838 4169 
Q 3600 4097 4091 3678 
Q 4678 3175 4678 2328 
Q 4678 1484 4091 981 
Q 3600 563 2838 491 
L 2838 0 
L 2206 0 
L 2206 494 
z
" transform="scale(0.015625)"/>
      <path id="DejaVuSans-Oblique-3c0" d="M 584 3500 
L 3938 3500 
L 3825 2925 
L 3384 2925 
L 2966 775 
Q 2922 550 2981 450 
Q 3038 353 3209 353 
Q 3256 353 3325 363 
Q 3397 369 3419 372 
L 3338 -44 
Q 3222 -84 3103 -103 
Q 2981 -122 2866 -122 
Q 2491 -122 2388 81 
Q 2284 288 2391 838 
L 2797 2925 
L 1506 2925 
L 938 0 
L 350 0 
L 919 2925 
L 472 2925 
L 584 3500 
z
" transform="scale(0.015625)"/>
      <path id="DejaVuSans-3d" d="M 678 2906 
L 4684 2906 
L 4684 2381 
L 678 2381 
L 678 2906 
z
M 678 1631 
L 4684 1631 
L 4684 1100 
L 678 1100 
L 678 1631 
z
" transform="scale(0.015625)"/>
      <path id="DejaVuSans-d7" d="M 4488 3438 
L 3059 2003 
L 4488 575 
L 4116 197 
L 2681 1631 
L 1247 197 
L 878 575 
L 2303 2003 
L 878 3438 
L 1247 3816 
L 2681 2381 
L 4116 3816 
L 4488 3438 
z
" transform="scale(0.015625)"/>
     </defs>
     <use xlink:href="#DejaVuSans-3a6" transform="translate(0 0.765625)"/>
     <use xlink:href="#DejaVuSans-34" transform="translate(79.667969 39.046875) scale(0.7)"/>
     <use xlink:href="#DejaVuSans-Oblique-3c0" transform="translate(124.204102 39.046875) scale(0.7)"/>
     <use xlink:href="#DejaVuSans-35" transform="translate(79.667969 -26.578125) scale(0.7)"/>
     <use xlink:href="#DejaVuSans-31" transform="translate(124.204102 -26.578125) scale(0.7)"/>
     <use xlink:href="#DejaVuSans-31" transform="translate(168.740234 -26.578125) scale(0.7)"/>
     <use xlink:href="#DejaVuSans-3d" transform="translate(235.493164 0.765625)"/>
     <use xlink:href="#DejaVuSans-35" transform="translate(338.764648 0.765625)"/>
     <use xlink:href="#DejaVuSans-2e" transform="translate(402.387695 0.765625)"/>
     <use xlink:href="#DejaVuSans-32" transform="translate(428.674805 0.765625)"/>
     <use xlink:href="#DejaVuSans-d7" transform="translate(511.780273 0.765625)"/>
     <use xlink:href="#DejaVuSans-31" transform="translate(615.051758 0.765625)"/>
     <use xlink:href="#DejaVuSans-30" transform="translate(678.674805 0.765625)"/>
     <use xlink:href="#DejaVuSans-2212" transform="translate(743.254883 39.046875) scale(0.7)"/>
     <use xlink:href="#DejaVuSans-32" transform="translate(801.907227 39.046875) scale(0.7)"/>
     <use xlink:href="#DejaVuSans-20" transform="translate(849.177734 0.765625)"/>
     <use xlink:href="#DejaVuSans-70" transform="translate(880.964844 0.765625)"/>
     <use xlink:href="#DejaVuSans-68" transform="translate(944.441406 0.765625)"/>
     <use xlink:href="#DejaVuSans-20" transform="translate(1007.820312 0.765625)"/>
     <use xlink:href="#DejaVuSans-63" transform="translate(1039.607422 0.765625)"/>
     <use xlink:href="#DejaVuSans-6d" transform="translate(1094.587891 0.765625)"/>
     <use xlink:href="#DejaVuSans-2212" transform="translate(1192.957031 39.046875) scale(0.7)"/>
     <use xlink:href="#DejaVuSans-32" transform="translate(1251.609375 39.046875) scale(0.7)"/>
     <use xlink:href="#DejaVuSans-20" transform="translate(1298.879883 0.765625)"/>
     <use xlink:href="#DejaVuSans-73" transform="translate(1330.666992 0.765625)"/>
     <use xlink:href="#DejaVuSans-2212" transform="translate(1383.723633 39.046875) scale(0.7)"/>
     <use xlink:href="#DejaVuSans-31" transform="translate(1442.375977 39.046875) scale(0.7)"/>
    </g>
    <!-- $r_{\rm down}=\Phi_{\rm down}/\Phi_{\rm up}\approx0.20$ -->
    <g transform="translate(435.330501 188.14) scale(0.076 -0.076)">
     <defs>
      <path id="DejaVuSans-Oblique-72" d="M 2853 2969 
Q 2766 3016 2653 3041 
Q 2541 3066 2413 3066 
Q 1953 3066 1609 2717 
Q 1266 2369 1153 1784 
L 800 0 
L 225 0 
L 909 3500 
L 1484 3500 
L 1375 2956 
Q 1603 3259 1920 3421 
Q 2238 3584 2597 3584 
Q 2691 3584 2781 3573 
Q 2872 3563 2963 3538 
L 2853 2969 
z
" transform="scale(0.015625)"/>
      <path id="DejaVuSans-2f" d="M 1625 4666 
L 2156 4666 
L 531 -594 
L 0 -594 
L 1625 4666 
z
" transform="scale(0.015625)"/>
      <path id="DejaVuSans-2248" d="M 4684 1947 
L 4684 1388 
Q 4356 1144 4076 1036 
Q 3797 928 3494 928 
Q 3150 928 2694 1113 
Q 2663 1125 2641 1134 
Q 2622 1141 2575 1159 
Q 2091 1350 1797 1350 
Q 1522 1350 1253 1231 
Q 984 1113 678 850 
L 678 1409 
Q 1006 1653 1286 1761 
Q 1566 1869 1869 1869 
Q 2213 1869 2672 1684 
Q 2706 1669 2722 1663 
Q 2741 1656 2788 1638 
Q 3272 1447 3566 1447 
Q 3834 1447 4098 1564 
Q 4363 1681 4684 1947 
z
M 4684 3163 
L 4684 2606 
Q 4356 2359 4076 2251 
Q 3797 2144 3494 2144 
Q 3150 2144 2694 2328 
Q 2663 2341 2641 2350 
Q 2622 2356 2575 2375 
Q 2091 2566 1797 2566 
Q 1522 2566 1253 2447 
Q 984 2328 678 2069 
L 678 2625 
Q 1006 2869 1286 2976 
Q 1566 3084 1869 3084 
Q 2213 3084 2672 2900 
Q 2703 2888 2719 2881 
Q 2741 2872 2788 2853 
Q 3272 2663 3566 2663 
Q 3834 2663 4098 2780 
Q 4363 2897 4684 3163 
z
" transform="scale(0.015625)"/>
     </defs>
     <use xlink:href="#DejaVuSans-Oblique-72" transform="translate(0 0.78125)"/>
     <use xlink:href="#DejaVuSans-64" transform="translate(41.113281 -15.625) scale(0.7)"/>
     <use xlink:href="#DejaVuSans-6f" transform="translate(85.546875 -15.625) scale(0.7)"/>
     <use xlink:href="#DejaVuSans-77" transform="translate(128.374023 -15.625) scale(0.7)"/>
     <use xlink:href="#DejaVuSans-6e" transform="translate(185.625 -15.625) scale(0.7)"/>
     <use xlink:href="#DejaVuSans-3d" transform="translate(252.207031 0.78125)"/>
     <use xlink:href="#DejaVuSans-3a6" transform="translate(355.478516 0.78125)"/>
     <use xlink:href="#DejaVuSans-64" transform="translate(435.146484 -15.625) scale(0.7)"/>
     <use xlink:href="#DejaVuSans-6f" transform="translate(479.580078 -15.625) scale(0.7)"/>
     <use xlink:href="#DejaVuSans-77" transform="translate(522.407227 -15.625) scale(0.7)"/>
     <use xlink:href="#DejaVuSans-6e" transform="translate(579.658203 -15.625) scale(0.7)"/>
     <use xlink:href="#DejaVuSans-2f" transform="translate(626.757812 0.78125)"/>
     <use xlink:href="#DejaVuSans-3a6" transform="translate(660.449219 0.78125)"/>
     <use xlink:href="#DejaVuSans-75" transform="translate(740.117188 -15.625) scale(0.7)"/>
     <use xlink:href="#DejaVuSans-70" transform="translate(784.482422 -15.625) scale(0.7)"/>
     <use xlink:href="#DejaVuSans-2248" transform="translate(851.132812 0.78125)"/>
     <use xlink:href="#DejaVuSans-30" transform="translate(954.404297 0.78125)"/>
     <use xlink:href="#DejaVuSans-2e" transform="translate(1018.027344 0.78125)"/>
     <use xlink:href="#DejaVuSans-32" transform="translate(1044.314453 0.78125)"/>
     <use xlink:href="#DejaVuSans-30" transform="translate(1107.9375 0.78125)"/>
    </g>
   </g>
   <g id="text_34">
    <!-- (b) 4$\pi$ angular model of the added line -->
    <g transform="translate(470.560263 20.16) scale(0.1 -0.1)">
     <defs>
      <path id="DejaVuSans-66" d="M 2375 4863 
L 2375 4384 
L 1825 4384 
Q 1516 4384 1395 4259 
Q 1275 4134 1275 3809 
L 1275 3500 
L 2222 3500 
L 2222 3053 
L 1275 3053 
L 1275 0 
L 697 0 
L 697 3053 
L 147 3053 
L 147 3500 
L 697 3500 
L 697 3744 
Q 697 4328 969 4595 
Q 1241 4863 1831 4863 
L 2375 4863 
z
" transform="scale(0.015625)"/>
     </defs>
     <use xlink:href="#DejaVuSans-28" transform="translate(0 0.015625)"/>
     <use xlink:href="#DejaVuSans-62" transform="translate(39.013672 0.015625)"/>
     <use xlink:href="#DejaVuSans-29" transform="translate(102.490234 0.015625)"/>
     <use xlink:href="#DejaVuSans-20" transform="translate(141.503906 0.015625)"/>
     <use xlink:href="#DejaVuSans-34" transform="translate(173.291016 0.015625)"/>
     <use xlink:href="#DejaVuSans-Oblique-3c0" transform="translate(236.914062 0.015625)"/>
     <use xlink:href="#DejaVuSans-20" transform="translate(297.119141 0.015625)"/>
     <use xlink:href="#DejaVuSans-61" transform="translate(328.90625 0.015625)"/>
     <use xlink:href="#DejaVuSans-6e" transform="translate(390.185547 0.015625)"/>
     <use xlink:href="#DejaVuSans-67" transform="translate(453.564453 0.015625)"/>
     <use xlink:href="#DejaVuSans-75" transform="translate(517.041016 0.015625)"/>
     <use xlink:href="#DejaVuSans-6c" transform="translate(580.419922 0.015625)"/>
     <use xlink:href="#DejaVuSans-61" transform="translate(608.203125 0.015625)"/>
     <use xlink:href="#DejaVuSans-72" transform="translate(669.482422 0.015625)"/>
     <use xlink:href="#DejaVuSans-20" transform="translate(710.595703 0.015625)"/>
     <use xlink:href="#DejaVuSans-6d" transform="translate(742.382812 0.015625)"/>
     <use xlink:href="#DejaVuSans-6f" transform="translate(839.794922 0.015625)"/>
     <use xlink:href="#DejaVuSans-64" transform="translate(900.976562 0.015625)"/>
     <use xlink:href="#DejaVuSans-65" transform="translate(964.453125 0.015625)"/>
     <use xlink:href="#DejaVuSans-6c" transform="translate(1025.976562 0.015625)"/>
     <use xlink:href="#DejaVuSans-20" transform="translate(1053.759766 0.015625)"/>
     <use xlink:href="#DejaVuSans-6f" transform="translate(1085.546875 0.015625)"/>
     <use xlink:href="#DejaVuSans-66" transform="translate(1146.728516 0.015625)"/>
     <use xlink:href="#DejaVuSans-20" transform="translate(1181.933594 0.015625)"/>
     <use xlink:href="#DejaVuSans-74" transform="translate(1213.720703 0.015625)"/>
     <use xlink:href="#DejaVuSans-68" transform="translate(1252.929688 0.015625)"/>
     <use xlink:href="#DejaVuSans-65" transform="translate(1316.308594 0.015625)"/>
     <use xlink:href="#DejaVuSans-20" transform="translate(1377.832031 0.015625)"/>
     <use xlink:href="#DejaVuSans-61" transform="translate(1409.619141 0.015625)"/>
     <use xlink:href="#DejaVuSans-64" transform="translate(1470.898438 0.015625)"/>
     <use xlink:href="#DejaVuSans-64" transform="translate(1534.375 0.015625)"/>
     <use xlink:href="#DejaVuSans-65" transform="translate(1597.851562 0.015625)"/>
     <use xlink:href="#DejaVuSans-64" transform="translate(1659.375 0.015625)"/>
     <use xlink:href="#DejaVuSans-20" transform="translate(1722.851562 0.015625)"/>
     <use xlink:href="#DejaVuSans-6c" transform="translate(1754.638672 0.015625)"/>
     <use xlink:href="#DejaVuSans-69" transform="translate(1782.421875 0.015625)"/>
     <use xlink:href="#DejaVuSans-6e" transform="translate(1810.205078 0.015625)"/>
     <use xlink:href="#DejaVuSans-65" transform="translate(1873.583984 0.015625)"/>
    </g>
   </g>
   <g id="legend_2">
    <g id="patch_19">
     <path d="M 425.560527 52.34 
L 632.970527 52.34 
Q 634.370527 52.34 634.370527 50.94 
L 634.370527 31.06 
Q 634.370527 29.66 632.970527 29.66 
L 425.560527 29.66 
Q 424.160527 29.66 424.160527 31.06 
L 424.160527 50.94 
Q 424.160527 52.34 425.560527 52.34 
z
" style="fill: #ffffff; opacity: 0.9; stroke: #cccccc; stroke-linejoin: miter"/>
    </g>
    <g id="line2d_49">
     <path d="M 426.960527 35.33 
L 433.960527 35.33 
L 440.960527 35.33 
" style="fill: none; stroke: #2471a3; stroke-width: 2.2; stroke-linecap: square"/>
    </g>
    <g id="text_35">
     <!-- downward residual atmosphere, slab kernel (0- -90$^\circ$) -->
     <g transform="translate(446.560527 37.78) scale(0.07 -0.07)">
      <defs>
       <path id="DejaVuSans-2c" d="M 750 794 
L 1409 794 
L 1409 256 
L 897 -744 
L 494 -744 
L 750 256 
L 750 794 
z
" transform="scale(0.015625)"/>
       <path id="DejaVuSans-2d" d="M 313 2009 
L 1997 2009 
L 1997 1497 
L 313 1497 
L 313 2009 
z
" transform="scale(0.015625)"/>
       <path id="DejaVuSans-2218" d="M 2000 2619 
Q 1750 2619 1578 2445 
Q 1406 2272 1406 2022 
Q 1406 1775 1578 1605 
Q 1750 1435 2000 1435 
Q 2250 1435 2422 1605 
Q 2594 1775 2594 2022 
Q 2594 2269 2420 2444 
Q 2247 2619 2000 2619 
z
M 2000 3022 
Q 2200 3022 2384 2945 
Q 2569 2869 2703 2725 
Q 2847 2585 2919 2406 
Q 2991 2228 2991 2022 
Q 2991 1610 2702 1324 
Q 2413 1038 1994 1038 
Q 1572 1038 1290 1319 
Q 1009 1600 1009 2022 
Q 1009 2441 1296 2731 
Q 1584 3022 2000 3022 
z
" transform="scale(0.015625)"/>
      </defs>
      <use xlink:href="#DejaVuSans-64" transform="translate(0 0.015625)"/>
      <use xlink:href="#DejaVuSans-6f" transform="translate(63.476562 0.015625)"/>
      <use xlink:href="#DejaVuSans-77" transform="translate(124.658203 0.015625)"/>
      <use xlink:href="#DejaVuSans-6e" transform="translate(206.445312 0.015625)"/>
      <use xlink:href="#DejaVuSans-77" transform="translate(269.824219 0.015625)"/>
      <use xlink:href="#DejaVuSans-61" transform="translate(351.611328 0.015625)"/>
      <use xlink:href="#DejaVuSans-72" transform="translate(412.890625 0.015625)"/>
      <use xlink:href="#DejaVuSans-64" transform="translate(454.003906 0.015625)"/>
      <use xlink:href="#DejaVuSans-20" transform="translate(517.480469 0.015625)"/>
      <use xlink:href="#DejaVuSans-72" transform="translate(549.267578 0.015625)"/>
      <use xlink:href="#DejaVuSans-65" transform="translate(590.380859 0.015625)"/>
      <use xlink:href="#DejaVuSans-73" transform="translate(651.904297 0.015625)"/>
      <use xlink:href="#DejaVuSans-69" transform="translate(704.003906 0.015625)"/>
      <use xlink:href="#DejaVuSans-64" transform="translate(731.787109 0.015625)"/>
      <use xlink:href="#DejaVuSans-75" transform="translate(795.263672 0.015625)"/>
      <use xlink:href="#DejaVuSans-61" transform="translate(858.642578 0.015625)"/>
      <use xlink:href="#DejaVuSans-6c" transform="translate(919.921875 0.015625)"/>
      <use xlink:href="#DejaVuSans-20" transform="translate(947.705078 0.015625)"/>
      <use xlink:href="#DejaVuSans-61" transform="translate(979.492188 0.015625)"/>
      <use xlink:href="#DejaVuSans-74" transform="translate(1040.771484 0.015625)"/>
      <use xlink:href="#DejaVuSans-6d" transform="translate(1079.980469 0.015625)"/>
      <use xlink:href="#DejaVuSans-6f" transform="translate(1177.392578 0.015625)"/>
      <use xlink:href="#DejaVuSans-73" transform="translate(1238.574219 0.015625)"/>
      <use xlink:href="#DejaVuSans-70" transform="translate(1290.673828 0.015625)"/>
      <use xlink:href="#DejaVuSans-68" transform="translate(1354.150391 0.015625)"/>
      <use xlink:href="#DejaVuSans-65" transform="translate(1417.529297 0.015625)"/>
      <use xlink:href="#DejaVuSans-72" transform="translate(1479.052734 0.015625)"/>
      <use xlink:href="#DejaVuSans-65" transform="translate(1520.166016 0.015625)"/>
      <use xlink:href="#DejaVuSans-2c" transform="translate(1581.689453 0.015625)"/>
      <use xlink:href="#DejaVuSans-20" transform="translate(1613.476562 0.015625)"/>
      <use xlink:href="#DejaVuSans-73" transform="translate(1645.263672 0.015625)"/>
      <use xlink:href="#DejaVuSans-6c" transform="translate(1697.363281 0.015625)"/>
      <use xlink:href="#DejaVuSans-61" transform="translate(1725.146484 0.015625)"/>
      <use xlink:href="#DejaVuSans-62" transform="translate(1786.425781 0.015625)"/>
      <use xlink:href="#DejaVuSans-20" transform="translate(1849.902344 0.015625)"/>
      <use xlink:href="#DejaVuSans-6b" transform="translate(1881.689453 0.015625)"/>
      <use xlink:href="#DejaVuSans-65" transform="translate(1939.599609 0.015625)"/>
      <use xlink:href="#DejaVuSans-72" transform="translate(2001.123047 0.015625)"/>
      <use xlink:href="#DejaVuSans-6e" transform="translate(2042.236328 0.015625)"/>
      <use xlink:href="#DejaVuSans-65" transform="translate(2105.615234 0.015625)"/>
      <use xlink:href="#DejaVuSans-6c" transform="translate(2167.138672 0.015625)"/>
      <use xlink:href="#DejaVuSans-20" transform="translate(2194.921875 0.015625)"/>
      <use xlink:href="#DejaVuSans-28" transform="translate(2226.708984 0.015625)"/>
      <use xlink:href="#DejaVuSans-30" transform="translate(2265.722656 0.015625)"/>
      <use xlink:href="#DejaVuSans-2d" transform="translate(2329.345703 0.015625)"/>
      <use xlink:href="#DejaVuSans-2d" transform="translate(2365.429688 0.015625)"/>
      <use xlink:href="#DejaVuSans-39" transform="translate(2401.513672 0.015625)"/>
      <use xlink:href="#DejaVuSans-30" transform="translate(2465.136719 0.015625)"/>
      <use xlink:href="#DejaVuSans-2218" transform="translate(2543.354492 38.296875) scale(0.7)"/>
      <use xlink:href="#DejaVuSans-29" transform="translate(2603.544922 0.015625)"/>
     </g>
    </g>
    <g id="line2d_50">
     <path d="M 426.960527 45.62 
L 433.960527 45.62 
L 440.960527 45.62 
" style="fill: none; stroke: #a93226; stroke-width: 2.2; stroke-linecap: square"/>
    </g>
    <g id="text_36">
     <!-- upward Earth albedo, limb darkening (90- -180$^\circ$) -->
     <g transform="translate(446.560527 48.07) scale(0.07 -0.07)">
      <use xlink:href="#DejaVuSans-75" transform="translate(0 0.015625)"/>
      <use xlink:href="#DejaVuSans-70" transform="translate(63.378906 0.015625)"/>
      <use xlink:href="#DejaVuSans-77" transform="translate(126.855469 0.015625)"/>
      <use xlink:href="#DejaVuSans-61" transform="translate(208.642578 0.015625)"/>
      <use xlink:href="#DejaVuSans-72" transform="translate(269.921875 0.015625)"/>
      <use xlink:href="#DejaVuSans-64" transform="translate(311.035156 0.015625)"/>
      <use xlink:href="#DejaVuSans-20" transform="translate(374.511719 0.015625)"/>
      <use xlink:href="#DejaVuSans-45" transform="translate(406.298828 0.015625)"/>
      <use xlink:href="#DejaVuSans-61" transform="translate(469.482422 0.015625)"/>
      <use xlink:href="#DejaVuSans-72" transform="translate(530.761719 0.015625)"/>
      <use xlink:href="#DejaVuSans-74" transform="translate(571.875 0.015625)"/>
      <use xlink:href="#DejaVuSans-68" transform="translate(611.083984 0.015625)"/>
      <use xlink:href="#DejaVuSans-20" transform="translate(674.462891 0.015625)"/>
      <use xlink:href="#DejaVuSans-61" transform="translate(706.25 0.015625)"/>
      <use xlink:href="#DejaVuSans-6c" transform="translate(767.529297 0.015625)"/>
      <use xlink:href="#DejaVuSans-62" transform="translate(795.3125 0.015625)"/>
      <use xlink:href="#DejaVuSans-65" transform="translate(858.789062 0.015625)"/>
      <use xlink:href="#DejaVuSans-64" transform="translate(920.3125 0.015625)"/>
      <use xlink:href="#DejaVuSans-6f" transform="translate(983.789062 0.015625)"/>
      <use xlink:href="#DejaVuSans-2c" transform="translate(1044.970703 0.015625)"/>
      <use xlink:href="#DejaVuSans-20" transform="translate(1076.757812 0.015625)"/>
      <use xlink:href="#DejaVuSans-6c" transform="translate(1108.544922 0.015625)"/>
      <use xlink:href="#DejaVuSans-69" transform="translate(1136.328125 0.015625)"/>
      <use xlink:href="#DejaVuSans-6d" transform="translate(1164.111328 0.015625)"/>
      <use xlink:href="#DejaVuSans-62" transform="translate(1261.523438 0.015625)"/>
      <use xlink:href="#DejaVuSans-20" transform="translate(1325 0.015625)"/>
      <use xlink:href="#DejaVuSans-64" transform="translate(1356.787109 0.015625)"/>
      <use xlink:href="#DejaVuSans-61" transform="translate(1420.263672 0.015625)"/>
      <use xlink:href="#DejaVuSans-72" transform="translate(1481.542969 0.015625)"/>
      <use xlink:href="#DejaVuSans-6b" transform="translate(1522.65625 0.015625)"/>
      <use xlink:href="#DejaVuSans-65" transform="translate(1580.566406 0.015625)"/>
      <use xlink:href="#DejaVuSans-6e" transform="translate(1642.089844 0.015625)"/>
      <use xlink:href="#DejaVuSans-69" transform="translate(1705.46875 0.015625)"/>
      <use xlink:href="#DejaVuSans-6e" transform="translate(1733.251953 0.015625)"/>
      <use xlink:href="#DejaVuSans-67" transform="translate(1796.630859 0.015625)"/>
      <use xlink:href="#DejaVuSans-20" transform="translate(1860.107422 0.015625)"/>
      <use xlink:href="#DejaVuSans-28" transform="translate(1891.894531 0.015625)"/>
      <use xlink:href="#DejaVuSans-39" transform="translate(1930.908203 0.015625)"/>
      <use xlink:href="#DejaVuSans-30" transform="translate(1994.53125 0.015625)"/>
      <use xlink:href="#DejaVuSans-2d" transform="translate(2058.154297 0.015625)"/>
      <use xlink:href="#DejaVuSans-2d" transform="translate(2094.238281 0.015625)"/>
      <use xlink:href="#DejaVuSans-31" transform="translate(2130.322266 0.015625)"/>
      <use xlink:href="#DejaVuSans-38" transform="translate(2193.945312 0.015625)"/>
      <use xlink:href="#DejaVuSans-30" transform="translate(2257.568359 0.015625)"/>
      <use xlink:href="#DejaVuSans-2218" transform="translate(2335.786133 38.296875) scale(0.7)"/>
      <use xlink:href="#DejaVuSans-29" transform="translate(2395.976562 0.015625)"/>
     </g>
    </g>
   </g>
  </g>
 </g>
 <defs>
  <clipPath id="p9b52c332e7">
   <rect x="61.469054" y="26.16" width="293.399473" height="231.4"/>
  </clipPath>
  <clipPath id="pce8259ed70">
   <rect x="420.660527" y="26.16" width="293.399473" height="231.4"/>
  </clipPath>
 </defs>
</svg>
