<svg xmlns="http://www.w3.org/2000/svg" width="1900" height="1120" viewBox="0 0 1900 1120">
<rect width="100%" height="100%" fill="#fff"/>
<text x="950" y="42" text-anchor="middle" font-family="DejaVu Sans" font-size="29" font-weight="700">SH3 chimney + pure DR assembly — local x′/z′ section</text>
<text x="950" y="76" text-anchor="middle" font-family="DejaVu Sans" font-size="18" fill="#444">whole InstrumentFrame retains Rotation 0 45 0; signal enters from local −x′</text>
<rect x="1429.99" y="264.77" width="10.26" height="704.56" fill="#9aa5b1" opacity="0.85" stroke="none"/>
<rect x="595.04" y="863.86" width="10.26" height="105.48" fill="#9aa5b1" opacity="0.85" stroke="none"/>
<rect x="595.04" y="264.77" width="10.26" height="578.40" fill="#9aa5b1" opacity="0.85" stroke="none"/>
<rect x="1391.01" y="386.80" width="6.15" height="565.99" fill="#79c8e8" opacity="0.85" stroke="none"/>
<rect x="638.12" y="863.86" width="6.15" height="88.93" fill="#79c8e8" opacity="0.85" stroke="none"/>
<rect x="638.12" y="386.80" width="6.15" height="456.38" fill="#79c8e8" opacity="0.85" stroke="none"/>
<rect x="1380.76" y="510.20" width="6.15" height="428.80" fill="#49a6e9" opacity="0.85" stroke="none"/>
<rect x="648.38" y="863.86" width="6.15" height="75.14" fill="#49a6e9" opacity="0.85" stroke="none"/>
<rect x="648.38" y="510.20" width="6.15" height="332.98" fill="#49a6e9" opacity="0.85" stroke="none"/>
<rect x="1335.62" y="634.29" width="6.15" height="290.92" fill="#367ee8" opacity="0.85" stroke="none"/>
<rect x="693.51" y="863.86" width="6.15" height="61.36" fill="#367ee8" opacity="0.85" stroke="none"/>
<rect x="693.51" y="634.29" width="6.15" height="208.89" fill="#367ee8" opacity="0.85" stroke="none"/>
<rect x="1327.42" y="785.95" width="4.10" height="129.61" fill="#2457d6" opacity="0.85" stroke="none"/>
<rect x="703.77" y="863.86" width="4.10" height="51.70" fill="#2457d6" opacity="0.85" stroke="none"/>
<rect x="703.77" y="785.95" width="4.10" height="57.22" fill="#2457d6" opacity="0.85" stroke="none"/>
<rect x="709.93" y="779.06" width="615.44" height="5.52" fill="#b87333" opacity="0.75" stroke="none"/>
<rect x="709.93" y="710.12" width="615.44" height="5.52" fill="#b87333" opacity="0.75" stroke="none"/>
<rect x="709.93" y="634.29" width="615.44" height="5.52" fill="#b87333" opacity="0.75" stroke="none"/>
<rect x="658.64" y="510.20" width="718.01" height="5.52" fill="#b87333" opacity="0.75" stroke="none"/>
<rect x="648.38" y="386.11" width="738.53" height="5.52" fill="#c58a50" opacity="0.75" stroke="none"/>
<rect x="244.24" y="705.98" width="266.69" height="55.15" fill="#156c3c" opacity="0.83" stroke="none"/>
<rect x="162.18" y="705.98" width="82.06" height="110.30" fill="#1f9d55" opacity="0.83" stroke="none"/>
<rect x="510.93" y="705.98" width="82.06" height="137.19" fill="#2bb673" opacity="0.83" stroke="none"/>
<rect x="161.16" y="701.16" width="432.86" height="4.14" fill="#697780" opacity="0.95" stroke="none"/>
<rect x="244.24" y="945.89" width="266.69" height="55.15" fill="#156c3c" opacity="0.83" stroke="none"/>
<rect x="162.18" y="890.74" width="82.06" height="110.30" fill="#1f9d55" opacity="0.83" stroke="none"/>
<rect x="510.93" y="863.86" width="82.06" height="137.19" fill="#2bb673" opacity="0.83" stroke="none"/>
<rect x="161.16" y="1001.73" width="432.86" height="4.14" fill="#697780" opacity="0.95" stroke="none"/>
<rect x="305.79" y="828.70" width="6.15" height="49.64" fill="#c62828" opacity="0.72" stroke="none"/>
<rect x="330.40" y="828.70" width="6.15" height="49.64" fill="#c62828" opacity="0.72" stroke="none"/>
<rect x="355.02" y="828.70" width="6.15" height="49.64" fill="#c62828" opacity="0.72" stroke="none"/>
<rect x="379.64" y="828.70" width="6.15" height="49.64" fill="#c62828" opacity="0.72" stroke="none"/>
<rect x="404.26" y="828.70" width="6.15" height="49.64" fill="#c62828" opacity="0.72" stroke="none"/>
<rect x="428.88" y="828.70" width="6.15" height="49.64" fill="#c62828" opacity="0.72" stroke="none"/>
<rect x="509.91" y="851.31" width="202.89" height="4.41" fill="#7b3f00" opacity="1.0" stroke="none"/>
<rect x="719.36" y="851.31" width="419.12" height="4.41" fill="#7b3f00" opacity="1.0" stroke="none"/>
<rect x="1138.48" y="789.40" width="6.56" height="61.91" fill="#7b3f00" opacity="1.0" stroke="none"/>
<rect x="1134.58" y="784.58" width="14.36" height="4.83" fill="#a95f20" opacity="1.0" stroke="none"/>
<line x1="115.00" y1="781.82" x2="1510.00" y2="781.82" stroke="#333" stroke-width="1.5"/>
<line x1="1017.65" y1="1030.00" x2="1017.65" y2="120.00" stroke="#777" stroke-width="1" stroke-dasharray="5 5"/>
<text x="145.77" y="685.30" font-family="DejaVu Sans" font-size="17">optical front</text>
<text x="340.66" y="685.30" font-family="DejaVu Sans" font-size="17" fill="#0d4f2c">40 mm BGO chimney</text>
<text x="515.04" y="834.21" font-family="DejaVu Sans" font-size="16" fill="#7b3f00">cold finger through Ø1.50 cm port stack</text>
<text x="1128.43" y="763.89" font-family="DejaVu Sans" font-size="16" fill="#7b3f00">MXC contact pad</text>
<text x="597.10" y="244.09" font-family="DejaVu Sans" font-size="17">retained pure-DR shells/plates</text>
<text x="815" y="1090" text-anchor="middle" font-family="DejaVu Sans" font-size="18">DR local x′ (cm)</text>
<text x="38" y="565" text-anchor="middle" font-family="DejaVu Sans" font-size="18" transform="rotate(-90 38 565)">DR local z′ (cm)</text>
<rect x="1550" y="150" width="305" height="345" fill="#f7f9fb" stroke="#99a"/>
<text x="1702" y="185" text-anchor="middle" font-family="DejaVu Sans" font-size="18" font-weight="700">assembly contract</text>
<text x="1570" y="225" font-family="DejaVu Sans" font-size="15">chimney origin: (-31.55, 0, -5.20) cm</text>
<text x="1570" y="258" font-family="DejaVu Sans" font-size="15">axis: chimney +x′ = DR +x′</text>
<text x="1570" y="291" font-family="DejaVu Sans" font-size="15">dock clearance: 0.05 cm</text>
<text x="1570" y="324" font-family="DejaVu Sans" font-size="15">port: Ø1.50 cm</text>
<text x="1570" y="357" font-family="DejaVu Sans" font-size="15">cold finger: 3.2 mm square proxy</text>
<text x="1570" y="390" font-family="DejaVu Sans" font-size="15">pad top / MXC bottom: z′=-0.20</text>
<text x="1570" y="435" font-family="DejaVu Sans" font-size="15" fill="#b71c1c">geometry only; thermal sizing pending</text>
</svg>
