<svg xmlns="http://www.w3.org/2000/svg" width="1800" height="1000" viewBox="0 0 1800 1000">
<rect width="1800" height="1000" fill="#fff"/>
<text x="900" y="45" text-anchor="middle" font-family="DejaVu Sans" font-size="30" font-weight="700">SH3 OptV3 — boolean-welded saddle joint</text>
<text x="900" y="78" text-anchor="middle" font-family="DejaVu Sans" font-size="18" fill="#444">One aluminium CSG solid: DR side shell + bottom cap + chimney branch − branch bore − DR cavity</text>
<rect x="70" y="115" width="1040" height="790" fill="#f8fafc" stroke="#8796a5"/>
<text x="590" y="150" text-anchor="middle" font-family="DejaVu Sans" font-size="22" font-weight="700">x′/z′ section through branch axis</text>
<path d="M 820 190 L 820 760 Q 820 820 760 820 L 655 820 L 655 782 L 760 782 Q 782 782 782 760 L 782 190 Z" fill="#8b98a3" opacity="0.92"/>
<path d="M 140 305 L 630 305 Q 775 305 800 445 L 800 575 Q 770 695 630 695 L 140 695 Z" fill="#65757e"/>
<path d="M 140 318 L 630 318 Q 745 318 782 445 L 782 575 Q 740 682 630 682 L 140 682 Z" fill="#ffffff"/>
<line x1="140" y1="500" x2="970" y2="500" stroke="#c62828" stroke-width="2" stroke-dasharray="9 7"/>
<rect x="140" y="493" width="765" height="14" fill="#9a5414"/>
<text x="170" y="285" font-family="DejaVu Sans" font-size="18">3 mm chimney Al shell continues into the curved DR shell</text>
<text x="705" y="355" font-family="DejaVu Sans" font-size="17" fill="#34454d">continuous saddle intersection</text>
<text x="835" y="220" font-family="DejaVu Sans" font-size="17" fill="#34454d">300 K DR Al shell</text>
<text x="170" y="535" font-family="DejaVu Sans" font-size="17" fill="#9a5414">bent Cu cold finger on z′=-2.80 cm axis</text>
<text x="170" y="875" font-family="DejaVu Sans" font-size="17" fill="#2e7d32">chimney bottom z′=-13.85 cm; DR bottom z′=-14.10 cm; clearance 0.25 cm</text>
<rect x="1150" y="115" width="585" height="790" fill="#f8fafc" stroke="#8796a5"/>
<text x="1442" y="150" text-anchor="middle" font-family="DejaVu Sans" font-size="22" font-weight="700">CSG construction</text>
<rect x="1210" y="205" width="465" height="75" rx="8" fill="#dce4e9" stroke="#5f6d78"/>
<text x="1442" y="237" text-anchor="middle" font-family="DejaVu Sans" font-size="17">DR side shell ∪ DR bottom cap</text>
<text x="1442" y="262" text-anchor="middle" font-family="DejaVu Sans" font-size="15">retained 0.50 cm outer aluminium</text>
<text x="1442" y="323" text-anchor="middle" font-family="DejaVu Sans" font-size="28">∪</text>
<rect x="1210" y="350" width="465" height="75" rx="8" fill="#71828c" stroke="#40505a"/>
<text x="1442" y="382" text-anchor="middle" font-family="DejaVu Sans" font-size="17" fill="#fff">full chimney/extension outer solid</text>
<text x="1442" y="407" text-anchor="middle" font-family="DejaVu Sans" font-size="15" fill="#fff">R = 11.05 cm</text>
<text x="1442" y="470" text-anchor="middle" font-family="DejaVu Sans" font-size="28">−</text>
<rect x="1210" y="495" width="465" height="75" rx="8" fill="#fff" stroke="#c75b3b" stroke-width="3"/>
<text x="1442" y="527" text-anchor="middle" font-family="DejaVu Sans" font-size="17">open chimney branch bore</text>
<text x="1442" y="552" text-anchor="middle" font-family="DejaVu Sans" font-size="15">R = 10.75 cm</text>
<text x="1442" y="614" text-anchor="middle" font-family="DejaVu Sans" font-size="28">−</text>
<rect x="1210" y="640" width="465" height="75" rx="8" fill="#fff" stroke="#4a79b8" stroke-width="3"/>
<text x="1442" y="672" text-anchor="middle" font-family="DejaVu Sans" font-size="17">main DR vacuum cavity</text>
<text x="1442" y="697" text-anchor="middle" font-family="DejaVu Sans" font-size="15">trims branch at the curved inner surface</text>
<text x="1442" y="775" text-anchor="middle" font-family="DejaVu Sans" font-size="18" font-weight="700" fill="#2e7d32">Result: one continuous Al saddle shell</text>
<text x="1442" y="815" text-anchor="middle" font-family="DejaVu Sans" font-size="16">No frustum · no small nozzle · no plane contact</text>
<text x="1442" y="855" text-anchor="middle" font-family="DejaVu Sans" font-size="15" fill="#b71c1c">Structural/FEA and weld-process closure still pending</text>
</svg>
