<?xml version="1.0" encoding="utf-8" standalone="no"?>
<!DOCTYPE svg PUBLIC "-//W3C//DTD SVG 1.1//EN"
  "http://www.w3.org/Graphics/SVG/1.1/DTD/svg11.dtd">
<svg xmlns:xlink="http://www.w3.org/1999/xlink" width="648pt" height="360pt" viewBox="0 0 648 360" xmlns="http://www.w3.org/2000/svg" version="1.1">
 <metadata>
  <rdf:RDF xmlns:dc="http://purl.org/dc/elements/1.1/" xmlns:cc="http://creativecommons.org/ns#" xmlns:rdf="http://www.w3.org/1999/02/22-rdf-syntax-ns#">
   <cc:Work>
    <dc:type rdf:resource="http://purl.org/dc/dcmitype/StillImage"/>
    <dc:date>2026-06-12T16:51:55.635906</dc:date>
    <dc:format>image/svg+xml</dc:format>
    <dc:creator>
     <cc:Agent>
      <dc:title>Matplotlib v3.10.8, https://matplotlib.org/</dc:title>
     </cc:Agent>
    </dc:creator>
   </cc:Work>
  </rdf:RDF>
 </metadata>
 <defs>
  <style type="text/css">*{stroke-linejoin: round; stroke-linecap: butt}</style>
 </defs>
 <g id="figure_1">
  <g id="patch_1">
   <path d="M 0 360 
L 648 360 
L 648 0 
L 0 0 
z
" style="fill: #ffffff"/>
  </g>
  <g id="axes_1">
   <g id="patch_2">
    <path d="M 55.997054 325.343 
L 634.557273 325.343 
L 634.557273 26.88 
L 55.997054 26.88 
z
" style="fill: #ffffff"/>
   </g>
   <g id="matplotlib.axis_1">
    <g id="xtick_1">
     <g id="line2d_1">
      <defs>
       <path id="m531886065e" d="M 0 0 
L 0 3.5 
" style="stroke: #000000; stroke-width: 0.8"/>
      </defs>
      <g>
       <use xlink:href="#m531886065e" x="82.295246" y="325.343" style="stroke: #000000; stroke-width: 0.8"/>
      </g>
     </g>
     <g id="text_1">
      <!-- 511-CAM -->
      <g transform="translate(64.236496 338.42175) scale(0.08 -0.08)">
       <defs>
        <path id="DejaVuSans-35" d="M 691 4666 
L 3169 4666 
L 3169 4134 
L 1269 4134 
L 1269 2991 
Q 1406 3038 1543 3061 
Q 1681 3084 1819 3084 
Q 2600 3084 3056 2656 
Q 3513 2228 3513 1497 
Q 3513 744 3044 326 
Q 2575 -91 1722 -91 
Q 1428 -91 1123 -41 
Q 819 9 494 109 
L 494 744 
Q 775 591 1075 516 
Q 1375 441 1709 441 
Q 2250 441 2565 725 
Q 2881 1009 2881 1497 
Q 2881 1984 2565 2268 
Q 2250 2553 1709 2553 
Q 1456 2553 1204 2497 
Q 953 2441 691 2322 
L 691 4666 
z
" transform="scale(0.015625)"/>
        <path id="DejaVuSans-31" d="M 794 531 
L 1825 531 
L 1825 4091 
L 703 3866 
L 703 4441 
L 1819 4666 
L 2450 4666 
L 2450 531 
L 3481 531 
L 3481 0 
L 794 0 
L 794 531 
z
" transform="scale(0.015625)"/>
        <path id="DejaVuSans-2d" d="M 313 2009 
L 1997 2009 
L 1997 1497 
L 313 1497 
L 313 2009 
z
" transform="scale(0.015625)"/>
        <path id="DejaVuSans-43" d="M 4122 4306 
L 4122 3641 
Q 3803 3938 3442 4084 
Q 3081 4231 2675 4231 
Q 1875 4231 1450 3742 
Q 1025 3253 1025 2328 
Q 1025 1406 1450 917 
Q 1875 428 2675 428 
Q 3081 428 3442 575 
Q 3803 722 4122 1019 
L 4122 359 
Q 3791 134 3420 21 
Q 3050 -91 2638 -91 
Q 1578 -91 968 557 
Q 359 1206 359 2328 
Q 359 3453 968 4101 
Q 1578 4750 2638 4750 
Q 3056 4750 3426 4639 
Q 3797 4528 4122 4306 
z
" transform="scale(0.015625)"/>
        <path id="DejaVuSans-41" d="M 2188 4044 
L 1331 1722 
L 3047 1722 
L 2188 4044 
z
M 1831 4666 
L 2547 4666 
L 4325 0 
L 3669 0 
L 3244 1197 
L 1141 1197 
L 716 0 
L 50 0 
L 1831 4666 
z
" transform="scale(0.015625)"/>
        <path id="DejaVuSans-4d" d="M 628 4666 
L 1569 4666 
L 2759 1491 
L 3956 4666 
L 4897 4666 
L 4897 0 
L 4281 0 
L 4281 4097 
L 3078 897 
L 2444 897 
L 1241 4097 
L 1241 0 
L 628 0 
L 628 4666 
z
" transform="scale(0.015625)"/>
       </defs>
       <use xlink:href="#DejaVuSans-35"/>
       <use xlink:href="#DejaVuSans-31" transform="translate(63.623047 0)"/>
       <use xlink:href="#DejaVuSans-31" transform="translate(127.246094 0)"/>
       <use xlink:href="#DejaVuSans-2d" transform="translate(190.869141 0)"/>
       <use xlink:href="#DejaVuSans-43" transform="translate(226.953125 0)"/>
       <use xlink:href="#DejaVuSans-41" transform="translate(296.777344 0)"/>
       <use xlink:href="#DejaVuSans-4d" transform="translate(365.185547 0)"/>
      </g>
      <!-- Fig.11 approx -->
      <g transform="translate(55.227121 347.38) scale(0.08 -0.08)">
       <defs>
        <path id="DejaVuSans-46" d="M 628 4666 
L 3309 4666 
L 3309 4134 
L 1259 4134 
L 1259 2759 
L 3109 2759 
L 3109 2228 
L 1259 2228 
L 1259 0 
L 628 0 
L 628 4666 
z
" transform="scale(0.015625)"/>
        <path id="DejaVuSans-69" d="M 603 3500 
L 1178 3500 
L 1178 0 
L 603 0 
L 603 3500 
z
M 603 4863 
L 1178 4863 
L 1178 4134 
L 603 4134 
L 603 4863 
z
" transform="scale(0.015625)"/>
        <path id="DejaVuSans-67" d="M 2906 1791 
Q 2906 2416 2648 2759 
Q 2391 3103 1925 3103 
Q 1463 3103 1205 2759 
Q 947 2416 947 1791 
Q 947 1169 1205 825 
Q 1463 481 1925 481 
Q 2391 481 2648 825 
Q 2906 1169 2906 1791 
z
M 3481 434 
Q 3481 -459 3084 -895 
Q 2688 -1331 1869 -1331 
Q 1566 -1331 1297 -1286 
Q 1028 -1241 775 -1147 
L 775 -588 
Q 1028 -725 1275 -790 
Q 1522 -856 1778 -856 
Q 2344 -856 2625 -561 
Q 2906 -266 2906 331 
L 2906 616 
Q 2728 306 2450 153 
Q 2172 0 1784 0 
Q 1141 0 747 490 
Q 353 981 353 1791 
Q 353 2603 747 3093 
Q 1141 3584 1784 3584 
Q 2172 3584 2450 3431 
Q 2728 3278 2906 2969 
L 2906 3500 
L 3481 3500 
L 3481 434 
z
" transform="scale(0.015625)"/>
        <path id="DejaVuSans-2e" d="M 684 794 
L 1344 794 
L 1344 0 
L 684 0 
L 684 794 
z
" transform="scale(0.015625)"/>
        <path id="DejaVuSans-20" transform="scale(0.015625)"/>
        <path id="DejaVuSans-61" d="M 2194 1759 
Q 1497 1759 1228 1600 
Q 959 1441 959 1056 
Q 959 750 1161 570 
Q 1363 391 1709 391 
Q 2188 391 2477 730 
Q 2766 1069 2766 1631 
L 2766 1759 
L 2194 1759 
z
M 3341 1997 
L 3341 0 
L 2766 0 
L 2766 531 
Q 2569 213 2275 61 
Q 1981 -91 1556 -91 
Q 1019 -91 701 211 
Q 384 513 384 1019 
Q 384 1609 779 1909 
Q 1175 2209 1959 2209 
L 2766 2209 
L 2766 2266 
Q 2766 2663 2505 2880 
Q 2244 3097 1772 3097 
Q 1472 3097 1187 3025 
Q 903 2953 641 2809 
L 641 3341 
Q 956 3463 1253 3523 
Q 1550 3584 1831 3584 
Q 2591 3584 2966 3190 
Q 3341 2797 3341 1997 
z
" transform="scale(0.015625)"/>
        <path id="DejaVuSans-70" d="M 1159 525 
L 1159 -1331 
L 581 -1331 
L 581 3500 
L 1159 3500 
L 1159 2969 
Q 1341 3281 1617 3432 
Q 1894 3584 2278 3584 
Q 2916 3584 3314 3078 
Q 3713 2572 3713 1747 
Q 3713 922 3314 415 
Q 2916 -91 2278 -91 
Q 1894 -91 1617 61 
Q 1341 213 1159 525 
z
M 3116 1747 
Q 3116 2381 2855 2742 
Q 2594 3103 2138 3103 
Q 1681 3103 1420 2742 
Q 1159 2381 1159 1747 
Q 1159 1113 1420 752 
Q 1681 391 2138 391 
Q 2594 391 2855 752 
Q 3116 1113 3116 1747 
z
" transform="scale(0.015625)"/>
        <path id="DejaVuSans-72" d="M 2631 2963 
Q 2534 3019 2420 3045 
Q 2306 3072 2169 3072 
Q 1681 3072 1420 2755 
Q 1159 2438 1159 1844 
L 1159 0 
L 581 0 
L 581 3500 
L 1159 3500 
L 1159 2956 
Q 1341 3275 1631 3429 
Q 1922 3584 2338 3584 
Q 2397 3584 2469 3576 
Q 2541 3569 2628 3553 
L 2631 2963 
z
" transform="scale(0.015625)"/>
        <path id="DejaVuSans-6f" d="M 1959 3097 
Q 1497 3097 1228 2736 
Q 959 2375 959 1747 
Q 959 1119 1226 758 
Q 1494 397 1959 397 
Q 2419 397 2687 759 
Q 2956 1122 2956 1747 
Q 2956 2369 2687 2733 
Q 2419 3097 1959 3097 
z
M 1959 3584 
Q 2709 3584 3137 3096 
Q 3566 2609 3566 1747 
Q 3566 888 3137 398 
Q 2709 -91 1959 -91 
Q 1206 -91 779 398 
Q 353 888 353 1747 
Q 353 2609 779 3096 
Q 1206 3584 1959 3584 
z
" transform="scale(0.015625)"/>
        <path id="DejaVuSans-78" d="M 3513 3500 
L 2247 1797 
L 3578 0 
L 2900 0 
L 1881 1375 
L 863 0 
L 184 0 
L 1544 1831 
L 300 3500 
L 978 3500 
L 1906 2253 
L 2834 3500 
L 3513 3500 
z
" transform="scale(0.015625)"/>
       </defs>
       <use xlink:href="#DejaVuSans-46"/>
       <use xlink:href="#DejaVuSans-69" transform="translate(50.269531 0)"/>
       <use xlink:href="#DejaVuSans-67" transform="translate(78.052734 0)"/>
       <use xlink:href="#DejaVuSans-2e" transform="translate(141.529297 0)"/>
       <use xlink:href="#DejaVuSans-31" transform="translate(173.316406 0)"/>
       <use xlink:href="#DejaVuSans-31" transform="translate(236.939453 0)"/>
       <use xlink:href="#DejaVuSans-20" transform="translate(300.5625 0)"/>
       <use xlink:href="#DejaVuSans-61" transform="translate(332.349609 0)"/>
       <use xlink:href="#DejaVuSans-70" transform="translate(393.628906 0)"/>
       <use xlink:href="#DejaVuSans-70" transform="translate(457.105469 0)"/>
       <use xlink:href="#DejaVuSans-72" transform="translate(520.582031 0)"/>
       <use xlink:href="#DejaVuSans-6f" transform="translate(559.445312 0)"/>
       <use xlink:href="#DejaVuSans-78" transform="translate(617.501953 0)"/>
      </g>
     </g>
    </g>
    <g id="xtick_2">
     <g id="line2d_2">
      <g>
       <use xlink:href="#m531886065e" x="169.955885" y="325.343" style="stroke: #000000; stroke-width: 0.8"/>
      </g>
     </g>
     <g id="text_2">
      <!-- TES 511 -->
      <g transform="translate(153.539635 338.42175) scale(0.08 -0.08)">
       <defs>
        <path id="DejaVuSans-54" d="M -19 4666 
L 3928 4666 
L 3928 4134 
L 2272 4134 
L 2272 0 
L 1638 0 
L 1638 4134 
L -19 4134 
L -19 4666 
z
" transform="scale(0.015625)"/>
        <path id="DejaVuSans-45" d="M 628 4666 
L 3578 4666 
L 3578 4134 
L 1259 4134 
L 1259 2753 
L 3481 2753 
L 3481 2222 
L 1259 2222 
L 1259 531 
L 3634 531 
L 3634 0 
L 628 0 
L 628 4666 
z
" transform="scale(0.015625)"/>
        <path id="DejaVuSans-53" d="M 3425 4513 
L 3425 3897 
Q 3066 4069 2747 4153 
Q 2428 4238 2131 4238 
Q 1616 4238 1336 4038 
Q 1056 3838 1056 3469 
Q 1056 3159 1242 3001 
Q 1428 2844 1947 2747 
L 2328 2669 
Q 3034 2534 3370 2195 
Q 3706 1856 3706 1288 
Q 3706 609 3251 259 
Q 2797 -91 1919 -91 
Q 1588 -91 1214 -16 
Q 841 59 441 206 
L 441 856 
Q 825 641 1194 531 
Q 1563 422 1919 422 
Q 2459 422 2753 634 
Q 3047 847 3047 1241 
Q 3047 1584 2836 1778 
Q 2625 1972 2144 2069 
L 1759 2144 
Q 1053 2284 737 2584 
Q 422 2884 422 3419 
Q 422 4038 858 4394 
Q 1294 4750 2059 4750 
Q 2388 4750 2728 4690 
Q 3069 4631 3425 4513 
z
" transform="scale(0.015625)"/>
       </defs>
       <use xlink:href="#DejaVuSans-54"/>
       <use xlink:href="#DejaVuSans-45" transform="translate(61.083984 0)"/>
       <use xlink:href="#DejaVuSans-53" transform="translate(124.267578 0)"/>
       <use xlink:href="#DejaVuSans-20" transform="translate(187.744141 0)"/>
       <use xlink:href="#DejaVuSans-35" transform="translate(219.53125 0)"/>
       <use xlink:href="#DejaVuSans-31" transform="translate(283.154297 0)"/>
       <use xlink:href="#DejaVuSans-31" transform="translate(346.777344 0)"/>
      </g>
      <!-- delayed-only -->
      <g transform="translate(144.04526 347.38) scale(0.08 -0.08)">
       <defs>
        <path id="DejaVuSans-64" d="M 2906 2969 
L 2906 4863 
L 3481 4863 
L 3481 0 
L 2906 0 
L 2906 525 
Q 2725 213 2448 61 
Q 2172 -91 1784 -91 
Q 1150 -91 751 415 
Q 353 922 353 1747 
Q 353 2572 751 3078 
Q 1150 3584 1784 3584 
Q 2172 3584 2448 3432 
Q 2725 3281 2906 2969 
z
M 947 1747 
Q 947 1113 1208 752 
Q 1469 391 1925 391 
Q 2381 391 2643 752 
Q 2906 1113 2906 1747 
Q 2906 2381 2643 2742 
Q 2381 3103 1925 3103 
Q 1469 3103 1208 2742 
Q 947 2381 947 1747 
z
" transform="scale(0.015625)"/>
        <path id="DejaVuSans-65" d="M 3597 1894 
L 3597 1613 
L 953 1613 
Q 991 1019 1311 708 
Q 1631 397 2203 397 
Q 2534 397 2845 478 
Q 3156 559 3463 722 
L 3463 178 
Q 3153 47 2828 -22 
Q 2503 -91 2169 -91 
Q 1331 -91 842 396 
Q 353 884 353 1716 
Q 353 2575 817 3079 
Q 1281 3584 2069 3584 
Q 2775 3584 3186 3129 
Q 3597 2675 3597 1894 
z
M 3022 2063 
Q 3016 2534 2758 2815 
Q 2500 3097 2075 3097 
Q 1594 3097 1305 2825 
Q 1016 2553 972 2059 
L 3022 2063 
z
" transform="scale(0.015625)"/>
        <path id="DejaVuSans-6c" d="M 603 4863 
L 1178 4863 
L 1178 0 
L 603 0 
L 603 4863 
z
" transform="scale(0.015625)"/>
        <path id="DejaVuSans-79" d="M 2059 -325 
Q 1816 -950 1584 -1140 
Q 1353 -1331 966 -1331 
L 506 -1331 
L 506 -850 
L 844 -850 
Q 1081 -850 1212 -737 
Q 1344 -625 1503 -206 
L 1606 56 
L 191 3500 
L 800 3500 
L 1894 763 
L 2988 3500 
L 3597 3500 
L 2059 -325 
z
" transform="scale(0.015625)"/>
        <path id="DejaVuSans-6e" d="M 3513 2113 
L 3513 0 
L 2938 0 
L 2938 2094 
Q 2938 2591 2744 2837 
Q 2550 3084 2163 3084 
Q 1697 3084 1428 2787 
Q 1159 2491 1159 1978 
L 1159 0 
L 581 0 
L 581 3500 
L 1159 3500 
L 1159 2956 
Q 1366 3272 1645 3428 
Q 1925 3584 2291 3584 
Q 2894 3584 3203 3211 
Q 3513 2838 3513 2113 
z
" transform="scale(0.015625)"/>
       </defs>
       <use xlink:href="#DejaVuSans-64"/>
       <use xlink:href="#DejaVuSans-65" transform="translate(63.476562 0)"/>
       <use xlink:href="#DejaVuSans-6c" transform="translate(125 0)"/>
       <use xlink:href="#DejaVuSans-61" transform="translate(152.783203 0)"/>
       <use xlink:href="#DejaVuSans-79" transform="translate(214.0625 0)"/>
       <use xlink:href="#DejaVuSans-65" transform="translate(273.242188 0)"/>
       <use xlink:href="#DejaVuSans-64" transform="translate(334.765625 0)"/>
       <use xlink:href="#DejaVuSans-2d" transform="translate(398.242188 0)"/>
       <use xlink:href="#DejaVuSans-6f" transform="translate(436.201172 0)"/>
       <use xlink:href="#DejaVuSans-6e" transform="translate(497.382812 0)"/>
       <use xlink:href="#DejaVuSans-6c" transform="translate(560.761719 0)"/>
       <use xlink:href="#DejaVuSans-79" transform="translate(588.544922 0)"/>
      </g>
     </g>
    </g>
    <g id="xtick_3">
     <g id="line2d_3">
      <g>
       <use xlink:href="#m531886065e" x="257.616524" y="325.343" style="stroke: #000000; stroke-width: 0.8"/>
      </g>
     </g>
     <g id="text_3">
      <!-- SPI -->
      <g transform="translate(251.485274 338.42175) scale(0.08 -0.08)">
       <defs>
        <path id="DejaVuSans-50" d="M 1259 4147 
L 1259 2394 
L 2053 2394 
Q 2494 2394 2734 2622 
Q 2975 2850 2975 3272 
Q 2975 3691 2734 3919 
Q 2494 4147 2053 4147 
L 1259 4147 
z
M 628 4666 
L 2053 4666 
Q 2838 4666 3239 4311 
Q 3641 3956 3641 3272 
Q 3641 2581 3239 2228 
Q 2838 1875 2053 1875 
L 1259 1875 
L 1259 0 
L 628 0 
L 628 4666 
z
" transform="scale(0.015625)"/>
        <path id="DejaVuSans-49" d="M 628 4666 
L 1259 4666 
L 1259 0 
L 628 0 
L 628 4666 
z
" transform="scale(0.015625)"/>
       </defs>
       <use xlink:href="#DejaVuSans-53"/>
       <use xlink:href="#DejaVuSans-50" transform="translate(63.476562 0)"/>
       <use xlink:href="#DejaVuSans-49" transform="translate(123.779297 0)"/>
      </g>
      <!-- manual -->
      <g transform="translate(242.636524 347.38) scale(0.08 -0.08)">
       <defs>
        <path id="DejaVuSans-6d" d="M 3328 2828 
Q 3544 3216 3844 3400 
Q 4144 3584 4550 3584 
Q 5097 3584 5394 3201 
Q 5691 2819 5691 2113 
L 5691 0 
L 5113 0 
L 5113 2094 
Q 5113 2597 4934 2840 
Q 4756 3084 4391 3084 
Q 3944 3084 3684 2787 
Q 3425 2491 3425 1978 
L 3425 0 
L 2847 0 
L 2847 2094 
Q 2847 2600 2669 2842 
Q 2491 3084 2119 3084 
Q 1678 3084 1418 2786 
Q 1159 2488 1159 1978 
L 1159 0 
L 581 0 
L 581 3500 
L 1159 3500 
L 1159 2956 
Q 1356 3278 1631 3431 
Q 1906 3584 2284 3584 
Q 2666 3584 2933 3390 
Q 3200 3197 3328 2828 
z
" transform="scale(0.015625)"/>
        <path id="DejaVuSans-75" d="M 544 1381 
L 544 3500 
L 1119 3500 
L 1119 1403 
Q 1119 906 1312 657 
Q 1506 409 1894 409 
Q 2359 409 2629 706 
Q 2900 1003 2900 1516 
L 2900 3500 
L 3475 3500 
L 3475 0 
L 2900 0 
L 2900 538 
Q 2691 219 2414 64 
Q 2138 -91 1772 -91 
Q 1169 -91 856 284 
Q 544 659 544 1381 
z
M 1991 3584 
L 1991 3584 
z
" transform="scale(0.015625)"/>
       </defs>
       <use xlink:href="#DejaVuSans-6d"/>
       <use xlink:href="#DejaVuSans-61" transform="translate(97.412109 0)"/>
       <use xlink:href="#DejaVuSans-6e" transform="translate(158.691406 0)"/>
       <use xlink:href="#DejaVuSans-75" transform="translate(222.070312 0)"/>
       <use xlink:href="#DejaVuSans-61" transform="translate(285.449219 0)"/>
       <use xlink:href="#DejaVuSans-6c" transform="translate(346.728516 0)"/>
      </g>
     </g>
    </g>
    <g id="xtick_4">
     <g id="line2d_4">
      <g>
       <use xlink:href="#m531886065e" x="345.277163" y="325.343" style="stroke: #000000; stroke-width: 0.8"/>
      </g>
     </g>
     <g id="text_4">
      <!-- TES 511 -->
      <g transform="translate(328.860913 338.42175) scale(0.08 -0.08)">
       <use xlink:href="#DejaVuSans-54"/>
       <use xlink:href="#DejaVuSans-45" transform="translate(61.083984 0)"/>
       <use xlink:href="#DejaVuSans-53" transform="translate(124.267578 0)"/>
       <use xlink:href="#DejaVuSans-20" transform="translate(187.744141 0)"/>
       <use xlink:href="#DejaVuSans-35" transform="translate(219.53125 0)"/>
       <use xlink:href="#DejaVuSans-31" transform="translate(283.154297 0)"/>
       <use xlink:href="#DejaVuSans-31" transform="translate(346.777344 0)"/>
      </g>
      <!-- current W2 -->
      <g transform="translate(323.078413 347.38) scale(0.08 -0.08)">
       <defs>
        <path id="DejaVuSans-63" d="M 3122 3366 
L 3122 2828 
Q 2878 2963 2633 3030 
Q 2388 3097 2138 3097 
Q 1578 3097 1268 2742 
Q 959 2388 959 1747 
Q 959 1106 1268 751 
Q 1578 397 2138 397 
Q 2388 397 2633 464 
Q 2878 531 3122 666 
L 3122 134 
Q 2881 22 2623 -34 
Q 2366 -91 2075 -91 
Q 1284 -91 818 406 
Q 353 903 353 1747 
Q 353 2603 823 3093 
Q 1294 3584 2113 3584 
Q 2378 3584 2631 3529 
Q 2884 3475 3122 3366 
z
" transform="scale(0.015625)"/>
        <path id="DejaVuSans-74" d="M 1172 4494 
L 1172 3500 
L 2356 3500 
L 2356 3053 
L 1172 3053 
L 1172 1153 
Q 1172 725 1289 603 
Q 1406 481 1766 481 
L 2356 481 
L 2356 0 
L 1766 0 
Q 1100 0 847 248 
Q 594 497 594 1153 
L 594 3053 
L 172 3053 
L 172 3500 
L 594 3500 
L 594 4494 
L 1172 4494 
z
" transform="scale(0.015625)"/>
        <path id="DejaVuSans-57" d="M 213 4666 
L 850 4666 
L 1831 722 
L 2809 4666 
L 3519 4666 
L 4500 722 
L 5478 4666 
L 6119 4666 
L 4947 0 
L 4153 0 
L 3169 4050 
L 2175 0 
L 1381 0 
L 213 4666 
z
" transform="scale(0.015625)"/>
        <path id="DejaVuSans-32" d="M 1228 531 
L 3431 531 
L 3431 0 
L 469 0 
L 469 531 
Q 828 903 1448 1529 
Q 2069 2156 2228 2338 
Q 2531 2678 2651 2914 
Q 2772 3150 2772 3378 
Q 2772 3750 2511 3984 
Q 2250 4219 1831 4219 
Q 1534 4219 1204 4116 
Q 875 4013 500 3803 
L 500 4441 
Q 881 4594 1212 4672 
Q 1544 4750 1819 4750 
Q 2544 4750 2975 4387 
Q 3406 4025 3406 3419 
Q 3406 3131 3298 2873 
Q 3191 2616 2906 2266 
Q 2828 2175 2409 1742 
Q 1991 1309 1228 531 
z
" transform="scale(0.015625)"/>
       </defs>
       <use xlink:href="#DejaVuSans-63"/>
       <use xlink:href="#DejaVuSans-75" transform="translate(54.980469 0)"/>
       <use xlink:href="#DejaVuSans-72" transform="translate(118.359375 0)"/>
       <use xlink:href="#DejaVuSans-72" transform="translate(157.722656 0)"/>
       <use xlink:href="#DejaVuSans-65" transform="translate(196.585938 0)"/>
       <use xlink:href="#DejaVuSans-6e" transform="translate(258.109375 0)"/>
       <use xlink:href="#DejaVuSans-74" transform="translate(321.488281 0)"/>
       <use xlink:href="#DejaVuSans-20" transform="translate(360.697266 0)"/>
       <use xlink:href="#DejaVuSans-57" transform="translate(392.484375 0)"/>
       <use xlink:href="#DejaVuSans-32" transform="translate(491.361328 0)"/>
      </g>
     </g>
    </g>
    <g id="xtick_5">
     <g id="line2d_5">
      <g>
       <use xlink:href="#m531886065e" x="432.937803" y="325.343" style="stroke: #000000; stroke-width: 0.8"/>
      </g>
     </g>
     <g id="text_5">
      <!-- old_geo -->
      <g transform="translate(417.391553 338.42175) scale(0.08 -0.08)">
       <defs>
        <path id="DejaVuSans-5f" d="M 3263 -1063 
L 3263 -1509 
L -63 -1509 
L -63 -1063 
L 3263 -1063 
z
" transform="scale(0.015625)"/>
       </defs>
       <use xlink:href="#DejaVuSans-6f"/>
       <use xlink:href="#DejaVuSans-6c" transform="translate(61.181641 0)"/>
       <use xlink:href="#DejaVuSans-64" transform="translate(88.964844 0)"/>
       <use xlink:href="#DejaVuSans-5f" transform="translate(152.441406 0)"/>
       <use xlink:href="#DejaVuSans-67" transform="translate(202.441406 0)"/>
       <use xlink:href="#DejaVuSans-65" transform="translate(265.917969 0)"/>
       <use xlink:href="#DejaVuSans-6f" transform="translate(327.441406 0)"/>
      </g>
      <!-- W2 spot_r90 -->
      <g transform="translate(407.793428 347.6025) scale(0.08 -0.08)">
       <defs>
        <path id="DejaVuSans-73" d="M 2834 3397 
L 2834 2853 
Q 2591 2978 2328 3040 
Q 2066 3103 1784 3103 
Q 1356 3103 1142 2972 
Q 928 2841 928 2578 
Q 928 2378 1081 2264 
Q 1234 2150 1697 2047 
L 1894 2003 
Q 2506 1872 2764 1633 
Q 3022 1394 3022 966 
Q 3022 478 2636 193 
Q 2250 -91 1575 -91 
Q 1294 -91 989 -36 
Q 684 19 347 128 
L 347 722 
Q 666 556 975 473 
Q 1284 391 1588 391 
Q 1994 391 2212 530 
Q 2431 669 2431 922 
Q 2431 1156 2273 1281 
Q 2116 1406 1581 1522 
L 1381 1569 
Q 847 1681 609 1914 
Q 372 2147 372 2553 
Q 372 3047 722 3315 
Q 1072 3584 1716 3584 
Q 2034 3584 2315 3537 
Q 2597 3491 2834 3397 
z
" transform="scale(0.015625)"/>
        <path id="DejaVuSans-39" d="M 703 97 
L 703 672 
Q 941 559 1184 500 
Q 1428 441 1663 441 
Q 2288 441 2617 861 
Q 2947 1281 2994 2138 
Q 2813 1869 2534 1725 
Q 2256 1581 1919 1581 
Q 1219 1581 811 2004 
Q 403 2428 403 3163 
Q 403 3881 828 4315 
Q 1253 4750 1959 4750 
Q 2769 4750 3195 4129 
Q 3622 3509 3622 2328 
Q 3622 1225 3098 567 
Q 2575 -91 1691 -91 
Q 1453 -91 1209 -44 
Q 966 3 703 97 
z
M 1959 2075 
Q 2384 2075 2632 2365 
Q 2881 2656 2881 3163 
Q 2881 3666 2632 3958 
Q 2384 4250 1959 4250 
Q 1534 4250 1286 3958 
Q 1038 3666 1038 3163 
Q 1038 2656 1286 2365 
Q 1534 2075 1959 2075 
z
" transform="scale(0.015625)"/>
        <path id="DejaVuSans-30" d="M 2034 4250 
Q 1547 4250 1301 3770 
Q 1056 3291 1056 2328 
Q 1056 1369 1301 889 
Q 1547 409 2034 409 
Q 2525 409 2770 889 
Q 3016 1369 3016 2328 
Q 3016 3291 2770 3770 
Q 2525 4250 2034 4250 
z
M 2034 4750 
Q 2819 4750 3233 4129 
Q 3647 3509 3647 2328 
Q 3647 1150 3233 529 
Q 2819 -91 2034 -91 
Q 1250 -91 836 529 
Q 422 1150 422 2328 
Q 422 3509 836 4129 
Q 1250 4750 2034 4750 
z
" transform="scale(0.015625)"/>
       </defs>
       <use xlink:href="#DejaVuSans-57"/>
       <use xlink:href="#DejaVuSans-32" transform="translate(98.876953 0)"/>
       <use xlink:href="#DejaVuSans-20" transform="translate(162.5 0)"/>
       <use xlink:href="#DejaVuSans-73" transform="translate(194.287109 0)"/>
       <use xlink:href="#DejaVuSans-70" transform="translate(246.386719 0)"/>
       <use xlink:href="#DejaVuSans-6f" transform="translate(309.863281 0)"/>
       <use xlink:href="#DejaVuSans-74" transform="translate(371.044922 0)"/>
       <use xlink:href="#DejaVuSans-5f" transform="translate(410.253906 0)"/>
       <use xlink:href="#DejaVuSans-72" transform="translate(460.253906 0)"/>
       <use xlink:href="#DejaVuSans-39" transform="translate(501.367188 0)"/>
       <use xlink:href="#DejaVuSans-30" transform="translate(564.990234 0)"/>
      </g>
     </g>
    </g>
    <g id="xtick_6">
     <g id="line2d_6">
      <g>
       <use xlink:href="#m531886065e" x="520.598442" y="325.343" style="stroke: #000000; stroke-width: 0.8"/>
      </g>
     </g>
     <g id="text_6">
      <!-- COSI -->
      <g transform="translate(510.937192 338.42175) scale(0.08 -0.08)">
       <defs>
        <path id="DejaVuSans-4f" d="M 2522 4238 
Q 1834 4238 1429 3725 
Q 1025 3213 1025 2328 
Q 1025 1447 1429 934 
Q 1834 422 2522 422 
Q 3209 422 3611 934 
Q 4013 1447 4013 2328 
Q 4013 3213 3611 3725 
Q 3209 4238 2522 4238 
z
M 2522 4750 
Q 3503 4750 4090 4092 
Q 4678 3434 4678 2328 
Q 4678 1225 4090 567 
Q 3503 -91 2522 -91 
Q 1538 -91 948 565 
Q 359 1222 359 2328 
Q 359 3434 948 4092 
Q 1538 4750 2522 4750 
z
" transform="scale(0.015625)"/>
       </defs>
       <use xlink:href="#DejaVuSans-43"/>
       <use xlink:href="#DejaVuSans-4f" transform="translate(69.824219 0)"/>
       <use xlink:href="#DejaVuSans-53" transform="translate(148.535156 0)"/>
       <use xlink:href="#DejaVuSans-49" transform="translate(212.011719 0)"/>
      </g>
      <!-- satellite -->
      <g transform="translate(504.670942 347.38) scale(0.08 -0.08)">
       <use xlink:href="#DejaVuSans-73"/>
       <use xlink:href="#DejaVuSans-61" transform="translate(52.099609 0)"/>
       <use xlink:href="#DejaVuSans-74" transform="translate(113.378906 0)"/>
       <use xlink:href="#DejaVuSans-65" transform="translate(152.587891 0)"/>
       <use xlink:href="#DejaVuSans-6c" transform="translate(214.111328 0)"/>
       <use xlink:href="#DejaVuSans-6c" transform="translate(241.894531 0)"/>
       <use xlink:href="#DejaVuSans-69" transform="translate(269.677734 0)"/>
       <use xlink:href="#DejaVuSans-74" transform="translate(297.460938 0)"/>
       <use xlink:href="#DejaVuSans-65" transform="translate(336.669922 0)"/>
      </g>
     </g>
    </g>
    <g id="xtick_7">
     <g id="line2d_7">
      <g>
       <use xlink:href="#m531886065e" x="608.259081" y="325.343" style="stroke: #000000; stroke-width: 0.8"/>
      </g>
     </g>
     <g id="text_7">
      <!-- COSI -->
      <g transform="translate(598.597831 338.42175) scale(0.08 -0.08)">
       <use xlink:href="#DejaVuSans-43"/>
       <use xlink:href="#DejaVuSans-4f" transform="translate(69.824219 0)"/>
       <use xlink:href="#DejaVuSans-53" transform="translate(148.535156 0)"/>
       <use xlink:href="#DejaVuSans-49" transform="translate(212.011719 0)"/>
      </g>
      <!-- balloon -->
      <g transform="translate(593.615956 347.38) scale(0.08 -0.08)">
       <defs>
        <path id="DejaVuSans-62" d="M 3116 1747 
Q 3116 2381 2855 2742 
Q 2594 3103 2138 3103 
Q 1681 3103 1420 2742 
Q 1159 2381 1159 1747 
Q 1159 1113 1420 752 
Q 1681 391 2138 391 
Q 2594 391 2855 752 
Q 3116 1113 3116 1747 
z
M 1159 2969 
Q 1341 3281 1617 3432 
Q 1894 3584 2278 3584 
Q 2916 3584 3314 3078 
Q 3713 2572 3713 1747 
Q 3713 922 3314 415 
Q 2916 -91 2278 -91 
Q 1894 -91 1617 61 
Q 1341 213 1159 525 
L 1159 0 
L 581 0 
L 581 4863 
L 1159 4863 
L 1159 2969 
z
" transform="scale(0.015625)"/>
       </defs>
       <use xlink:href="#DejaVuSans-62"/>
       <use xlink:href="#DejaVuSans-61" transform="translate(63.476562 0)"/>
       <use xlink:href="#DejaVuSans-6c" transform="translate(124.755859 0)"/>
       <use xlink:href="#DejaVuSans-6c" transform="translate(152.539062 0)"/>
       <use xlink:href="#DejaVuSans-6f" transform="translate(180.322266 0)"/>
       <use xlink:href="#DejaVuSans-6f" transform="translate(241.503906 0)"/>
       <use xlink:href="#DejaVuSans-6e" transform="translate(302.685547 0)"/>
      </g>
     </g>
    </g>
   </g>
   <g id="matplotlib.axis_2">
    <g id="ytick_1">
     <g id="line2d_8">
      <path d="M 55.997054 264.131819 
L 634.557273 264.131819 
" clip-path="url(#p4bff27fb03)" style="fill: none; stroke: #b0b0b0; stroke-opacity: 0.25; stroke-width: 0.8; stroke-linecap: square"/>
     </g>
     <g id="line2d_9">
      <defs>
       <path id="mc0862be140" d="M 0 0 
L -3.5 0 
" style="stroke: #000000; stroke-width: 0.8"/>
      </defs>
      <g>
       <use xlink:href="#mc0862be140" x="55.997054" y="264.131819" style="stroke: #000000; stroke-width: 0.8"/>
      </g>
     </g>
     <g id="text_8">
      <!-- $\mathdefault{10^{-5}}$ -->
      <g transform="translate(25.497054 267.931038) scale(0.1 -0.1)">
       <defs>
        <path id="DejaVuSans-2212" d="M 678 2272 
L 4684 2272 
L 4684 1741 
L 678 1741 
L 678 2272 
z
" transform="scale(0.015625)"/>
       </defs>
       <use xlink:href="#DejaVuSans-31" transform="translate(0 0.684375)"/>
       <use xlink:href="#DejaVuSans-30" transform="translate(63.623047 0.684375)"/>
       <use xlink:href="#DejaVuSans-2212" transform="translate(128.203125 38.965625) scale(0.7)"/>
       <use xlink:href="#DejaVuSans-35" transform="translate(186.855469 38.965625) scale(0.7)"/>
      </g>
     </g>
    </g>
    <g id="ytick_2">
     <g id="line2d_10">
      <path d="M 55.997054 173.011878 
L 634.557273 173.011878 
" clip-path="url(#p4bff27fb03)" style="fill: none; stroke: #b0b0b0; stroke-opacity: 0.25; stroke-width: 0.8; stroke-linecap: square"/>
     </g>
     <g id="line2d_11">
      <g>
       <use xlink:href="#mc0862be140" x="55.997054" y="173.011878" style="stroke: #000000; stroke-width: 0.8"/>
      </g>
     </g>
     <g id="text_9">
      <!-- $\mathdefault{10^{-4}}$ -->
      <g transform="translate(25.497054 176.811097) scale(0.1 -0.1)">
       <defs>
        <path id="DejaVuSans-34" d="M 2419 4116 
L 825 1625 
L 2419 1625 
L 2419 4116 
z
M 2253 4666 
L 3047 4666 
L 3047 1625 
L 3713 1625 
L 3713 1100 
L 3047 1100 
L 3047 0 
L 2419 0 
L 2419 1100 
L 313 1100 
L 313 1709 
L 2253 4666 
z
" transform="scale(0.015625)"/>
       </defs>
       <use xlink:href="#DejaVuSans-31" transform="translate(0 0.684375)"/>
       <use xlink:href="#DejaVuSans-30" transform="translate(63.623047 0.684375)"/>
       <use xlink:href="#DejaVuSans-2212" transform="translate(128.203125 38.965625) scale(0.7)"/>
       <use xlink:href="#DejaVuSans-34" transform="translate(186.855469 38.965625) scale(0.7)"/>
      </g>
     </g>
    </g>
    <g id="ytick_3">
     <g id="line2d_12">
      <path d="M 55.997054 81.891937 
L 634.557273 81.891937 
" clip-path="url(#p4bff27fb03)" style="fill: none; stroke: #b0b0b0; stroke-opacity: 0.25; stroke-width: 0.8; stroke-linecap: square"/>
     </g>
     <g id="line2d_13">
      <g>
       <use xlink:href="#mc0862be140" x="55.997054" y="81.891937" style="stroke: #000000; stroke-width: 0.8"/>
      </g>
     </g>
     <g id="text_10">
      <!-- $\mathdefault{10^{-3}}$ -->
      <g transform="translate(25.497054 85.691156) scale(0.1 -0.1)">
       <defs>
        <path id="DejaVuSans-33" d="M 2597 2516 
Q 3050 2419 3304 2112 
Q 3559 1806 3559 1356 
Q 3559 666 3084 287 
Q 2609 -91 1734 -91 
Q 1441 -91 1130 -33 
Q 819 25 488 141 
L 488 750 
Q 750 597 1062 519 
Q 1375 441 1716 441 
Q 2309 441 2620 675 
Q 2931 909 2931 1356 
Q 2931 1769 2642 2001 
Q 2353 2234 1838 2234 
L 1294 2234 
L 1294 2753 
L 1863 2753 
Q 2328 2753 2575 2939 
Q 2822 3125 2822 3475 
Q 2822 3834 2567 4026 
Q 2313 4219 1838 4219 
Q 1578 4219 1281 4162 
Q 984 4106 628 3988 
L 628 4550 
Q 988 4650 1302 4700 
Q 1616 4750 1894 4750 
Q 2613 4750 3031 4423 
Q 3450 4097 3450 3541 
Q 3450 3153 3228 2886 
Q 3006 2619 2597 2516 
z
" transform="scale(0.015625)"/>
       </defs>
       <use xlink:href="#DejaVuSans-31" transform="translate(0 0.765625)"/>
       <use xlink:href="#DejaVuSans-30" transform="translate(63.623047 0.765625)"/>
       <use xlink:href="#DejaVuSans-2212" transform="translate(128.203125 39.046875) scale(0.7)"/>
       <use xlink:href="#DejaVuSans-33" transform="translate(186.855469 39.046875) scale(0.7)"/>
      </g>
     </g>
    </g>
    <g id="ytick_4">
     <g id="line2d_14">
      <path d="M 55.997054 311.7765 
L 634.557273 311.7765 
" clip-path="url(#p4bff27fb03)" style="fill: none; stroke: #b0b0b0; stroke-opacity: 0.25; stroke-width: 0.8; stroke-linecap: square"/>
     </g>
     <g id="line2d_15">
      <defs>
       <path id="m343275408a" d="M 0 0 
L -2 0 
" style="stroke: #000000; stroke-width: 0.6"/>
      </defs>
      <g>
       <use xlink:href="#m343275408a" x="55.997054" y="311.7765" style="stroke: #000000; stroke-width: 0.6"/>
      </g>
     </g>
    </g>
    <g id="ytick_5">
     <g id="line2d_16">
      <path d="M 55.997054 300.39209 
L 634.557273 300.39209 
" clip-path="url(#p4bff27fb03)" style="fill: none; stroke: #b0b0b0; stroke-opacity: 0.25; stroke-width: 0.8; stroke-linecap: square"/>
     </g>
     <g id="line2d_17">
      <g>
       <use xlink:href="#m343275408a" x="55.997054" y="300.39209" style="stroke: #000000; stroke-width: 0.6"/>
      </g>
     </g>
    </g>
    <g id="ytick_6">
     <g id="line2d_18">
      <path d="M 55.997054 291.561655 
L 634.557273 291.561655 
" clip-path="url(#p4bff27fb03)" style="fill: none; stroke: #b0b0b0; stroke-opacity: 0.25; stroke-width: 0.8; stroke-linecap: square"/>
     </g>
     <g id="line2d_19">
      <g>
       <use xlink:href="#m343275408a" x="55.997054" y="291.561655" style="stroke: #000000; stroke-width: 0.6"/>
      </g>
     </g>
    </g>
    <g id="ytick_7">
     <g id="line2d_20">
      <path d="M 55.997054 284.346664 
L 634.557273 284.346664 
" clip-path="url(#p4bff27fb03)" style="fill: none; stroke: #b0b0b0; stroke-opacity: 0.25; stroke-width: 0.8; stroke-linecap: square"/>
     </g>
     <g id="line2d_21">
      <g>
       <use xlink:href="#m343275408a" x="55.997054" y="284.346664" style="stroke: #000000; stroke-width: 0.6"/>
      </g>
     </g>
    </g>
    <g id="ytick_8">
     <g id="line2d_22">
      <path d="M 55.997054 278.246477 
L 634.557273 278.246477 
" clip-path="url(#p4bff27fb03)" style="fill: none; stroke: #b0b0b0; stroke-opacity: 0.25; stroke-width: 0.8; stroke-linecap: square"/>
     </g>
     <g id="line2d_23">
      <g>
       <use xlink:href="#m343275408a" x="55.997054" y="278.246477" style="stroke: #000000; stroke-width: 0.6"/>
      </g>
     </g>
    </g>
    <g id="ytick_9">
     <g id="line2d_24">
      <path d="M 55.997054 272.962254 
L 634.557273 272.962254 
" clip-path="url(#p4bff27fb03)" style="fill: none; stroke: #b0b0b0; stroke-opacity: 0.25; stroke-width: 0.8; stroke-linecap: square"/>
     </g>
     <g id="line2d_25">
      <g>
       <use xlink:href="#m343275408a" x="55.997054" y="272.962254" style="stroke: #000000; stroke-width: 0.6"/>
      </g>
     </g>
    </g>
    <g id="ytick_10">
     <g id="line2d_26">
      <path d="M 55.997054 268.301239 
L 634.557273 268.301239 
" clip-path="url(#p4bff27fb03)" style="fill: none; stroke: #b0b0b0; stroke-opacity: 0.25; stroke-width: 0.8; stroke-linecap: square"/>
     </g>
     <g id="line2d_27">
      <g>
       <use xlink:href="#m343275408a" x="55.997054" y="268.301239" style="stroke: #000000; stroke-width: 0.6"/>
      </g>
     </g>
    </g>
    <g id="ytick_11">
     <g id="line2d_28">
      <path d="M 55.997054 236.701984 
L 634.557273 236.701984 
" clip-path="url(#p4bff27fb03)" style="fill: none; stroke: #b0b0b0; stroke-opacity: 0.25; stroke-width: 0.8; stroke-linecap: square"/>
     </g>
     <g id="line2d_29">
      <g>
       <use xlink:href="#m343275408a" x="55.997054" y="236.701984" style="stroke: #000000; stroke-width: 0.6"/>
      </g>
     </g>
    </g>
    <g id="ytick_12">
     <g id="line2d_30">
      <path d="M 55.997054 220.656559 
L 634.557273 220.656559 
" clip-path="url(#p4bff27fb03)" style="fill: none; stroke: #b0b0b0; stroke-opacity: 0.25; stroke-width: 0.8; stroke-linecap: square"/>
     </g>
     <g id="line2d_31">
      <g>
       <use xlink:href="#m343275408a" x="55.997054" y="220.656559" style="stroke: #000000; stroke-width: 0.6"/>
      </g>
     </g>
    </g>
    <g id="ytick_13">
     <g id="line2d_32">
      <path d="M 55.997054 209.272148 
L 634.557273 209.272148 
" clip-path="url(#p4bff27fb03)" style="fill: none; stroke: #b0b0b0; stroke-opacity: 0.25; stroke-width: 0.8; stroke-linecap: square"/>
     </g>
     <g id="line2d_33">
      <g>
       <use xlink:href="#m343275408a" x="55.997054" y="209.272148" style="stroke: #000000; stroke-width: 0.6"/>
      </g>
     </g>
    </g>
    <g id="ytick_14">
     <g id="line2d_34">
      <path d="M 55.997054 200.441714 
L 634.557273 200.441714 
" clip-path="url(#p4bff27fb03)" style="fill: none; stroke: #b0b0b0; stroke-opacity: 0.25; stroke-width: 0.8; stroke-linecap: square"/>
     </g>
     <g id="line2d_35">
      <g>
       <use xlink:href="#m343275408a" x="55.997054" y="200.441714" style="stroke: #000000; stroke-width: 0.6"/>
      </g>
     </g>
    </g>
    <g id="ytick_15">
     <g id="line2d_36">
      <path d="M 55.997054 193.226723 
L 634.557273 193.226723 
" clip-path="url(#p4bff27fb03)" style="fill: none; stroke: #b0b0b0; stroke-opacity: 0.25; stroke-width: 0.8; stroke-linecap: square"/>
     </g>
     <g id="line2d_37">
      <g>
       <use xlink:href="#m343275408a" x="55.997054" y="193.226723" style="stroke: #000000; stroke-width: 0.6"/>
      </g>
     </g>
    </g>
    <g id="ytick_16">
     <g id="line2d_38">
      <path d="M 55.997054 187.126536 
L 634.557273 187.126536 
" clip-path="url(#p4bff27fb03)" style="fill: none; stroke: #b0b0b0; stroke-opacity: 0.25; stroke-width: 0.8; stroke-linecap: square"/>
     </g>
     <g id="line2d_39">
      <g>
       <use xlink:href="#m343275408a" x="55.997054" y="187.126536" style="stroke: #000000; stroke-width: 0.6"/>
      </g>
     </g>
    </g>
    <g id="ytick_17">
     <g id="line2d_40">
      <path d="M 55.997054 181.842313 
L 634.557273 181.842313 
" clip-path="url(#p4bff27fb03)" style="fill: none; stroke: #b0b0b0; stroke-opacity: 0.25; stroke-width: 0.8; stroke-linecap: square"/>
     </g>
     <g id="line2d_41">
      <g>
       <use xlink:href="#m343275408a" x="55.997054" y="181.842313" style="stroke: #000000; stroke-width: 0.6"/>
      </g>
     </g>
    </g>
    <g id="ytick_18">
     <g id="line2d_42">
      <path d="M 55.997054 177.181298 
L 634.557273 177.181298 
" clip-path="url(#p4bff27fb03)" style="fill: none; stroke: #b0b0b0; stroke-opacity: 0.25; stroke-width: 0.8; stroke-linecap: square"/>
     </g>
     <g id="line2d_43">
      <g>
       <use xlink:href="#m343275408a" x="55.997054" y="177.181298" style="stroke: #000000; stroke-width: 0.6"/>
      </g>
     </g>
    </g>
    <g id="ytick_19">
     <g id="line2d_44">
      <path d="M 55.997054 145.582043 
L 634.557273 145.582043 
" clip-path="url(#p4bff27fb03)" style="fill: none; stroke: #b0b0b0; stroke-opacity: 0.25; stroke-width: 0.8; stroke-linecap: square"/>
     </g>
     <g id="line2d_45">
      <g>
       <use xlink:href="#m343275408a" x="55.997054" y="145.582043" style="stroke: #000000; stroke-width: 0.6"/>
      </g>
     </g>
    </g>
    <g id="ytick_20">
     <g id="line2d_46">
      <path d="M 55.997054 129.536617 
L 634.557273 129.536617 
" clip-path="url(#p4bff27fb03)" style="fill: none; stroke: #b0b0b0; stroke-opacity: 0.25; stroke-width: 0.8; stroke-linecap: square"/>
     </g>
     <g id="line2d_47">
      <g>
       <use xlink:href="#m343275408a" x="55.997054" y="129.536617" style="stroke: #000000; stroke-width: 0.6"/>
      </g>
     </g>
    </g>
    <g id="ytick_21">
     <g id="line2d_48">
      <path d="M 55.997054 118.152207 
L 634.557273 118.152207 
" clip-path="url(#p4bff27fb03)" style="fill: none; stroke: #b0b0b0; stroke-opacity: 0.25; stroke-width: 0.8; stroke-linecap: square"/>
     </g>
     <g id="line2d_49">
      <g>
       <use xlink:href="#m343275408a" x="55.997054" y="118.152207" style="stroke: #000000; stroke-width: 0.6"/>
      </g>
     </g>
    </g>
    <g id="ytick_22">
     <g id="line2d_50">
      <path d="M 55.997054 109.321772 
L 634.557273 109.321772 
" clip-path="url(#p4bff27fb03)" style="fill: none; stroke: #b0b0b0; stroke-opacity: 0.25; stroke-width: 0.8; stroke-linecap: square"/>
     </g>
     <g id="line2d_51">
      <g>
       <use xlink:href="#m343275408a" x="55.997054" y="109.321772" style="stroke: #000000; stroke-width: 0.6"/>
      </g>
     </g>
    </g>
    <g id="ytick_23">
     <g id="line2d_52">
      <path d="M 55.997054 102.106782 
L 634.557273 102.106782 
" clip-path="url(#p4bff27fb03)" style="fill: none; stroke: #b0b0b0; stroke-opacity: 0.25; stroke-width: 0.8; stroke-linecap: square"/>
     </g>
     <g id="line2d_53">
      <g>
       <use xlink:href="#m343275408a" x="55.997054" y="102.106782" style="stroke: #000000; stroke-width: 0.6"/>
      </g>
     </g>
    </g>
    <g id="ytick_24">
     <g id="line2d_54">
      <path d="M 55.997054 96.006594 
L 634.557273 96.006594 
" clip-path="url(#p4bff27fb03)" style="fill: none; stroke: #b0b0b0; stroke-opacity: 0.25; stroke-width: 0.8; stroke-linecap: square"/>
     </g>
     <g id="line2d_55">
      <g>
       <use xlink:href="#m343275408a" x="55.997054" y="96.006594" style="stroke: #000000; stroke-width: 0.6"/>
      </g>
     </g>
    </g>
    <g id="ytick_25">
     <g id="line2d_56">
      <path d="M 55.997054 90.722372 
L 634.557273 90.722372 
" clip-path="url(#p4bff27fb03)" style="fill: none; stroke: #b0b0b0; stroke-opacity: 0.25; stroke-width: 0.8; stroke-linecap: square"/>
     </g>
     <g id="line2d_57">
      <g>
       <use xlink:href="#m343275408a" x="55.997054" y="90.722372" style="stroke: #000000; stroke-width: 0.6"/>
      </g>
     </g>
    </g>
    <g id="ytick_26">
     <g id="line2d_58">
      <path d="M 55.997054 86.061357 
L 634.557273 86.061357 
" clip-path="url(#p4bff27fb03)" style="fill: none; stroke: #b0b0b0; stroke-opacity: 0.25; stroke-width: 0.8; stroke-linecap: square"/>
     </g>
     <g id="line2d_59">
      <g>
       <use xlink:href="#m343275408a" x="55.997054" y="86.061357" style="stroke: #000000; stroke-width: 0.6"/>
      </g>
     </g>
    </g>
    <g id="ytick_27">
     <g id="line2d_60">
      <path d="M 55.997054 54.462101 
L 634.557273 54.462101 
" clip-path="url(#p4bff27fb03)" style="fill: none; stroke: #b0b0b0; stroke-opacity: 0.25; stroke-width: 0.8; stroke-linecap: square"/>
     </g>
     <g id="line2d_61">
      <g>
       <use xlink:href="#m343275408a" x="55.997054" y="54.462101" style="stroke: #000000; stroke-width: 0.6"/>
      </g>
     </g>
    </g>
    <g id="ytick_28">
     <g id="line2d_62">
      <path d="M 55.997054 38.416676 
L 634.557273 38.416676 
" clip-path="url(#p4bff27fb03)" style="fill: none; stroke: #b0b0b0; stroke-opacity: 0.25; stroke-width: 0.8; stroke-linecap: square"/>
     </g>
     <g id="line2d_63">
      <g>
       <use xlink:href="#m343275408a" x="55.997054" y="38.416676" style="stroke: #000000; stroke-width: 0.6"/>
      </g>
     </g>
    </g>
    <g id="ytick_29">
     <g id="line2d_64">
      <path d="M 55.997054 27.032266 
L 634.557273 27.032266 
" clip-path="url(#p4bff27fb03)" style="fill: none; stroke: #b0b0b0; stroke-opacity: 0.25; stroke-width: 0.8; stroke-linecap: square"/>
     </g>
     <g id="line2d_65">
      <g>
       <use xlink:href="#m343275408a" x="55.997054" y="27.032266" style="stroke: #000000; stroke-width: 0.6"/>
      </g>
     </g>
    </g>
    <g id="text_11">
     <!-- 3sigma 1 Ms flux limit (ph cm^-2 s^-1) -->
     <g transform="translate(19.417366 274.712281) rotate(-90) scale(0.1 -0.1)">
      <defs>
       <path id="DejaVuSans-66" d="M 2375 4863 
L 2375 4384 
L 1825 4384 
Q 1516 4384 1395 4259 
Q 1275 4134 1275 3809 
L 1275 3500 
L 2222 3500 
L 2222 3053 
L 1275 3053 
L 1275 0 
L 697 0 
L 697 3053 
L 147 3053 
L 147 3500 
L 697 3500 
L 697 3744 
Q 697 4328 969 4595 
Q 1241 4863 1831 4863 
L 2375 4863 
z
" transform="scale(0.015625)"/>
       <path id="DejaVuSans-28" d="M 1984 4856 
Q 1566 4138 1362 3434 
Q 1159 2731 1159 2009 
Q 1159 1288 1364 580 
Q 1569 -128 1984 -844 
L 1484 -844 
Q 1016 -109 783 600 
Q 550 1309 550 2009 
Q 550 2706 781 3412 
Q 1013 4119 1484 4856 
L 1984 4856 
z
" transform="scale(0.015625)"/>
       <path id="DejaVuSans-68" d="M 3513 2113 
L 3513 0 
L 2938 0 
L 2938 2094 
Q 2938 2591 2744 2837 
Q 2550 3084 2163 3084 
Q 1697 3084 1428 2787 
Q 1159 2491 1159 1978 
L 1159 0 
L 581 0 
L 581 4863 
L 1159 4863 
L 1159 2956 
Q 1366 3272 1645 3428 
Q 1925 3584 2291 3584 
Q 2894 3584 3203 3211 
Q 3513 2838 3513 2113 
z
" transform="scale(0.015625)"/>
       <path id="DejaVuSans-5e" d="M 2988 4666 
L 4684 2925 
L 4056 2925 
L 2681 4159 
L 1306 2925 
L 678 2925 
L 2375 4666 
L 2988 4666 
z
" transform="scale(0.015625)"/>
       <path id="DejaVuSans-29" d="M 513 4856 
L 1013 4856 
Q 1481 4119 1714 3412 
Q 1947 2706 1947 2009 
Q 1947 1309 1714 600 
Q 1481 -109 1013 -844 
L 513 -844 
Q 928 -128 1133 580 
Q 1338 1288 1338 2009 
Q 1338 2731 1133 3434 
Q 928 4138 513 4856 
z
" transform="scale(0.015625)"/>
      </defs>
      <use xlink:href="#DejaVuSans-33"/>
      <use xlink:href="#DejaVuSans-73" transform="translate(63.623047 0)"/>
      <use xlink:href="#DejaVuSans-69" transform="translate(115.722656 0)"/>
      <use xlink:href="#DejaVuSans-67" transform="translate(143.505859 0)"/>
      <use xlink:href="#DejaVuSans-6d" transform="translate(206.982422 0)"/>
      <use xlink:href="#DejaVuSans-61" transform="translate(304.394531 0)"/>
      <use xlink:href="#DejaVuSans-20" transform="translate(365.673828 0)"/>
      <use xlink:href="#DejaVuSans-31" transform="translate(397.460938 0)"/>
      <use xlink:href="#DejaVuSans-20" transform="translate(461.083984 0)"/>
      <use xlink:href="#DejaVuSans-4d" transform="translate(492.871094 0)"/>
      <use xlink:href="#DejaVuSans-73" transform="translate(579.150391 0)"/>
      <use xlink:href="#DejaVuSans-20" transform="translate(631.25 0)"/>
      <use xlink:href="#DejaVuSans-66" transform="translate(663.037109 0)"/>
      <use xlink:href="#DejaVuSans-6c" transform="translate(698.242188 0)"/>
      <use xlink:href="#DejaVuSans-75" transform="translate(726.025391 0)"/>
      <use xlink:href="#DejaVuSans-78" transform="translate(789.404297 0)"/>
      <use xlink:href="#DejaVuSans-20" transform="translate(848.583984 0)"/>
      <use xlink:href="#DejaVuSans-6c" transform="translate(880.371094 0)"/>
      <use xlink:href="#DejaVuSans-69" transform="translate(908.154297 0)"/>
      <use xlink:href="#DejaVuSans-6d" transform="translate(935.9375 0)"/>
      <use xlink:href="#DejaVuSans-69" transform="translate(1033.349609 0)"/>
      <use xlink:href="#DejaVuSans-74" transform="translate(1061.132812 0)"/>
      <use xlink:href="#DejaVuSans-20" transform="translate(1100.341797 0)"/>
      <use xlink:href="#DejaVuSans-28" transform="translate(1132.128906 0)"/>
      <use xlink:href="#DejaVuSans-70" transform="translate(1171.142578 0)"/>
      <use xlink:href="#DejaVuSans-68" transform="translate(1234.619141 0)"/>
      <use xlink:href="#DejaVuSans-20" transform="translate(1297.998047 0)"/>
      <use xlink:href="#DejaVuSans-63" transform="translate(1329.785156 0)"/>
      <use xlink:href="#DejaVuSans-6d" transform="translate(1384.765625 0)"/>
      <use xlink:href="#DejaVuSans-5e" transform="translate(1482.177734 0)"/>
      <use xlink:href="#DejaVuSans-2d" transform="translate(1565.966797 0)"/>
      <use xlink:href="#DejaVuSans-32" transform="translate(1602.050781 0)"/>
      <use xlink:href="#DejaVuSans-20" transform="translate(1665.673828 0)"/>
      <use xlink:href="#DejaVuSans-73" transform="translate(1697.460938 0)"/>
      <use xlink:href="#DejaVuSans-5e" transform="translate(1749.560547 0)"/>
      <use xlink:href="#DejaVuSans-2d" transform="translate(1833.349609 0)"/>
      <use xlink:href="#DejaVuSans-31" transform="translate(1869.433594 0)"/>
      <use xlink:href="#DejaVuSans-29" transform="translate(1933.056641 0)"/>
     </g>
    </g>
   </g>
   <g id="patch_3">
    <path d="M 55.997054 325.343 
L 55.997054 26.88 
" style="fill: none; stroke: #000000; stroke-width: 0.8; stroke-linejoin: miter; stroke-linecap: square"/>
   </g>
   <g id="patch_4">
    <path d="M 634.557273 325.343 
L 634.557273 26.88 
" style="fill: none; stroke: #000000; stroke-width: 0.8; stroke-linejoin: miter; stroke-linecap: square"/>
   </g>
   <g id="patch_5">
    <path d="M 55.997054 325.343 
L 634.557273 325.343 
" style="fill: none; stroke: #000000; stroke-width: 0.8; stroke-linejoin: miter; stroke-linecap: square"/>
   </g>
   <g id="patch_6">
    <path d="M 55.997054 26.88 
L 634.557273 26.88 
" style="fill: none; stroke: #000000; stroke-width: 0.8; stroke-linejoin: miter; stroke-linecap: square"/>
   </g>
   <g id="PathCollection_1">
    <defs>
     <path id="C0_0_ed42d75882" d="M 0 4.795832 
C 1.271869 4.795832 2.491818 4.290512 3.391165 3.391165 
C 4.290512 2.491818 4.795832 1.271869 4.795832 -0 
C 4.795832 -1.271869 4.290512 -2.491818 3.391165 -3.391165 
C 2.491818 -4.290512 1.271869 -4.795832 0 -4.795832 
C -1.271869 -4.795832 -2.491818 -4.290512 -3.391165 -3.391165 
C -4.290512 -2.491818 -4.795832 -1.271869 -4.795832 0 
C -4.795832 1.271869 -4.290512 2.491818 -3.391165 3.391165 
C -2.491818 4.290512 -1.271869 4.795832 0 4.795832 
z
"/>
    </defs>
    <g clip-path="url(#p4bff27fb03)">
     <use xlink:href="#C0_0_ed42d75882" x="82.295246" y="311.7765" style="fill: #2ca02c; stroke: #ffffff; stroke-width: 1.1"/>
    </g>
    <g clip-path="url(#p4bff27fb03)">
     <use xlink:href="#C0_0_ed42d75882" x="169.955885" y="220.765499" style="fill: #f0b429; stroke: #ffffff; stroke-width: 1.1"/>
    </g>
    <g clip-path="url(#p4bff27fb03)">
     <use xlink:href="#C0_0_ed42d75882" x="257.616524" y="200.441714" style="fill: #5c6470; stroke: #ffffff; stroke-width: 1.1"/>
    </g>
    <g clip-path="url(#p4bff27fb03)">
     <use xlink:href="#C0_0_ed42d75882" x="345.277163" y="188.139994" style="fill: #1f77b4; stroke: #ffffff; stroke-width: 1.1"/>
    </g>
    <g clip-path="url(#p4bff27fb03)">
     <use xlink:href="#C0_0_ed42d75882" x="432.937803" y="178.303263" style="fill: #5c6470; stroke: #ffffff; stroke-width: 1.1"/>
    </g>
    <g clip-path="url(#p4bff27fb03)">
     <use xlink:href="#C0_0_ed42d75882" x="520.598442" y="174.902778" style="fill: #5c6470; stroke: #ffffff; stroke-width: 1.1"/>
    </g>
    <g clip-path="url(#p4bff27fb03)">
     <use xlink:href="#C0_0_ed42d75882" x="608.259081" y="40.4465" style="fill: #5c6470; stroke: #ffffff; stroke-width: 1.1"/>
    </g>
   </g>
   <g id="text_12">
    <!-- 3.000000e-6 -->
    <g transform="translate(56.759621 304.239342) scale(0.08 -0.08)">
     <defs>
      <path id="DejaVuSans-36" d="M 2113 2584 
Q 1688 2584 1439 2293 
Q 1191 2003 1191 1497 
Q 1191 994 1439 701 
Q 1688 409 2113 409 
Q 2538 409 2786 701 
Q 3034 994 3034 1497 
Q 3034 2003 2786 2293 
Q 2538 2584 2113 2584 
z
M 3366 4563 
L 3366 3988 
Q 3128 4100 2886 4159 
Q 2644 4219 2406 4219 
Q 1781 4219 1451 3797 
Q 1122 3375 1075 2522 
Q 1259 2794 1537 2939 
Q 1816 3084 2150 3084 
Q 2853 3084 3261 2657 
Q 3669 2231 3669 1497 
Q 3669 778 3244 343 
Q 2819 -91 2113 -91 
Q 1303 -91 875 529 
Q 447 1150 447 2328 
Q 447 3434 972 4092 
Q 1497 4750 2381 4750 
Q 2619 4750 2861 4703 
Q 3103 4656 3366 4563 
z
" transform="scale(0.015625)"/>
     </defs>
     <use xlink:href="#DejaVuSans-33"/>
     <use xlink:href="#DejaVuSans-2e" transform="translate(63.623047 0)"/>
     <use xlink:href="#DejaVuSans-30" transform="translate(95.410156 0)"/>
     <use xlink:href="#DejaVuSans-30" transform="translate(159.033203 0)"/>
     <use xlink:href="#DejaVuSans-30" transform="translate(222.65625 0)"/>
     <use xlink:href="#DejaVuSans-30" transform="translate(286.279297 0)"/>
     <use xlink:href="#DejaVuSans-30" transform="translate(349.902344 0)"/>
     <use xlink:href="#DejaVuSans-30" transform="translate(413.525391 0)"/>
     <use xlink:href="#DejaVuSans-65" transform="translate(477.148438 0)"/>
     <use xlink:href="#DejaVuSans-2d" transform="translate(538.671875 0)"/>
     <use xlink:href="#DejaVuSans-36" transform="translate(574.755859 0)"/>
    </g>
   </g>
   <g id="text_13">
    <!-- 2.991753e-5 -->
    <g transform="translate(144.42026 213.22834) scale(0.08 -0.08)">
     <defs>
      <path id="DejaVuSans-37" d="M 525 4666 
L 3525 4666 
L 3525 4397 
L 1831 0 
L 1172 0 
L 2766 4134 
L 525 4134 
L 525 4666 
z
" transform="scale(0.015625)"/>
     </defs>
     <use xlink:href="#DejaVuSans-32"/>
     <use xlink:href="#DejaVuSans-2e" transform="translate(63.623047 0)"/>
     <use xlink:href="#DejaVuSans-39" transform="translate(95.410156 0)"/>
     <use xlink:href="#DejaVuSans-39" transform="translate(159.033203 0)"/>
     <use xlink:href="#DejaVuSans-31" transform="translate(222.65625 0)"/>
     <use xlink:href="#DejaVuSans-37" transform="translate(286.279297 0)"/>
     <use xlink:href="#DejaVuSans-35" transform="translate(349.902344 0)"/>
     <use xlink:href="#DejaVuSans-33" transform="translate(413.525391 0)"/>
     <use xlink:href="#DejaVuSans-65" transform="translate(477.148438 0)"/>
     <use xlink:href="#DejaVuSans-2d" transform="translate(538.671875 0)"/>
     <use xlink:href="#DejaVuSans-35" transform="translate(574.755859 0)"/>
    </g>
   </g>
   <g id="text_14">
    <!-- 5.000000e-5 -->
    <g transform="translate(232.080899 192.904556) scale(0.08 -0.08)">
     <use xlink:href="#DejaVuSans-35"/>
     <use xlink:href="#DejaVuSans-2e" transform="translate(63.623047 0)"/>
     <use xlink:href="#DejaVuSans-30" transform="translate(95.410156 0)"/>
     <use xlink:href="#DejaVuSans-30" transform="translate(159.033203 0)"/>
     <use xlink:href="#DejaVuSans-30" transform="translate(222.65625 0)"/>
     <use xlink:href="#DejaVuSans-30" transform="translate(286.279297 0)"/>
     <use xlink:href="#DejaVuSans-30" transform="translate(349.902344 0)"/>
     <use xlink:href="#DejaVuSans-30" transform="translate(413.525391 0)"/>
     <use xlink:href="#DejaVuSans-65" transform="translate(477.148438 0)"/>
     <use xlink:href="#DejaVuSans-2d" transform="translate(538.671875 0)"/>
     <use xlink:href="#DejaVuSans-35" transform="translate(574.755859 0)"/>
    </g>
   </g>
   <g id="text_15">
    <!-- 6.823007e-5 -->
    <g transform="translate(319.741538 180.602835) scale(0.08 -0.08)">
     <defs>
      <path id="DejaVuSans-38" d="M 2034 2216 
Q 1584 2216 1326 1975 
Q 1069 1734 1069 1313 
Q 1069 891 1326 650 
Q 1584 409 2034 409 
Q 2484 409 2743 651 
Q 3003 894 3003 1313 
Q 3003 1734 2745 1975 
Q 2488 2216 2034 2216 
z
M 1403 2484 
Q 997 2584 770 2862 
Q 544 3141 544 3541 
Q 544 4100 942 4425 
Q 1341 4750 2034 4750 
Q 2731 4750 3128 4425 
Q 3525 4100 3525 3541 
Q 3525 3141 3298 2862 
Q 3072 2584 2669 2484 
Q 3125 2378 3379 2068 
Q 3634 1759 3634 1313 
Q 3634 634 3220 271 
Q 2806 -91 2034 -91 
Q 1263 -91 848 271 
Q 434 634 434 1313 
Q 434 1759 690 2068 
Q 947 2378 1403 2484 
z
M 1172 3481 
Q 1172 3119 1398 2916 
Q 1625 2713 2034 2713 
Q 2441 2713 2670 2916 
Q 2900 3119 2900 3481 
Q 2900 3844 2670 4047 
Q 2441 4250 2034 4250 
Q 1625 4250 1398 4047 
Q 1172 3844 1172 3481 
z
" transform="scale(0.015625)"/>
     </defs>
     <use xlink:href="#DejaVuSans-36"/>
     <use xlink:href="#DejaVuSans-2e" transform="translate(63.623047 0)"/>
     <use xlink:href="#DejaVuSans-38" transform="translate(95.410156 0)"/>
     <use xlink:href="#DejaVuSans-32" transform="translate(159.033203 0)"/>
     <use xlink:href="#DejaVuSans-33" transform="translate(222.65625 0)"/>
     <use xlink:href="#DejaVuSans-30" transform="translate(286.279297 0)"/>
     <use xlink:href="#DejaVuSans-30" transform="translate(349.902344 0)"/>
     <use xlink:href="#DejaVuSans-37" transform="translate(413.525391 0)"/>
     <use xlink:href="#DejaVuSans-65" transform="translate(477.148438 0)"/>
     <use xlink:href="#DejaVuSans-2d" transform="translate(538.671875 0)"/>
     <use xlink:href="#DejaVuSans-35" transform="translate(574.755859 0)"/>
    </g>
   </g>
   <g id="text_16">
    <!-- 8.748416e-5 -->
    <g transform="translate(407.402178 170.766105) scale(0.08 -0.08)">
     <use xlink:href="#DejaVuSans-38"/>
     <use xlink:href="#DejaVuSans-2e" transform="translate(63.623047 0)"/>
     <use xlink:href="#DejaVuSans-37" transform="translate(95.410156 0)"/>
     <use xlink:href="#DejaVuSans-34" transform="translate(159.033203 0)"/>
     <use xlink:href="#DejaVuSans-38" transform="translate(222.65625 0)"/>
     <use xlink:href="#DejaVuSans-34" transform="translate(286.279297 0)"/>
     <use xlink:href="#DejaVuSans-31" transform="translate(349.902344 0)"/>
     <use xlink:href="#DejaVuSans-36" transform="translate(413.525391 0)"/>
     <use xlink:href="#DejaVuSans-65" transform="translate(477.148438 0)"/>
     <use xlink:href="#DejaVuSans-2d" transform="translate(538.671875 0)"/>
     <use xlink:href="#DejaVuSans-35" transform="translate(574.755859 0)"/>
    </g>
   </g>
   <g id="text_17">
    <!-- 9.533409e-5 -->
    <g transform="translate(495.062817 167.36562) scale(0.08 -0.08)">
     <use xlink:href="#DejaVuSans-39"/>
     <use xlink:href="#DejaVuSans-2e" transform="translate(63.623047 0)"/>
     <use xlink:href="#DejaVuSans-35" transform="translate(95.410156 0)"/>
     <use xlink:href="#DejaVuSans-33" transform="translate(159.033203 0)"/>
     <use xlink:href="#DejaVuSans-33" transform="translate(222.65625 0)"/>
     <use xlink:href="#DejaVuSans-34" transform="translate(286.279297 0)"/>
     <use xlink:href="#DejaVuSans-30" transform="translate(349.902344 0)"/>
     <use xlink:href="#DejaVuSans-39" transform="translate(413.525391 0)"/>
     <use xlink:href="#DejaVuSans-65" transform="translate(477.148438 0)"/>
     <use xlink:href="#DejaVuSans-2d" transform="translate(538.671875 0)"/>
     <use xlink:href="#DejaVuSans-35" transform="translate(574.755859 0)"/>
    </g>
   </g>
   <g id="text_18">
    <!-- 2.850000e-3 -->
    <g transform="translate(582.723456 32.909342) scale(0.08 -0.08)">
     <use xlink:href="#DejaVuSans-32"/>
     <use xlink:href="#DejaVuSans-2e" transform="translate(63.623047 0)"/>
     <use xlink:href="#DejaVuSans-38" transform="translate(95.410156 0)"/>
     <use xlink:href="#DejaVuSans-35" transform="translate(159.033203 0)"/>
     <use xlink:href="#DejaVuSans-30" transform="translate(222.65625 0)"/>
     <use xlink:href="#DejaVuSans-30" transform="translate(286.279297 0)"/>
     <use xlink:href="#DejaVuSans-30" transform="translate(349.902344 0)"/>
     <use xlink:href="#DejaVuSans-30" transform="translate(413.525391 0)"/>
     <use xlink:href="#DejaVuSans-65" transform="translate(477.148438 0)"/>
     <use xlink:href="#DejaVuSans-2d" transform="translate(538.671875 0)"/>
     <use xlink:href="#DejaVuSans-33" transform="translate(574.755859 0)"/>
    </g>
   </g>
   <g id="text_19">
    <!-- Current TES authority is v3p5 fullstat W2; the delayed-only TES point excludes prompt background. -->
    <g style="fill: #4b5563" transform="translate(61.782656 319.37374) scale(0.08 -0.08)">
     <defs>
      <path id="DejaVuSans-76" d="M 191 3500 
L 800 3500 
L 1894 563 
L 2988 3500 
L 3597 3500 
L 2284 0 
L 1503 0 
L 191 3500 
z
" transform="scale(0.015625)"/>
      <path id="DejaVuSans-3b" d="M 750 3309 
L 1409 3309 
L 1409 2516 
L 750 2516 
L 750 3309 
z
M 750 794 
L 1409 794 
L 1409 256 
L 897 -744 
L 494 -744 
L 750 256 
L 750 794 
z
" transform="scale(0.015625)"/>
      <path id="DejaVuSans-6b" d="M 581 4863 
L 1159 4863 
L 1159 1991 
L 2875 3500 
L 3609 3500 
L 1753 1863 
L 3688 0 
L 2938 0 
L 1159 1709 
L 1159 0 
L 581 0 
L 581 4863 
z
" transform="scale(0.015625)"/>
     </defs>
     <use xlink:href="#DejaVuSans-43"/>
     <use xlink:href="#DejaVuSans-75" transform="translate(69.824219 0)"/>
     <use xlink:href="#DejaVuSans-72" transform="translate(133.203125 0)"/>
     <use xlink:href="#DejaVuSans-72" transform="translate(172.566406 0)"/>
     <use xlink:href="#DejaVuSans-65" transform="translate(211.429688 0)"/>
     <use xlink:href="#DejaVuSans-6e" transform="translate(272.953125 0)"/>
     <use xlink:href="#DejaVuSans-74" transform="translate(336.332031 0)"/>
     <use xlink:href="#DejaVuSans-20" transform="translate(375.541016 0)"/>
     <use xlink:href="#DejaVuSans-54" transform="translate(407.328125 0)"/>
     <use xlink:href="#DejaVuSans-45" transform="translate(468.412109 0)"/>
     <use xlink:href="#DejaVuSans-53" transform="translate(531.595703 0)"/>
     <use xlink:href="#DejaVuSans-20" transform="translate(595.072266 0)"/>
     <use xlink:href="#DejaVuSans-61" transform="translate(626.859375 0)"/>
     <use xlink:href="#DejaVuSans-75" transform="translate(688.138672 0)"/>
     <use xlink:href="#DejaVuSans-74" transform="translate(751.517578 0)"/>
     <use xlink:href="#DejaVuSans-68" transform="translate(790.726562 0)"/>
     <use xlink:href="#DejaVuSans-6f" transform="translate(854.105469 0)"/>
     <use xlink:href="#DejaVuSans-72" transform="translate(915.287109 0)"/>
     <use xlink:href="#DejaVuSans-69" transform="translate(956.400391 0)"/>
     <use xlink:href="#DejaVuSans-74" transform="translate(984.183594 0)"/>
     <use xlink:href="#DejaVuSans-79" transform="translate(1023.392578 0)"/>
     <use xlink:href="#DejaVuSans-20" transform="translate(1082.572266 0)"/>
     <use xlink:href="#DejaVuSans-69" transform="translate(1114.359375 0)"/>
     <use xlink:href="#DejaVuSans-73" transform="translate(1142.142578 0)"/>
     <use xlink:href="#DejaVuSans-20" transform="translate(1194.242188 0)"/>
     <use xlink:href="#DejaVuSans-76" transform="translate(1226.029297 0)"/>
     <use xlink:href="#DejaVuSans-33" transform="translate(1285.208984 0)"/>
     <use xlink:href="#DejaVuSans-70" transform="translate(1348.832031 0)"/>
     <use xlink:href="#DejaVuSans-35" transform="translate(1412.308594 0)"/>
     <use xlink:href="#DejaVuSans-20" transform="translate(1475.931641 0)"/>
     <use xlink:href="#DejaVuSans-66" transform="translate(1507.71875 0)"/>
     <use xlink:href="#DejaVuSans-75" transform="translate(1542.923828 0)"/>
     <use xlink:href="#DejaVuSans-6c" transform="translate(1606.302734 0)"/>
     <use xlink:href="#DejaVuSans-6c" transform="translate(1634.085938 0)"/>
     <use xlink:href="#DejaVuSans-73" transform="translate(1661.869141 0)"/>
     <use xlink:href="#DejaVuSans-74" transform="translate(1713.96875 0)"/>
     <use xlink:href="#DejaVuSans-61" transform="translate(1753.177734 0)"/>
     <use xlink:href="#DejaVuSans-74" transform="translate(1814.457031 0)"/>
     <use xlink:href="#DejaVuSans-20" transform="translate(1853.666016 0)"/>
     <use xlink:href="#DejaVuSans-57" transform="translate(1885.453125 0)"/>
     <use xlink:href="#DejaVuSans-32" transform="translate(1984.330078 0)"/>
     <use xlink:href="#DejaVuSans-3b" transform="translate(2047.953125 0)"/>
     <use xlink:href="#DejaVuSans-20" transform="translate(2081.644531 0)"/>
     <use xlink:href="#DejaVuSans-74" transform="translate(2113.431641 0)"/>
     <use xlink:href="#DejaVuSans-68" transform="translate(2152.640625 0)"/>
     <use xlink:href="#DejaVuSans-65" transform="translate(2216.019531 0)"/>
     <use xlink:href="#DejaVuSans-20" transform="translate(2277.542969 0)"/>
     <use xlink:href="#DejaVuSans-64" transform="translate(2309.330078 0)"/>
     <use xlink:href="#DejaVuSans-65" transform="translate(2372.806641 0)"/>
     <use xlink:href="#DejaVuSans-6c" transform="translate(2434.330078 0)"/>
     <use xlink:href="#DejaVuSans-61" transform="translate(2462.113281 0)"/>
     <use xlink:href="#DejaVuSans-79" transform="translate(2523.392578 0)"/>
     <use xlink:href="#DejaVuSans-65" transform="translate(2582.572266 0)"/>
     <use xlink:href="#DejaVuSans-64" transform="translate(2644.095703 0)"/>
     <use xlink:href="#DejaVuSans-2d" transform="translate(2707.572266 0)"/>
     <use xlink:href="#DejaVuSans-6f" transform="translate(2745.53125 0)"/>
     <use xlink:href="#DejaVuSans-6e" transform="translate(2806.712891 0)"/>
     <use xlink:href="#DejaVuSans-6c" transform="translate(2870.091797 0)"/>
     <use xlink:href="#DejaVuSans-79" transform="translate(2897.875 0)"/>
     <use xlink:href="#DejaVuSans-20" transform="translate(2957.054688 0)"/>
     <use xlink:href="#DejaVuSans-54" transform="translate(2988.841797 0)"/>
     <use xlink:href="#DejaVuSans-45" transform="translate(3049.925781 0)"/>
     <use xlink:href="#DejaVuSans-53" transform="translate(3113.109375 0)"/>
     <use xlink:href="#DejaVuSans-20" transform="translate(3176.585938 0)"/>
     <use xlink:href="#DejaVuSans-70" transform="translate(3208.373047 0)"/>
     <use xlink:href="#DejaVuSans-6f" transform="translate(3271.849609 0)"/>
     <use xlink:href="#DejaVuSans-69" transform="translate(3333.03125 0)"/>
     <use xlink:href="#DejaVuSans-6e" transform="translate(3360.814453 0)"/>
     <use xlink:href="#DejaVuSans-74" transform="translate(3424.193359 0)"/>
     <use xlink:href="#DejaVuSans-20" transform="translate(3463.402344 0)"/>
     <use xlink:href="#DejaVuSans-65" transform="translate(3495.189453 0)"/>
     <use xlink:href="#DejaVuSans-78" transform="translate(3554.962891 0)"/>
     <use xlink:href="#DejaVuSans-63" transform="translate(3612.392578 0)"/>
     <use xlink:href="#DejaVuSans-6c" transform="translate(3667.373047 0)"/>
     <use xlink:href="#DejaVuSans-75" transform="translate(3695.15625 0)"/>
     <use xlink:href="#DejaVuSans-64" transform="translate(3758.535156 0)"/>
     <use xlink:href="#DejaVuSans-65" transform="translate(3822.011719 0)"/>
     <use xlink:href="#DejaVuSans-73" transform="translate(3883.535156 0)"/>
     <use xlink:href="#DejaVuSans-20" transform="translate(3935.634766 0)"/>
     <use xlink:href="#DejaVuSans-70" transform="translate(3967.421875 0)"/>
     <use xlink:href="#DejaVuSans-72" transform="translate(4030.898438 0)"/>
     <use xlink:href="#DejaVuSans-6f" transform="translate(4069.761719 0)"/>
     <use xlink:href="#DejaVuSans-6d" transform="translate(4130.943359 0)"/>
     <use xlink:href="#DejaVuSans-70" transform="translate(4228.355469 0)"/>
     <use xlink:href="#DejaVuSans-74" transform="translate(4291.832031 0)"/>
     <use xlink:href="#DejaVuSans-20" transform="translate(4331.041016 0)"/>
     <use xlink:href="#DejaVuSans-62" transform="translate(4362.828125 0)"/>
     <use xlink:href="#DejaVuSans-61" transform="translate(4426.304688 0)"/>
     <use xlink:href="#DejaVuSans-63" transform="translate(4487.583984 0)"/>
     <use xlink:href="#DejaVuSans-6b" transform="translate(4542.564453 0)"/>
     <use xlink:href="#DejaVuSans-67" transform="translate(4600.474609 0)"/>
     <use xlink:href="#DejaVuSans-72" transform="translate(4663.951172 0)"/>
     <use xlink:href="#DejaVuSans-6f" transform="translate(4702.814453 0)"/>
     <use xlink:href="#DejaVuSans-75" transform="translate(4763.996094 0)"/>
     <use xlink:href="#DejaVuSans-6e" transform="translate(4827.375 0)"/>
     <use xlink:href="#DejaVuSans-64" transform="translate(4890.753906 0)"/>
     <use xlink:href="#DejaVuSans-2e" transform="translate(4954.230469 0)"/>
    </g>
   </g>
   <g id="text_20">
    <!-- 511-keV narrow-line 1 Ms sensitivity comparison -->
    <g transform="translate(199.622476 20.88) scale(0.12 -0.12)">
     <defs>
      <path id="DejaVuSans-56" d="M 1831 0 
L 50 4666 
L 709 4666 
L 2188 738 
L 3669 4666 
L 4325 4666 
L 2547 0 
L 1831 0 
z
" transform="scale(0.015625)"/>
      <path id="DejaVuSans-77" d="M 269 3500 
L 844 3500 
L 1563 769 
L 2278 3500 
L 2956 3500 
L 3675 769 
L 4391 3500 
L 4966 3500 
L 4050 0 
L 3372 0 
L 2619 2869 
L 1863 0 
L 1184 0 
L 269 3500 
z
" transform="scale(0.015625)"/>
     </defs>
     <use xlink:href="#DejaVuSans-35"/>
     <use xlink:href="#DejaVuSans-31" transform="translate(63.623047 0)"/>
     <use xlink:href="#DejaVuSans-31" transform="translate(127.246094 0)"/>
     <use xlink:href="#DejaVuSans-2d" transform="translate(190.869141 0)"/>
     <use xlink:href="#DejaVuSans-6b" transform="translate(226.953125 0)"/>
     <use xlink:href="#DejaVuSans-65" transform="translate(281.238281 0)"/>
     <use xlink:href="#DejaVuSans-56" transform="translate(342.761719 0)"/>
     <use xlink:href="#DejaVuSans-20" transform="translate(411.169922 0)"/>
     <use xlink:href="#DejaVuSans-6e" transform="translate(442.957031 0)"/>
     <use xlink:href="#DejaVuSans-61" transform="translate(506.335938 0)"/>
     <use xlink:href="#DejaVuSans-72" transform="translate(567.615234 0)"/>
     <use xlink:href="#DejaVuSans-72" transform="translate(606.978516 0)"/>
     <use xlink:href="#DejaVuSans-6f" transform="translate(645.841797 0)"/>
     <use xlink:href="#DejaVuSans-77" transform="translate(707.023438 0)"/>
     <use xlink:href="#DejaVuSans-2d" transform="translate(788.810547 0)"/>
     <use xlink:href="#DejaVuSans-6c" transform="translate(824.894531 0)"/>
     <use xlink:href="#DejaVuSans-69" transform="translate(852.677734 0)"/>
     <use xlink:href="#DejaVuSans-6e" transform="translate(880.460938 0)"/>
     <use xlink:href="#DejaVuSans-65" transform="translate(943.839844 0)"/>
     <use xlink:href="#DejaVuSans-20" transform="translate(1005.363281 0)"/>
     <use xlink:href="#DejaVuSans-31" transform="translate(1037.150391 0)"/>
     <use xlink:href="#DejaVuSans-20" transform="translate(1100.773438 0)"/>
     <use xlink:href="#DejaVuSans-4d" transform="translate(1132.560547 0)"/>
     <use xlink:href="#DejaVuSans-73" transform="translate(1218.839844 0)"/>
     <use xlink:href="#DejaVuSans-20" transform="translate(1270.939453 0)"/>
     <use xlink:href="#DejaVuSans-73" transform="translate(1302.726562 0)"/>
     <use xlink:href="#DejaVuSans-65" transform="translate(1354.826172 0)"/>
     <use xlink:href="#DejaVuSans-6e" transform="translate(1416.349609 0)"/>
     <use xlink:href="#DejaVuSans-73" transform="translate(1479.728516 0)"/>
     <use xlink:href="#DejaVuSans-69" transform="translate(1531.828125 0)"/>
     <use xlink:href="#DejaVuSans-74" transform="translate(1559.611328 0)"/>
     <use xlink:href="#DejaVuSans-69" transform="translate(1598.820312 0)"/>
     <use xlink:href="#DejaVuSans-76" transform="translate(1626.603516 0)"/>
     <use xlink:href="#DejaVuSans-69" transform="translate(1685.783203 0)"/>
     <use xlink:href="#DejaVuSans-74" transform="translate(1713.566406 0)"/>
     <use xlink:href="#DejaVuSans-79" transform="translate(1752.775391 0)"/>
     <use xlink:href="#DejaVuSans-20" transform="translate(1811.955078 0)"/>
     <use xlink:href="#DejaVuSans-63" transform="translate(1843.742188 0)"/>
     <use xlink:href="#DejaVuSans-6f" transform="translate(1898.722656 0)"/>
     <use xlink:href="#DejaVuSans-6d" transform="translate(1959.904297 0)"/>
     <use xlink:href="#DejaVuSans-70" transform="translate(2057.316406 0)"/>
     <use xlink:href="#DejaVuSans-61" transform="translate(2120.792969 0)"/>
     <use xlink:href="#DejaVuSans-72" transform="translate(2182.072266 0)"/>
     <use xlink:href="#DejaVuSans-69" transform="translate(2223.185547 0)"/>
     <use xlink:href="#DejaVuSans-73" transform="translate(2250.96875 0)"/>
     <use xlink:href="#DejaVuSans-6f" transform="translate(2303.068359 0)"/>
     <use xlink:href="#DejaVuSans-6e" transform="translate(2364.25 0)"/>
    </g>
   </g>
  </g>
 </g>
 <defs>
  <clipPath id="p4bff27fb03">
   <rect x="55.997054" y="26.88" width="578.560219" height="298.463"/>
  </clipPath>
 </defs>
</svg>
